SplineFontDB: 3.0
FontName: VremenaItalic
FullName: Vremena Italic
FamilyName: Vremena Italic
Weight: Bold
Copyright: Copyright (c) 2009 by abstrkt. All rights reserved.
Version: 001.001
ItalicAngle: 0
UnderlinePosition: -100
UnderlineWidth: 50
Ascent: 750
Descent: 250
InvalidEm: 0
sfntRevision: 0x00010000
LayerCount: 2
Layer: 0 0 "Arri+AOgA-re" 1
Layer: 1 0 "Avant" 0
XUID: [1021 809 1845788318 4305375]
StyleMap: 0x0000
FSType: 4
OS2Version: 2
OS2_WeightWidthSlopeOnly: 0
OS2_UseTypoMetrics: 0
CreationTime: 1251911436
ModificationTime: 1251911436
PfmFamily: 17
TTFWeight: 700
TTFWidth: 5
LineGap: 9
VLineGap: 0
Panose: 2 0 0 0 0 0 0 0 0 0
OS2TypoAscent: 750
OS2TypoAOffset: 0
OS2TypoDescent: -250
OS2TypoDOffset: 0
OS2TypoLinegap: 0
OS2WinAscent: 890
OS2WinAOffset: 0
OS2WinDescent: 358
OS2WinDOffset: 0
HheadAscent: 750
HheadAOffset: 0
HheadDescent: -250
HheadDOffset: 0
OS2SubXSize: 700
OS2SubYSize: 650
OS2SubXOff: 0
OS2SubYOff: 140
OS2SupXSize: 700
OS2SupYSize: 650
OS2SupXOff: 0
OS2SupYOff: 477
OS2StrikeYSize: 50
OS2StrikeYPos: 250
OS2CapHeight: 650
OS2XHeight: 450
OS2Vendor: 'PYRS'
OS2CodePages: 00000007.00000000
OS2UnicodeRanges: 8000020f.0000000a.00000000.00000000
Lookup: 258 0 0 "'kern' Horizontal Kerning in Latin lookup 0" { "'kern' Horizontal Kerning in Latin lookup 0 per glyph data 0"  "'kern' Horizontal Kerning in Latin lookup 0 per glyph data 1"  } ['kern' ('latn' <'dflt' > ) ]
DEI: 91125
LangName: 1033 "" "" "Regular" "FONTLAB:OTFEXPORT" "VremenaItalic" "001.000" "" "Vremena Italic is a trademark of abstrkt." "abstrkt" "Roman Gornitsky" "Copyright (c) 2009 by abstrkt. All rights reserved." "" "http://abstrkt.ru" "" "" "" "Vremena" "Italic"
Encoding: UnicodeBmp
UnicodeInterp: none
NameList: Adobe Glyph List
DisplaySize: -48
AntiAlias: 1
FitToEm: 0
WinInfo: 38 38 14
BeginPrivate: 2
BlueValues 13 [0 0 450 460]
OtherBlues 11 [-210 -200]
EndPrivate
BeginChars: 65538 343

StartChar: afii10080
Encoding: 1086 1086 1
Width: 471
Flags: MW
HStem: -10 32<200.5 269.5 200.5 274> 428 32
LayerCount: 2
Fore
SplineSet
63 225 m 0
 97 361 201 460 327 460 c 0
 446 460 508 361 474 225 c 0
 441 89 337 -10 211 -10 c 0
 92 -10 30 89 63 225 c 0
170 210 m 0
 156 91 169 22 232 22 c 0
 307 22 351 121 367 240 c 0
 383 359 368 427 305 428 c 0
 231 429 186 329 170 210 c 0
EndSplineSet
EndChar

StartChar: afii10079
Encoding: 1085 1085 2
Width: 530
Flags: MW
HStem: -20 20G<64 160 64 64> -10 21G<354.5 401> 220 32<220 372 214 378> 430 20G<428 524 524 524> 440 20G<271 271>
LayerCount: 2
Fore
SplineSet
331 57 m 2x70
 372 220 l 1
 214 220 l 1
 160 0 l 1
 64 0 l 1
 157 383 l 1
 88 405 l 1
 271 460 l 1xa8
 220 252 l 1
 378 252 l 1
 428 450 l 1
 524 450 l 1
 426 47 l 1
 528 92 l 1
 497 58 431 -10 371 -10 c 0
 338 -10 321 12 331 57 c 2x70
EndSplineSet
EndChar

StartChar: afii10081
Encoding: 1087 1087 3
Width: 528
Flags: MW
HStem: -20 20G<64 160 64 64> -10 21G<355 401.5> 400 60
LayerCount: 2
Fore
SplineSet
272 460 m 1xa0
 244 347 l 1
 284 395 357 460 413 460 c 0
 499 460 511 395 487 296 c 2
 426 47 l 1
 528 92 l 1
 497 58 431 -10 372 -10 c 0x60
 338 -10 321 12 332 57 c 2
 387 283 l 2
 407 365 404 400 356 400 c 0
 326 400 275 364 237 317 c 1
 160 0 l 1
 64 0 l 1
 158 383 l 1
 89 405 l 1
 272 460 l 1xa0
EndSplineSet
EndChar

StartChar: afii10074
Encoding: 1080 1080 4
Width: 525
Flags: MW
HStem: -10 58<128 241.5> 440 20G<269 269 524 524>
LayerCount: 2
Fore
SplineSet
86 405 m 1
 269 460 l 1
 197 167 l 2
 177 85 176 48 223 48 c 0
 260 48 312 89 347 133 c 1
 410 383 l 1
 387 390 364 398 341 405 c 1
 402 423 463 442 524 460 c 1
 423 47 l 1
 526 92 l 1
 487 51 427 -10 369 -10 c 0
 332 -10 319 15 329 57 c 2
 340 101 l 1
 299 54 225 -10 171 -10 c 0
 85 -10 72 55 97 154 c 2
 155 383 l 1
 86 405 l 1
EndSplineSet
EndChar

StartChar: afii10084
Encoding: 1090 1090 5
Width: 775
Flags: MW
HStem: -20 20G<64 160 64 64 316 412 316 316> -10 21G<602 648.5> 400 60
LayerCount: 2
Fore
SplineSet
579 57 m 2x60
 634 283 l 2
 654 365 647 400 601 400 c 0
 571 400 526 364 488 317 c 0
 487 311 486 304 484 296 c 2
 412 0 l 1
 316 0 l 1
 384 283 l 2
 404 365 401 400 355 400 c 0
 324 400 275 364 237 317 c 1
 160 0 l 1
 64 0 l 1xa0
 158 383 l 1
 89 405 l 1
 272 460 l 1
 245 347 l 1
 281 392 353 460 410 460 c 0
 475 460 501 406 491 342 c 1
 526 387 596 460 655 460 c 0
 744 460 758 395 734 296 c 2
 673 47 l 1
 775 92 l 1
 744 58 678 -10 619 -10 c 0
 585 -10 568 12 579 57 c 2x60
EndSplineSet
EndChar

StartChar: afii10068
Encoding: 1075 1075 6
Width: 387
Flags: MW
HStem: -10 47<198.5 225> 416 44<232 254.5>
LayerCount: 2
Fore
SplineSet
106 345 m 1
 129 415 197 460 267 460 c 0
 348 460 407 415 398 338 c 0
 390 270 324 246 239 217 c 0
 178 194 146 173 141 117 c 0
 135 62 175 37 222 37 c 0
 271 37 323 63 366 135 c 1
 334 36 265 -10 185 -10 c 0
 99 -10 36 34 49 113 c 0
 61 190 132 211 213 243 c 0
 264 262 296 282 303 332 c 0
 311 385 276 416 233 416 c 0
 196 416 151 402 106 345 c 1
EndSplineSet
EndChar

StartChar: afii10088
Encoding: 1094 1094 7
Width: 514
Flags: MW
HStem: -200 21G -10 58<114 227.5> 440 20G
LayerCount: 2
Fore
SplineSet
72 405 m 1
 133 423 194 442 255 460 c 1
 231 362 207 265 183 167 c 0
 163 85 162 48 209 48 c 0
 246 48 298 89 333 133 c 1
 354 216 375 300 396 383 c 1
 373 390 350 398 327 405 c 1
 388 423 449 442 510 460 c 1
 476 322 443 185 409 47 c 1
 444 62 477 77 512 92 c 2
 510 91 l 2
 507 87 506 83 504 80 c 2
 503 79 l 1
 484 53 471 29 465 6 c 0
 462 -5 460 -15 460 -23 c 0
 458 -51 470 -71 466 -101 c 0
 460 -153 413 -181 369 -200 c 1
 386 -170 391 -155 395 -125 c 0
 399 -89 390 -75 395 -45 c 0
 399 -13 414 1 435 22 c 1
 419 10 401 1 383 -4 c 0
 369 -8 356 -9 344 -8 c 0
 314 -4 306 20 315 57 c 0
 319 71 322 87 326 101 c 1
 285 54 211 -10 157 -10 c 0
 71 -10 58 55 83 154 c 0
 102 230 122 307 141 383 c 1
 118 390 95 398 72 405 c 1
EndSplineSet
EndChar

StartChar: afii10090
Encoding: 1096 1096 8
Width: 769
Flags: MW
HStem: -10 60<186 192.5 441 448.5> 440 20G<255 255 510 510 765 765>
LayerCount: 2
Fore
SplineSet
326 405 m 1
 510 460 l 1
 438 167 l 2
 418 85 419 50 463 50 c 0
 501 50 553 89 588 133 c 1
 651 383 l 1
 581 405 l 1
 642 423 704 442 765 460 c 1
 664 47 l 1
 766 92 l 1
 728 51 667 -10 609 -10 c 0
 572 -10 559 15 569 57 c 2
 581 101 l 1
 540 54 479 -10 418 -10 c 0
 352 -10 324 36 331 107 c 1
 284 48 222 -10 163 -10 c 0
 74 -10 58 55 83 154 c 2
 141 383 l 1
 71 405 l 1
 255 460 l 1
 183 167 l 2
 163 85 164 50 208 50 c 0
 249 50 297 90 333 133 c 0
 334 138 336 145 338 154 c 2
 396 383 l 1
 326 405 l 1
EndSplineSet
EndChar

StartChar: afii10096
Encoding: 1102 1102 9
Width: 697
Flags: MW
HStem: -20 20G<64 160 64 64> -10 32 210 32 428 32
LayerCount: 2
Fore
SplineSet
272 460 m 1xb0
 218 239 l 1
 308 245 l 1
 346 371 446 460 559 460 c 0
 678 460 734 361 700 225 c 0
 667 89 562 -10 443 -10 c 0x70
 327 -10 276 83 300 213 c 1
 210 207 l 1
 160 0 l 1
 64 0 l 1
 158 383 l 1
 89 405 l 1
 272 460 l 1xb0
407 210 m 0
 394 91 408 20 465 22 c 0
 533 25 579 121 594 240 c 0
 609 359 594 429 537 428 c 0
 470 426 422 329 407 210 c 0
EndSplineSet
EndChar

StartChar: afii10091
Encoding: 1097 1097 10
Width: 769
Flags: MW
HStem: -200 21G -10 60<186 192.5 441 448.5> 440 20G
LayerCount: 2
Fore
SplineSet
326 405 m 1
 387 423 449 442 510 460 c 1
 486 362 462 265 438 167 c 0
 418 85 419 50 463 50 c 0
 501 50 553 89 588 133 c 1
 609 216 630 300 651 383 c 1
 628 390 604 398 581 405 c 1
 642 423 704 442 765 460 c 1
 731 322 697 185 664 47 c 1
 698 62 732 77 766 92 c 1
 765 91 l 2
 762 87 760 83 758 80 c 2
 758 79 l 1
 729 44 716 10 714 -13 c 0
 710 -44 725 -68 721 -101 c 0
 715 -153 667 -181 624 -200 c 1
 640 -170 646 -155 649 -125 c 0
 653 -89 644 -75 649 -45 c 0
 654 -15 669 1 691 23 c 1
 674 10 655 1 637 -4 c 0
 623 -8 610 -9 599 -8 c 0
 568 -4 560 20 569 57 c 0
 573 71 577 87 581 101 c 1
 540 54 479 -10 418 -10 c 0
 352 -10 324 36 331 107 c 1
 284 48 222 -10 163 -10 c 0
 74 -10 58 55 83 154 c 0
 102 230 122 307 141 383 c 1
 118 390 94 398 71 405 c 1
 132 423 194 442 255 460 c 1
 231 362 207 265 183 167 c 0
 163 85 164 50 208 50 c 0
 249 50 297 90 333 133 c 1
 348 216 375 300 396 383 c 1
 373 390 349 398 326 405 c 1
EndSplineSet
EndChar

StartChar: afii10083
Encoding: 1089 1089 11
Width: 432
Flags: MW
HStem: -10 21G<148.5 259> 297 163<366.5 372 266.5 397.5> 430 30<275.5 333>
LayerCount: 2
Fore
SplineSet
161 209 m 0xa0
 155 92 215 59 281 65 c 0
 337 71 393 115 427 189 c 1
 391 60 310 -10 208 -10 c 0
 89 -10 34 92 67 225 c 0
 100 358 206 460 327 460 c 0
 417 460 459 410 446 351 c 0
 440 320 412 297 383 297 c 0xc0
 350 297 345 326 350 348 c 0
 364 406 355 430 311 430 c 0
 240 430 169 328 161 209 c 0xa0
EndSplineSet
EndChar

StartChar: afii10070
Encoding: 1077 1077 12
Width: 441
Flags: MW
HStem: -10 21G<144 261> 255 30 430 30<279.5 323>
LayerCount: 2
Fore
SplineSet
327 460 m 0
 416 460 463 420 456 357 c 0
 447 277 352 264 275 259 c 2
 166 252 l 1
 164 238 161 224 160 209 c 0
 153 95 215 59 283 65 c 0
 341 71 393 115 428 189 c 1
 395 70 317 -10 205 -10 c 0
 83 -10 35 95 67 225 c 0
 99 355 205 460 327 460 c 0
174 279 m 1
 258 285 l 2
 323 289 355 317 359 357 c 0
 366 408 338 430 308 430 c 0
 251 430 197 362 174 279 c 1
EndSplineSet
EndChar

StartChar: afii10094
Encoding: 1100 1100 13
Width: 410
Flags: MW
HStem: -10 24<180 197> 281 23<266 294> 440 20G<253 253>
LayerCount: 2
Fore
SplineSet
70 405 m 1
 253 460 l 1
 198 270 l 1
 220 290 249 304 283 304 c 0
 384 304 428 242 407 144 c 0
 386 37 285 -9 197 -10 c 0
 95 -10 47 65 79 176 c 2
 139 383 l 1
 70 405 l 1
265 281 m 0
 222 281 186 228 169 158 c 0
 151 88 150 14 210 14 c 0
 251 14 285 65 302 135 c 0
 320 206 323 281 265 281 c 0
EndSplineSet
EndChar

StartChar: afii10093
Encoding: 1099 1099 14
Width: 654
Flags: MW
HStem: -10 24<180 197> 281 23<266 294> 440 20G<253 253 650 650>
LayerCount: 2
Fore
SplineSet
455 57 m 2
 536 383 l 1
 467 405 l 1
 650 460 l 1
 549 47 l 1
 651 92 l 1
 620 58 554 -10 495 -10 c 0
 461 -10 444 12 455 57 c 2
70 405 m 1
 253 460 l 1
 198 270 l 1
 220 290 249 304 283 304 c 0
 384 304 428 242 407 144 c 0
 386 37 285 -9 197 -10 c 0
 95 -10 47 65 79 176 c 2
 139 383 l 1
 70 405 l 1
265 281 m 0
 222 281 186 228 169 158 c 0
 151 88 150 14 210 14 c 0
 251 14 285 65 302 135 c 0
 320 206 323 281 265 281 c 0
EndSplineSet
EndChar

StartChar: afii10092
Encoding: 1098 1098 15
Width: 455
Flags: MW
HStem: -10 24<225 242> 281 23<311 339> 423 37
LayerCount: 2
Fore
SplineSet
187 423 m 2
 135 423 106 400 54 307 c 1
 89 450 l 1
 163 453 225 457 299 460 c 1
 243 270 l 1
 265 290 294 304 328 304 c 0
 429 304 473 242 453 144 c 0
 431 37 330 -9 242 -10 c 0
 140 -10 91 65 124 176 c 2
 196 423 l 1
 187 423 l 2
310 281 m 0
 267 281 231 228 214 158 c 0
 197 88 195 14 255 14 c 0
 296 14 330 65 348 135 c 0
 365 206 368 281 310 281 c 0
EndSplineSet
EndChar

StartChar: afii10087
Encoding: 1093 1093 16
Width: 506
Flags: MW
HStem: -10 109<82.5 107> 351 109<462.5 483>
LayerCount: 2
Fore
SplineSet
382 341 m 2
 332 272 l 1
 409 40 l 1
 501 93 l 1
 467 47 421 -10 363 -10 c 0
 318 -10 310 28 292 79 c 2
 261 172 l 1
 172 48 l 2
 143 8 125 -10 89 -10 c 0
 57 -10 35 13 38 44 c 0
 41 78 69 99 96 99 c 0
 133 99 152 60 187 108 c 2
 252 199 l 1
 190 382 l 1
 101 405 l 1
 271 460 l 1
 323 299 l 1
 397 402 l 2
 427 443 444 460 481 460 c 0
 512 460 536 440 532 407 c 0
 528 367 496 351 470 351 c 0
 434 351 416 389 382 341 c 2
EndSplineSet
EndChar

StartChar: afii10082
Encoding: 1088 1088 18
Width: 491
Flags: MW
HStem: -200 21G<-63 -63 -63 179> -10 31<239 239> 396 64<361.5 362>
LayerCount: 2
Fore
SplineSet
-63 -200 m 1
 19 -155 l 1
 153 383 l 1
 84 405 l 1
 267 460 l 1
 241 356 l 1
 285 414 334 460 389 460 c 0
 481 460 527 376 491 229 c 0
 458 90 345 -10 239 -10 c 0
 200 -10 178 4 161 25 c 1
 115 -155 l 1
 179 -200 l 1
 -63 -200 l 1
393 237 m 0
 413 339 389 396 335 396 c 0
 306 396 271 372 235 329 c 1
 179 100 l 2
 164 42 198 20 239 21 c 0
 312 24 371 121 393 237 c 0
EndSplineSet
EndChar

StartChar: afii10089
Encoding: 1095 1095 19
Width: 483
Flags: MW
HStem: -10 208<212.5 354> 160 38<212.5 228> 440 20G<233 233 479 479>
LayerCount: 2
Fore
SplineSet
284 57 m 2xa0
 321 204 l 1
 285 177 249 160 207 160 c 0x60
 161 160 67 174 98 301 c 2
 119 383 l 1
 50 405 l 1
 233 460 l 1
 197 313 l 2
 181 245 179 198 246 198 c 0
 281 198 306 211 327 228 c 1
 365 383 l 1
 296 405 l 1
 479 460 l 1
 378 47 l 1
 481 92 l 1
 449 58 384 -10 324 -10 c 0
 290 -10 273 12 284 57 c 2xa0
EndSplineSet
EndChar

StartChar: afii10069
Encoding: 1076 1076 20
Width: 480
Flags: MW
HStem: -10 32<200 270 200 281> 428 32 428 237
LayerCount: 2
Fore
SplineSet
62 235 m 0xa0
 92 377 203 460 298 460 c 0xc0
 348 460 380 431 391 400 c 1
 400 580 300 673 168 650 c 1
 192 658 228 665 262 665 c 0
 421 665 525 495 483 278 c 0
 450 107 352 -10 210 -10 c 0
 91 -10 32 96 62 235 c 0xa0
170 210 m 0
 157 91 168 22 232 22 c 0
 308 22 352 121 367 240 c 0
 383 359 360 427 305 428 c 0
 238 429 186 329 170 210 c 0
EndSplineSet
EndChar

StartChar: afii10097
Encoding: 1103 1103 21
Width: 517
Flags: MW
HStem: -10 240<83 362 342 362 317 388.5> 198 32<333 354 333 333> 418 32<351 363 363 408>
LayerCount: 2
Fore
SplineSet
319 57 m 2xa0
 354 198 l 1
 333 198 l 2x60
 296 196 265 183 231 126 c 2
 185 49 l 2
 163 13 144 -10 104 -10 c 0
 62 -10 36 31 14 80 c 1
 74 38 l 1
 131 131 l 2
 161 179 198 206 237 210 c 1
 176 221 129 261 145 333 c 0
 167 433 271 450 351 450 c 2
 512 450 l 1
 413 47 l 1
 515 92 l 1
 484 58 418 -10 359 -10 c 0
 325 -10 308 12 319 57 c 2xa0
317 230 m 2
 362 230 l 1
 408 418 l 1
 363 418 l 2
 296 418 255 383 241 325 c 0
 230 275 247 230 317 230 c 2
EndSplineSet
EndChar

StartChar: afii10067
Encoding: 1074 1074 22
Width: 432
Flags: MW
HStem: -10 32<166 231 166 238> 428 32<274.5 323.5>
LayerCount: 2
Fore
SplineSet
441 338 m 0
 429 284 372 256 315 248 c 1
 315 245 l 1
 381 244 424 186 407 115 c 0
 384 20 278 -10 198 -10 c 0
 82 -10 23 64 71 238 c 0
 116 404 208 460 311 460 c 0
 374 460 463 435 441 338 c 0
302 115 m 0
 314 164 315 235 231 222 c 1
 165 215 l 1
 158 191 l 2
 133 106 130 22 202 22 c 0
 260 22 291 72 302 115 c 0
341 334 m 0
 355 384 347 428 300 428 c 0
 249 428 206 363 181 274 c 2
 173 246 l 1
 245 255 l 2
 281 262 326 284 341 334 c 0
EndSplineSet
EndChar

StartChar: afii10076
Encoding: 1082 1082 23
Width: 508
Flags: MW
HStem: -20 20G<64 160 64 64> -10 21G<347 387.5> 354 106<441 479>
LayerCount: 2
Fore
SplineSet
220 252 m 1xa0
 226 252 l 2
 266 252 293 265 342 345 c 0
 371 392 410 460 472 460 c 0
 499 460 525 443 520 406 c 0
 517 375 494 354 464 354 c 0
 416 354 426 430 368 325 c 0
 343 279 321 252 287 238 c 1
 373 227 390 151 414 43 c 1
 442 58 470 72 498 87 c 1
 455 24 408 -10 367 -10 c 0x60
 327 -10 316 19 306 70 c 0
 291 145 276 218 228 220 c 2
 214 220 l 1
 196 147 178 73 160 0 c 1
 64 0 l 1
 95 128 126 255 157 383 c 1
 134 390 111 398 88 405 c 1
 149 423 210 442 271 460 c 1
 254 391 237 321 220 252 c 1xa0
EndSplineSet
EndChar

StartChar: afii10072
Encoding: 1078 1078 24
Width: 886
Flags: MW
HStem: -20 20G<380 476 380 380> -10 70<632.5 765> -10 163<107 134.5 103.5 198> 220 32<380 433 372 441 537 588> 297 163<829.5 857> 390 70<199 328.5> 430 20G<489 585 585 585>
LayerCount: 2
Fore
SplineSet
89 268 m 1x34
 124 383 188 460 282 460 c 0x58
 375 460 403 371 380 252 c 1
 441 252 l 1
 489 450 l 1
 585 450 l 1x52
 537 252 l 1
 597 252 l 1
 634 371 719 460 817 460 c 0
 897 460 922 410 909 351 c 0
 902 320 875 297 846 297 c 0x58
 813 297 808 326 812 348 c 0
 826 406 825 434 794 430 c 0
 748 424 694 328 675 209 c 0
 658 92 698 59 739 60 c 0
 791 60 832 109 874 182 c 1
 840 67 776 -10 682 -10 c 0x52
 583 -10 558 89 588 220 c 1
 529 220 l 1
 476 0 l 1
 380 0 l 1x98
 433 220 l 1
 372 220 l 1
 339 89 249 -10 147 -10 c 0
 67 -10 42 39 55 99 c 0
 62 130 89 153 118 153 c 0
 151 153 156 124 151 102 c 0
 137 44 139 16 169 20 c 0
 216 26 270 122 288 241 c 0
 306 358 266 391 225 390 c 0
 173 390 132 341 89 268 c 1x34
EndSplineSet
EndChar

StartChar: afii10085
Encoding: 1091 1091 25
Width: 444
Flags: MW
HStem: -211 112<15 44.5 13 51.5> 440 20G<214 214 393.5 433.5>
LayerCount: 2
Fore
SplineSet
128 -96 m 2
 208 23 l 1
 125 385 l 1
 99 391 72 398 46 405 c 1
 101 423 158 442 214 460 c 1
 282 130 l 1
 319 185 354 239 379 294 c 0
 407 355 347 357 350 406 c 0
 352 438 378 460 409 460 c 0
 458 460 485 409 444 332 c 0
 396 245 338 157 280 70 c 2
 166 -101 l 2
 107 -190 72 -211 31 -211 c 0
 -1 -211 -28 -191 -26 -152 c 0
 -24 -121 -2 -99 28 -99 c 0
 61 -99 59 -129 84 -130 c 0
 95 -131 108 -126 128 -96 c 2
EndSplineSet
EndChar

StartChar: afii10078
Encoding: 1084 1084 26
Width: 694
Flags: MW
HStem: -15 21G<321 321> -10 105<73 89 73 124> 430 20G<598 688 688 688> 440 20G<353 353>
LayerCount: 2
Fore
SplineSet
495 57 m 2x60
 566 346 l 1
 321 -15 l 1xa0
 301 104 291 221 271 339 c 1
 242 223 l 2
 224 150 180 -10 68 -10 c 0
 41 -10 14 5 18 44 c 0
 23 81 51 96 73 95 c 0
 105 95 96 61 123 63 c 0
 161 67 192 184 207 243 c 2
 240 376 l 1
 169 412 l 1
 353 460 l 1x50
 390 149 l 1
 598 450 l 1
 688 450 l 1
 589 47 l 1
 691 92 l 1
 660 58 594 -10 535 -10 c 0
 501 -10 484 12 495 57 c 2x60
EndSplineSet
EndChar

StartChar: afii10065
Encoding: 1072 1072 27
Width: 499
Flags: MW
HStem: -10 62<116 211> 431 29<302 351 283 355>
LayerCount: 2
Fore
SplineSet
315 106 m 1
 271 41 215 -10 160 -10 c 0
 72 -10 34 78 72 216 c 0
 117 376 233 460 333 460 c 0
 369 460 396 443 406 417 c 1
 498 460 l 1
 464 322 430 185 397 47 c 1
 499 92 l 1
 461 51 400 -10 343 -10 c 0
 306 -10 294 15 303 57 c 0
 305 65 313 97 315 106 c 1
170 206 m 0
 147 102 165 52 211 52 c 0
 239 53 285 83 321 133 c 1
 378 367 l 2
 384 396 377 431 333 431 c 0
 271 431 200 342 170 206 c 0
EndSplineSet
EndChar

StartChar: afii10077
Encoding: 1083 1083 28
Width: 518
Flags: MW
HStem: -10 73 -10 105<68 84 68 117> 418 32<284 408 284 284>
LayerCount: 2
Fore
SplineSet
319 57 m 2xa0
 408 418 l 1
 284 418 l 1
 235 223 l 2
 217 150 173 -10 61 -10 c 0
 34 -10 7 5 11 43 c 0
 16 82 45 96 68 95 c 0x60
 100 95 90 61 116 63 c 0
 155 65 185 184 200 243 c 2
 237 393 l 1
 172 450 l 1
 512 450 l 1
 414 47 l 1
 516 92 l 1
 485 58 419 -10 359 -10 c 0
 326 -10 309 12 319 57 c 2xa0
EndSplineSet
EndChar

StartChar: afii10066
Encoding: 1073 1073 29
Width: 473
Flags: MW
HStem: -10 31<205 271.5 205 276.5> 408 33 671 20G<578 578>
LayerCount: 2
Fore
SplineSet
474 218 m 0
 443 85 341 -10 212 -10 c 0
 80 -10 40 118 78 278 c 0
 120 448 214 599 356 620 c 2
 508 642 l 1
 578 691 l 1
 564 629 537 548 453 537 c 2
 318 520 l 2
 280 516 242 502 215 476 c 0
 179 440 160 391 137 330 c 1
 194 408 257 440 323 441 c 0
 445 442 503 352 474 218 c 0
173 205 m 0
 160 86 175 21 235 21 c 0
 308 21 352 116 365 235 c 0
 380 354 360 408 301 408 c 0
 228 408 183 302 173 205 c 0
EndSplineSet
EndChar

StartChar: afii10075
Encoding: 1081 1081 30
Width: 514
Flags: MW
HStem: -10 58<114 227.5> 509 21<334.5 364 334.5 373.5> 509 139<279.5 373.5>
LayerCount: 2
Fore
SplineSet
299 648 m 0xa0
 325 648 339 633 333 608 c 0
 327 580 302 575 304 557 c 0
 305 540 320 530 349 530 c 0xc0
 379 530 398 540 407 557 c 0
 416 575 396 580 402 608 c 0
 408 633 432 648 458 648 c 0
 497 648 504 619 498 596 c 0
 482 530 404 509 343 509 c 0
 282 509 218 530 233 596 c 0
 239 620 260 648 299 648 c 0xa0
72 405 m 1
 255 460 l 1
 183 167 l 2
 163 85 162 48 209 48 c 0
 246 48 298 89 333 133 c 1
 396 383 l 1
 373 390 350 398 327 405 c 1
 388 423 449 442 510 460 c 1
 409 47 l 1
 512 92 l 1
 473 51 413 -10 355 -10 c 0
 318 -10 305 15 315 57 c 2
 326 101 l 1
 285 54 211 -10 157 -10 c 0
 71 -10 58 55 83 154 c 2
 141 383 l 1
 72 405 l 1
EndSplineSet
EndChar

StartChar: afii10095
Encoding: 1101 1101 31
Width: 433
Flags: MW
HStem: -10 21G<132.5 247> 228 32<175 351 183 341> 429 31<286.5 319>
LayerCount: 2
Fore
SplineSet
175 228 m 1
 183 260 l 1
 351 260 l 1
 376 358 351 429 287 429 c 0
 226 429 169 373 114 281 c 1
 158 460 l 1
 202 424 l 1
 230 444 265 460 308 460 c 0
 427 460 467 358 435 225 c 0
 404 95 314 -10 180 -10 c 0
 85 -10 39 67 59 182 c 1
 65 106 102 69 144 62 c 0
 216 48 294 89 334 209 c 2
 341 228 l 1
 175 228 l 1
EndSplineSet
EndChar

StartChar: afii10086
Encoding: 1092 1092 32
Width: 688
Flags: MW
HStem: -200 225<156 233.5 181.5 233.5 181.5 400> -10 35<181.5 202 450.5 482> 424 36<286 314.5 245.5 333.5 563 574> 640 20G<538 538>
LayerCount: 2
Fore
SplineSet
156 -200 m 1xb0
 240 -155 l 1
 292 49 l 1
 264 9 220 -10 184 -10 c 0
 85 -10 41 79 77 225 c 0
 113 371 198 460 293 460 c 0
 336 460 366 434 378 401 c 1
 419 571 l 1
 354 605 l 1
 538 660 l 1
 474 401 l 1
 501 441 545 460 581 460 c 0
 680 460 724 371 688 225 c 0
 652 79 567 -10 472 -10 c 0x70
 429 -10 399 16 388 49 c 1
 336 -155 l 1
 400 -200 l 1
 156 -200 l 1xb0
543 424 m 0xb0
 509 424 481 392 467 370 c 1
 395 79 l 1
 396 50 416 25 450 25 c 0
 514 25 560 132 583 225 c 0
 606 318 605 424 543 424 c 0xb0
317 424 m 0
 255 424 204 318 181 225 c 0
 158 132 146 25 217 25 c 0
 250 25 283 57 299 79 c 1
 371 370 l 1
 367 399 350 424 317 424 c 0
EndSplineSet
EndChar

StartChar: afii10073
Encoding: 1079 1079 33
Width: 402
Flags: MW
HStem: -10 48<136 192.5 136 216> -10 249<135 287> 220 32<173 195 195 206 167 195> 429 31<268 285>
LayerCount: 2
Fore
SplineSet
173 252 m 1xb0
 195 252 l 2xb0
 252 252 295 285 309 335 c 0
 323 388 310 429 260 429 c 0
 202 429 151 373 96 281 c 1
 140 460 l 1
 184 424 l 1
 202 438 243 460 293 460 c 0
 374 460 425 421 408 344 c 0
 396 285 340 250 287 242 c 1
 287 239 l 1x50
 350 236 386 182 371 116 c 0
 349 21 256 -10 176 -10 c 0
 94 -10 31 44 47 138 c 1
 57 69 105 38 167 38 c 0
 218 38 263 68 275 126 c 0
 286 176 263 220 206 220 c 2
 167 220 l 1
 173 252 l 1xb0
EndSplineSet
EndChar

StartChar: afii10031
Encoding: 1053 1053 34
Width: 734
Flags: MW
HStem: 0 21G<27 27 27 307 427 427 427 707> 320 35<309 589 301 597> 630 20G<185 465 465 465 585 865 865 865>
LayerCount: 2
Fore
SplineSet
27 0 m 1
 122 51 l 1
 258 599 l 1
 185 650 l 1
 465 650 l 1
 370 599 l 1
 309 355 l 1
 597 355 l 1
 658 599 l 1
 585 650 l 1
 865 650 l 1
 770 599 l 1
 634 51 l 1
 707 0 l 1
 427 0 l 1
 522 51 l 1
 589 320 l 1
 301 320 l 1
 234 51 l 1
 307 0 l 1
 27 0 l 1
EndSplineSet
EndChar

StartChar: afii10033
Encoding: 1055 1055 35
Width: 724
Flags: MW
HStem: 0 21G<27 27 27 307 417 417 417 697> 615 35<373 654 373 373>
LayerCount: 2
Fore
SplineSet
27 0 m 1
 122 51 l 1
 258 599 l 1
 185 650 l 1
 855 650 l 1
 760 599 l 1
 624 51 l 1
 697 0 l 1
 417 0 l 1
 515 51 l 1
 654 615 l 1
 373 615 l 1
 234 51 l 1
 307 0 l 1
 27 0 l 1
EndSplineSet
EndChar

StartChar: i
Encoding: 105 105 36
Width: 281
Flags: MW
HStem: -10 21G<101 147.5> 540 120<251 254>
LayerCount: 2
Fore
SplineSet
193 599 m 0
 200 633 234 660 268 660 c 0
 302 660 320 633 313 599 c 0
 304 566 271 540 237 540 c 0
 204 540 184 566 193 599 c 0
78 57 m 2
 159 383 l 1
 89 405 l 1
 273 460 l 1
 172 47 l 1
 274 92 l 1
 243 58 177 -10 118 -10 c 0
 84 -10 67 12 78 57 c 2
EndSplineSet
EndChar

StartChar: period
Encoding: 46 46 37
Width: 214
Flags: MW
HStem: -7 120<118 121>
LayerCount: 2
Fore
SplineSet
60 53 m 0
 68 87 101 113 135 113 c 0
 169 113 188 87 180 53 c 0
 171 20 138 -7 104 -7 c 0
 71 -7 51 20 60 53 c 0
EndSplineSet
EndChar

StartChar: comma
Encoding: 44 44 38
Width: 241
Flags: MW
HStem: -158 21G -7 120<88.5 162>
LayerCount: 2
Fore
SplineSet
63 52 m 0
 71 86 102 113 141 113 c 0
 183 113 213 88 194 13 c 0
 177 -54 111 -125 23 -158 c 1
 98 -121 141 -47 147 4 c 1
 134 -3 122 -7 106 -7 c 0
 71 -7 54 19 63 52 c 0
EndSplineSet
EndChar

StartChar: colon
Encoding: 58 58 39
Width: 220
Flags: MW
HStem: 28 120<130 133> 301 120<197.5 201>
LayerCount: 2
Fore
SplineSet
72 88 m 0
 79 122 113 148 147 148 c 0
 181 148 199 122 192 88 c 0
 183 55 150 28 116 28 c 0
 83 28 63 55 72 88 c 0
139 361 m 0
 148 395 181 421 214 421 c 0
 248 421 268 395 259 361 c 0
 251 328 218 301 184 301 c 0
 151 301 131 328 139 361 c 0
EndSplineSet
EndChar

StartChar: semicolon
Encoding: 59 59 40
Width: 242
Flags: MW
HStem: -158 21G -7 120<88.5 162> 301 120<197.5 201>
LayerCount: 2
Fore
SplineSet
63 52 m 0
 71 86 102 113 141 113 c 0
 183 113 213 88 194 13 c 0
 177 -54 111 -125 23 -158 c 1
 98 -121 141 -47 147 4 c 1
 134 -3 122 -7 106 -7 c 0
 71 -7 54 19 63 52 c 0
139 361 m 0
 148 395 181 421 214 421 c 0
 248 421 268 395 259 361 c 0
 251 328 218 301 184 301 c 0
 151 301 131 328 139 361 c 0
EndSplineSet
EndChar

StartChar: endash
Encoding: 8211 8211 41
Width: 490
Flags: MW
HStem: 220 32<84 522 92 514>
LayerCount: 2
Fore
SplineSet
84 220 m 1
 92 252 l 1
 522 252 l 1
 514 220 l 1
 84 220 l 1
EndSplineSet
EndChar

StartChar: emdash
Encoding: 8212 8212 42
Width: 591
Flags: MW
HStem: 220 32<54 653 62 645>
LayerCount: 2
Fore
SplineSet
54 220 m 1
 62 252 l 1
 653 252 l 1
 645 220 l 1
 54 220 l 1
EndSplineSet
EndChar

StartChar: periodcentered
Encoding: 183 183 43
Width: 214
Flags: MW
HStem: 275 120<188.5 192>
LayerCount: 2
Fore
SplineSet
130 335 m 0
 139 369 172 395 205 395 c 0
 239 395 259 369 250 335 c 0
 242 302 209 275 175 275 c 0
 142 275 122 302 130 335 c 0
EndSplineSet
EndChar

StartChar: hyphen
Encoding: 45 45 44
Width: 369
Flags: MW
HStem: 220 32<94 391 102 383>
LayerCount: 2
Fore
SplineSet
94 220 m 1
 102 252 l 1
 391 252 l 1
 383 220 l 1
 94 220 l 1
EndSplineSet
EndChar

StartChar: afii10026
Encoding: 1048 1048 45
Width: 736
Flags: MW
HStem: 0 21G<27 27 27 307 429 429 429 709> 630 20G<185 465 465 465 587 867 867 867>
LayerCount: 2
Fore
SplineSet
27 0 m 1
 122 51 l 1
 258 599 l 1
 185 650 l 1
 465 650 l 1
 370 599 l 1
 254 130 l 1
 655 580 l 1
 660 599 l 1
 587 650 l 1
 867 650 l 1
 772 599 l 1
 636 51 l 1
 709 0 l 1
 429 0 l 1
 524 51 l 1
 638 513 l 1
 237 63 l 1
 234 51 l 1
 307 0 l 1
 27 0 l 1
EndSplineSet
EndChar

StartChar: afii10042
Encoding: 1064 1064 46
Width: 1017
Flags: MW
HStem: 0 35<231 460 572 802> 630 20G<185 465 465 465 526 806 806 806 868 1148 1148 1148>
LayerCount: 2
Fore
SplineSet
1148 650 m 1
 1053 599 l 1
 917 51 l 1
 990 0 l 1
 27 0 l 1
 122 51 l 1
 258 599 l 1
 185 650 l 1
 465 650 l 1
 370 599 l 1
 231 35 l 1
 460 35 l 1
 599 599 l 1
 526 650 l 1
 806 650 l 1
 711 599 l 1
 572 35 l 1
 802 35 l 1
 941 599 l 1
 868 650 l 1
 1148 650 l 1
EndSplineSet
EndChar

StartChar: afii10040
Encoding: 1062 1062 47
Width: 730
Flags: MW
HStem: -200 21G<659 659> 0 35<231 515 231 591> 630 20G<185 465 465 465 581 861 861 861>
LayerCount: 2
Fore
SplineSet
27 0 m 1
 122 51 l 1
 258 599 l 1
 185 650 l 1
 465 650 l 1
 370 599 l 1
 231 35 l 1
 515 35 l 1
 654 599 l 1
 581 650 l 1
 861 650 l 1
 766 599 l 1
 627 35 l 1
 717 35 l 1
 659 -200 l 1
 591 0 l 1
 27 0 l 1
EndSplineSet
EndChar

StartChar: afii10043
Encoding: 1065 1065 48
Width: 1017
Flags: MW
HStem: -200 21G<946 946> 0 35<231 460 572 802> 630 20G<185 465 465 465 526 806 806 806 868 1148 1148 1148>
LayerCount: 2
Fore
SplineSet
1004 35 m 1
 946 -200 l 1
 878 0 l 1
 27 0 l 1
 122 51 l 1
 258 599 l 1
 185 650 l 1
 465 650 l 1
 370 599 l 1
 231 35 l 1
 460 35 l 1
 599 599 l 1
 526 650 l 1
 806 650 l 1
 711 599 l 1
 572 35 l 1
 802 35 l 1
 941 599 l 1
 868 650 l 1
 1148 650 l 1
 1053 599 l 1
 914 35 l 1
 1004 35 l 1
EndSplineSet
EndChar

StartChar: afii10020
Encoding: 1043 1043 49
Width: 574
Flags: MW
HStem: 0 21G<27 327 27 27> 615 35<373 584 373 373>
LayerCount: 2
Fore
SplineSet
702 650 m 1
 652 444 l 1
 584 615 l 1
 373 615 l 1
 236 61 l 1
 327 0 l 1
 27 0 l 1
 122 51 l 1
 258 599 l 1
 185 650 l 1
 702 650 l 1
EndSplineSet
EndChar

StartChar: afii10036
Encoding: 1058 1058 50
Width: 644
Flags: MW
HStem: 0 21G<162 482 162 162> 615 35<290 416 290 290 528 654 528 528>
LayerCount: 2
Fore
SplineSet
772 650 m 1
 718 430 l 1
 654 615 l 1
 528 615 l 1
 391 61 l 1
 482 0 l 1
 162 0 l 1
 279 61 l 1
 416 615 l 1
 290 615 l 1
 134 430 l 1
 188 650 l 1
 772 650 l 1
EndSplineSet
EndChar

StartChar: afii10041
Encoding: 1063 1063 51
Width: 694
Flags: MW
HStem: 0 21G<377 667 377 377> 253 51<368 408> 630 20G<175 455 455 455 545 825 825 825>
LayerCount: 2
Fore
SplineSet
455 650 m 1
 360 599 l 1
 333 489 l 2
 297 349 317 304 419 304 c 0
 469 304 508 319 554 345 c 1
 618 599 l 1
 545 650 l 1
 825 650 l 1
 730 599 l 1
 594 51 l 1
 667 0 l 1
 377 0 l 1
 484 56 l 1
 548 315 l 1
 513 289 449 253 367 253 c 0
 246 253 173 301 215 472 c 2
 248 599 l 1
 175 650 l 1
 455 650 l 1
EndSplineSet
EndChar

StartChar: afii10022
Encoding: 1045 1045 52
Width: 596
Flags: MW
HStem: 0 35<231 458 231 560> 320 35<309 416 301 423> 615 35<373 591 373 373>
LayerCount: 2
Fore
SplineSet
27 0 m 1
 122 51 l 1
 258 599 l 1
 185 650 l 1
 703 650 l 1
 649 430 l 1
 591 615 l 1
 373 615 l 1
 309 355 l 1
 423 355 l 1
 524 458 l 1
 464 218 l 1
 416 320 l 1
 301 320 l 1
 231 35 l 1
 458 35 l 1
 614 220 l 1
 560 0 l 1
 27 0 l 1
EndSplineSet
EndChar

StartChar: I
Encoding: 73 73 53
Width: 334
Flags: MW
HStem: 0 21G<27 307 27 27> 630 20G<185 465 465 465>
LayerCount: 2
Fore
SplineSet
465 650 m 1
 370 599 l 1
 234 51 l 1
 307 0 l 1
 27 0 l 1
 122 51 l 1
 258 599 l 1
 185 650 l 1
 465 650 l 1
EndSplineSet
EndChar

StartChar: T
Encoding: 84 84 54
Width: 637
Flags: MW
HStem: 0 21G<162 482 162 162> 615 35<290 416 290 290 528 654 528 528>
LayerCount: 2
Fore
SplineSet
772 650 m 1
 718 430 l 1
 654 615 l 1
 528 615 l 1
 391 61 l 1
 482 0 l 1
 162 0 l 1
 279 61 l 1
 416 615 l 1
 290 615 l 1
 134 430 l 1
 188 650 l 1
 772 650 l 1
EndSplineSet
EndChar

StartChar: E
Encoding: 69 69 55
Width: 596
Flags: MW
HStem: 0 35<231 458 231 560> 320 35<309 416 301 423> 615 35<373 591 373 373>
LayerCount: 2
Fore
SplineSet
27 0 m 1
 122 51 l 1
 258 599 l 1
 185 650 l 1
 703 650 l 1
 649 430 l 1
 591 615 l 1
 373 615 l 1
 309 355 l 1
 423 355 l 1
 524 458 l 1
 464 218 l 1
 416 320 l 1
 301 320 l 1
 231 35 l 1
 458 35 l 1
 614 220 l 1
 560 0 l 1
 27 0 l 1
EndSplineSet
EndChar

StartChar: H
Encoding: 72 72 56
Width: 734
Flags: MW
HStem: 0 21G<27 27 27 307 427 427 427 707> 320 35<309 589 301 597> 630 20G<185 465 465 465 585 865 865 865>
LayerCount: 2
Fore
SplineSet
27 0 m 1
 122 51 l 1
 258 599 l 1
 185 650 l 1
 465 650 l 1
 370 599 l 1
 309 355 l 1
 597 355 l 1
 658 599 l 1
 585 650 l 1
 865 650 l 1
 770 599 l 1
 634 51 l 1
 707 0 l 1
 427 0 l 1
 522 51 l 1
 589 320 l 1
 301 320 l 1
 234 51 l 1
 307 0 l 1
 27 0 l 1
EndSplineSet
EndChar

StartChar: afii10032
Encoding: 1054 1054 57
Width: 669
Flags: MW
HStem: -10 32<279.5 398.5 279.5 419> 633 32<429.5 548.5>
LayerCount: 2
Fore
SplineSet
110 327 m 0
 157 517 319 665 496 665 c 0
 674 665 766 517 719 327 c 0
 672 137 508 -10 330 -10 c 0
 153 -10 63 137 110 327 c 0
240 327 m 0
 196 148 220 22 339 22 c 0
 458 22 546 148 590 327 c 0
 634 506 608 633 489 633 c 0
 370 633 284 506 240 327 c 0
EndSplineSet
EndChar

StartChar: afii10048
Encoding: 1070 1070 58
Width: 986
Flags: MW
HStem: -20 20G<27 27 27 307> -10 32<603 719 603 741> 320 35<309 435 301 444> 633 32<753 869>
LayerCount: 2
Fore
SplineSet
27 0 m 1xb0
 122 51 l 1
 258 599 l 1
 185 650 l 1
 465 650 l 1
 370 599 l 1
 309 355 l 1
 444 355 l 1
 498 531 649 665 818 665 c 0
 996 665 1083 517 1036 327 c 0
 989 137 830 -10 652 -10 c 0x70
 477 -10 391 134 435 320 c 1
 301 320 l 1
 234 51 l 1
 307 0 l 1
 27 0 l 1xb0
567 327 m 0xb0
 523 148 545 22 661 22 c 0x70
 777 22 863 148 907 327 c 0
 951 506 927 633 811 633 c 0
 695 633 611 506 567 327 c 0xb0
EndSplineSet
EndChar

StartChar: afii10034
Encoding: 1056 1056 59
Width: 602
Flags: MW
HStem: 0 21G<27 27 27 307> 260 35<295 383 383 398 285 383> 615 35<373 373 373 461>
LayerCount: 2
Fore
SplineSet
27 0 m 1
 122 51 l 1
 258 599 l 1
 185 650 l 1
 494 650 l 2
 630 650 717 585 685 455 c 0
 653 325 534 260 398 260 c 2
 285 260 l 1
 234 51 l 1
 307 0 l 1
 27 0 l 1
373 615 m 1
 295 295 l 1
 383 295 l 2
 456 295 531 345 557 455 c 0
 585 565 534 615 461 615 c 2
 373 615 l 1
EndSplineSet
EndChar

StartChar: afii10046
Encoding: 1068 1068 60
Width: 602
Flags: MW
HStem: 0 35<231 319 319 336> 355 35<317 397 309 430> 630 20G<185 465 465 465>
LayerCount: 2
Fore
SplineSet
258 599 m 1
 185 650 l 1
 465 650 l 1
 370 599 l 1
 317 390 l 1
 430 390 l 2
 566 390 653 325 621 195 c 0
 589 65 472 0 336 0 c 2
 27 0 l 1
 122 51 l 1
 258 599 l 1
231 35 m 1
 319 35 l 2
 392 35 467 85 493 195 c 0
 521 305 470 355 397 355 c 2
 309 355 l 1
 231 35 l 1
EndSplineSet
EndChar

StartChar: afii10045
Encoding: 1067 1067 61
Width: 901
Flags: MW
HStem: 0 35<231 308 231 325 231 393> 355 35<317 386 386 419 317 422.5> 630 20G<185 185 185 465 752 1032 1032 1032>
LayerCount: 2
Fore
SplineSet
594 0 m 1
 689 51 l 1
 824 599 l 1
 752 650 l 1
 1032 650 l 1
 936 599 l 1
 801 51 l 1
 874 0 l 1
 594 0 l 1
185 650 m 1
 258 599 l 1
 122 51 l 1
 27 0 l 1
 325 0 l 2
 461 0 578 65 610 195 c 0
 642 325 555 390 419 390 c 2
 317 390 l 1
 370 599 l 1
 465 650 l 1
 185 650 l 1
308 35 m 2
 231 35 l 1
 309 355 l 1
 386 355 l 2
 459 355 510 305 482 195 c 0
 456 85 381 35 308 35 c 2
EndSplineSet
EndChar

StartChar: afii10038
Encoding: 1060 1060 62
Width: 741
Flags: MW
HStem: 0 140<330 348 460 479 479 510 230 348> 110 30<330 340 460 479 479 496> 520 30<405 422 422 440 560 571> 520 130<388 422 422 440 552 552 552 571>
LayerCount: 2
Fore
SplineSet
668 650 m 1x90
 573 599 l 1
 560 550 l 1
 604 550 l 2
 748 550 831 470 797 330 c 0
 763 190 640 110 496 110 c 2
 452 110 l 1x60
 438 51 l 1
 510 0 l 1
 230 0 l 1xa0
 326 51 l 1
 340 110 l 1
 297 110 l 2
 153 110 70 190 104 330 c 0
 138 470 261 550 405 550 c 2
 448 550 l 1x60
 461 599 l 1
 388 650 l 1
 668 650 l 1x90
552 520 m 1x90
 460 140 l 1
 479 140 l 2
 563 140 642 200 674 330 c 0
 706 460 655 520 571 520 c 2
 552 520 l 1x90
330 140 m 2
 348 140 l 1
 440 520 l 1
 422 520 l 2
 338 520 259 460 227 330 c 0
 195 200 246 140 330 140 c 2
EndSplineSet
EndChar

StartChar: afii10018
Encoding: 1041 1041 63
Width: 602
Flags: MW
HStem: 0 35<231 319 319 336> 355 35<317 397 309 430> 615 35<373 558 373 373>
LayerCount: 2
Fore
SplineSet
677 650 m 1
 636 450 l 1
 558 615 l 1
 373 615 l 1
 317 390 l 1
 430 390 l 2
 566 390 653 325 621 195 c 0
 589 65 472 0 336 0 c 2
 27 0 l 1
 122 51 l 1
 258 599 l 1
 185 650 l 1
 677 650 l 1
397 355 m 2
 309 355 l 1
 231 35 l 1
 319 35 l 2
 392 35 467 85 493 195 c 0
 521 305 470 355 397 355 c 2
EndSplineSet
EndChar

StartChar: afii10019
Encoding: 1042 1042 64
Width: 608
Flags: MW
HStem: 0 35<231 325 325 336> 320 35<301 377 309 377 309 385> 615 35<373 373 373 437>
LayerCount: 2
Fore
SplineSet
258 599 m 1
 185 650 l 1
 464 650 l 2
 598 650 700 618 668 488 c 0
 648 407 574 351 488 340 c 1
 583 329 647 272 624 181 c 0
 592 50 480 0 336 0 c 2
 27 0 l 1
 122 51 l 1
 258 599 l 1
301 320 m 1
 231 35 l 1
 325 35 l 2
 395 35 468 70 496 180 c 0
 522 290 449 320 385 320 c 2
 301 320 l 1
373 615 m 1
 309 355 l 1
 377 355 l 2
 444 357 521 384 547 489 c 0
 573 599 507 615 437 615 c 2
 373 615 l 1
EndSplineSet
EndChar

StartChar: afii10044
Encoding: 1066 1066 65
Width: 691
Flags: MW
HStem: 0 35<327 408 408 425> 355 35<413 486 405 519> 615 35<284.5 319 319 357>
LayerCount: 2
Fore
SplineSet
130 424 m 1
 185 650 l 1
 561 650 l 1
 466 599 l 1
 413 390 l 1
 519 390 l 2
 655 390 742 325 710 195 c 0
 678 65 561 0 425 0 c 2
 123 0 l 1
 218 51 l 1
 357 615 l 1
 319 615 l 2
 250 615 187 551 130 424 c 1
327 35 m 1
 408 35 l 2
 481 35 556 85 582 195 c 0
 610 305 559 355 486 355 c 2
 405 355 l 1
 327 35 l 1
EndSplineSet
EndChar

StartChar: v
Encoding: 118 118 66
Width: 449
Flags: MW
HStem: -15 21G<203 203> 440 20G<208 208 393.5 435>
LayerCount: 2
Fore
SplineSet
203 -15 m 1
 119 385 l 1
 40 405 l 1
 208 460 l 1
 273 117 l 1
 320 174 368 235 389 293 c 0
 411 352 350 357 351 406 c 0
 352 437 378 460 409 460 c 0
 461 460 480 404 449 330 c 0
 395 206 307 98 203 -15 c 1
EndSplineSet
EndChar

StartChar: afii10017
Encoding: 1040 1040 67
Width: 663
Flags: MW
HStem: 0 210<-10 450 402 402 402 450 234 663> 175 35<234 450 234 458 212 450> 645 20G<491 491>
LayerCount: 2
Fore
SplineSet
-10 0 m 1xa0
 95 61 l 1
 491 665 l 1
 596 50 l 1
 663 0 l 1
 402 0 l 1xa0
 479 45 l 1
 458 175 l 1
 212 175 l 1x60
 132 55 l 1
 197 0 l 1
 -10 0 l 1xa0
405 471 m 1
 234 210 l 1
 450 210 l 1
 405 471 l 1
EndSplineSet
EndChar

StartChar: A
Encoding: 65 65 68
Width: 663
Flags: MW
HStem: 0 210<-10 450 402 402 402 450 234 663> 175 35<234 450 234 458 212 450> 645 20G<491 491>
LayerCount: 2
Fore
SplineSet
-10 0 m 1xa0
 95 61 l 1
 491 665 l 1
 596 50 l 1
 663 0 l 1
 402 0 l 1xa0
 479 45 l 1
 458 175 l 1
 212 175 l 1x60
 132 55 l 1
 197 0 l 1
 -10 0 l 1xa0
405 471 m 1
 234 210 l 1
 450 210 l 1
 405 471 l 1
EndSplineSet
EndChar

StartChar: B
Encoding: 66 66 69
Width: 608
Flags: MW
HStem: 0 35<231 325 325 336> 320 35<301 377 309 377 309 385> 615 35<373 373 373 437>
LayerCount: 2
Fore
SplineSet
258 599 m 1
 185 650 l 1
 464 650 l 2
 598 650 700 618 668 488 c 0
 648 407 574 351 488 340 c 1
 583 329 647 272 624 181 c 0
 592 50 480 0 336 0 c 2
 27 0 l 1
 122 51 l 1
 258 599 l 1
301 320 m 1
 231 35 l 1
 325 35 l 2
 395 35 468 70 496 180 c 0
 522 290 449 320 385 320 c 2
 301 320 l 1
373 615 m 1
 309 355 l 1
 377 355 l 2
 444 357 521 384 547 489 c 0
 573 599 507 615 437 615 c 2
 373 615 l 1
EndSplineSet
EndChar

StartChar: V
Encoding: 86 86 70
Width: 679
Flags: MW
HStem: -15 21G<350 350> 630 20G<158 428 428 428 640 847 847 847>
LayerCount: 2
Fore
SplineSet
847 650 m 1
 742 588 l 1
 350 -15 l 1
 235 594 l 1
 158 650 l 1
 428 650 l 1
 351 604 l 1
 432 179 l 1
 703 594 l 1
 640 650 l 1
 847 650 l 1
EndSplineSet
EndChar

StartChar: O
Encoding: 79 79 71
Width: 669
Flags: MW
HStem: -10 32<279.5 398.5 279.5 419> 633 32<429.5 548.5>
LayerCount: 2
Fore
SplineSet
110 327 m 0
 157 517 319 665 496 665 c 0
 674 665 766 517 719 327 c 0
 672 137 508 -10 330 -10 c 0
 153 -10 63 137 110 327 c 0
240 327 m 0
 196 148 220 22 339 22 c 0
 458 22 546 148 590 327 c 0
 634 506 608 633 489 633 c 0
 370 633 284 506 240 327 c 0
EndSplineSet
EndChar

StartChar: L
Encoding: 76 76 72
Width: 603
Flags: MW
HStem: 0 35<231 468 231 570> 630 20G<185 485 485 485>
LayerCount: 2
Fore
SplineSet
624 220 m 1
 570 0 l 1
 27 0 l 1
 122 51 l 1
 258 599 l 1
 185 650 l 1
 485 650 l 1
 366 589 l 1
 231 35 l 1
 468 35 l 1
 624 220 l 1
EndSplineSet
EndChar

StartChar: P
Encoding: 80 80 73
Width: 602
Flags: MW
HStem: 0 21G<27 27 27 307> 260 35<295 383 383 398 285 383> 615 35<373 373 373 461>
LayerCount: 2
Fore
SplineSet
27 0 m 1
 122 51 l 1
 258 599 l 1
 185 650 l 1
 494 650 l 2
 630 650 717 585 685 455 c 0
 653 325 534 260 398 260 c 2
 285 260 l 1
 234 51 l 1
 307 0 l 1
 27 0 l 1
373 615 m 1
 295 295 l 1
 383 295 l 2
 456 295 531 345 557 455 c 0
 585 565 534 615 461 615 c 2
 373 615 l 1
EndSplineSet
EndChar

StartChar: M
Encoding: 77 77 74
Width: 864
Flags: MW
HStem: -20 20G<27 27 27 250 557 557 557 837> -15 21G<395 395> 630 20G<185 389 389 389 785 995 995 995>
LayerCount: 2
Fore
SplineSet
27 0 m 1xa0
 128 63 l 1
 260 596 l 1
 185 650 l 1
 389 650 l 1
 474 179 l 1
 785 650 l 1
 995 650 l 1
 900 599 l 1
 764 51 l 1
 837 0 l 1
 557 0 l 1xa0
 652 51 l 1
 779 570 l 1
 395 -15 l 1x60
 295 543 l 1
 177 63 l 1
 250 0 l 1
 27 0 l 1xa0
EndSplineSet
EndChar

StartChar: afii10030
Encoding: 1052 1052 75
Width: 864
Flags: MW
HStem: -20 20G<24 24 24 253 557 557 557 837> -15 21G<395 395> 630 20G<185 389 389 389 785 995 995 995>
LayerCount: 2
Fore
SplineSet
24 0 m 1xa0
 128 60 l 1
 260 596 l 1
 185 650 l 1
 389 650 l 1
 474 179 l 1
 785 650 l 1
 995 650 l 1
 900 599 l 1
 764 51 l 1
 837 0 l 1
 557 0 l 1xa0
 652 51 l 1
 779 570 l 1
 395 -15 l 1x60
 295 543 l 1
 177 60 l 1
 253 0 l 1
 24 0 l 1xa0
EndSplineSet
EndChar

StartChar: N
Encoding: 78 78 76
Width: 712
Flags: MW
HStem: -20 20G<27 266 27 27> -15 21G<591 591> 630 20G<185 361 361 361 614 843 843 843>
LayerCount: 2
Fore
SplineSet
180 63 m 1x60
 266 0 l 1
 27 0 l 1
 131 63 l 1
 259 578 l 1
 185 650 l 1
 361 650 l 1
 599 219 l 1
 690 587 l 1
 614 650 l 1
 843 650 l 1
 739 587 l 1
 591 -15 l 1
 294 523 l 1xa0
 180 63 l 1x60
EndSplineSet
EndChar

StartChar: F
Encoding: 70 70 77
Width: 585
Flags: MW
HStem: 0 21G<27 27 27 317> 320 35<309 409 301 416> 615 35<373 585 373 373>
LayerCount: 2
Fore
SplineSet
27 0 m 1
 122 51 l 1
 258 599 l 1
 185 650 l 1
 703 650 l 1
 649 430 l 1
 585 615 l 1
 373 615 l 1
 309 355 l 1
 416 355 l 1
 517 458 l 1
 457 218 l 1
 409 320 l 1
 301 320 l 1
 234 51 l 1
 317 0 l 1
 27 0 l 1
EndSplineSet
EndChar

StartChar: X
Encoding: 88 88 78
Width: 710
Flags: MW
HStem: 0 21G<28 237 28 28 427 693 427 427> 630 20G<178 444 444 444 600 806 806 806>
LayerCount: 2
Fore
SplineSet
697 590 m 1
 481 362 l 1
 617 47 l 1
 693 0 l 1
 427 0 l 1
 493 40 l 1
 393 273 l 1
 176 49 l 1
 237 0 l 1
 28 0 l 1
 136 59 l 1
 376 310 l 1
 253 601 l 1
 178 650 l 1
 444 650 l 1
 377 609 l 1
 467 399 l 1
 656 601 l 1
 600 650 l 1
 806 650 l 1
 697 590 l 1
EndSplineSet
EndChar

StartChar: afii10039
Encoding: 1061 1061 79
Width: 710
Flags: MW
HStem: 0 21G<28 237 28 28 427 693 427 427> 630 20G<178 444 444 444 600 806 806 806>
LayerCount: 2
Fore
SplineSet
697 590 m 1
 481 362 l 1
 617 47 l 1
 693 0 l 1
 427 0 l 1
 493 40 l 1
 393 273 l 1
 176 49 l 1
 237 0 l 1
 28 0 l 1
 136 59 l 1
 376 310 l 1
 253 601 l 1
 178 650 l 1
 444 650 l 1
 377 609 l 1
 467 399 l 1
 656 601 l 1
 600 650 l 1
 806 650 l 1
 697 590 l 1
EndSplineSet
EndChar

StartChar: Y
Encoding: 89 89 80
Width: 682
Flags: MW
HStem: 0 21G<212 492 212 212> 630 20G<168 434 434 434 624 833 833 833>
LayerCount: 2
Fore
SplineSet
434 650 m 1
 360 608 l 1
 466 345 l 1
 679 597 l 1
 624 650 l 1
 833 650 l 1
 724 592 l 1
 482 303 l 1
 419 51 l 1
 492 0 l 1
 212 0 l 1
 307 51 l 1
 364 282 l 1
 236 602 l 1
 168 650 l 1
 434 650 l 1
EndSplineSet
EndChar

StartChar: Q
Encoding: 81 81 81
Width: 669
Flags: MW
HStem: 633 32<429.5 548.5>
LayerCount: 2
Fore
SplineSet
110 327 m 0
 157 517 319 665 496 665 c 0
 674 665 766 517 719 327 c 0
 677 158 543 22 389 -5 c 1
 363 -82 373 -197 488 -200 c 1
 306 -246 247 -108 272 -4 c 1
 133 25 68 160 110 327 c 0
240 327 m 0
 196 148 220 22 339 22 c 0
 458 22 546 148 590 327 c 0
 634 506 608 633 489 633 c 0
 370 633 284 506 240 327 c 0
EndSplineSet
EndChar

StartChar: U
Encoding: 85 85 82
Width: 720
Flags: MW
HStem: -10 54<319 462.5> 630 20G<182 462 462 462 625 854 854 854>
LayerCount: 2
Fore
SplineSet
255 599 m 1
 182 650 l 1
 462 650 l 1
 367 599 l 1
 284 263 l 2
 260 163 247 44 391 44 c 0
 535 44 597 164 619 254 c 2
 701 587 l 1
 625 650 l 1
 854 650 l 1
 750 587 l 1
 668 259 l 2
 640 143 557 -10 368 -10 c 0
 156 -10 138 128 169 254 c 2
 255 599 l 1
EndSplineSet
EndChar

StartChar: C
Encoding: 67 67 83
Width: 620
Flags: MW
HStem: -10 63<320.5 398.5> 632 33<441.5 528 404 558.5>
LayerCount: 2
Fore
SplineSet
721 665 m 1
 661 420 l 1
 644 542 612 632 505 632 c 0
 378 632 280 505 238 330 c 0
 198 166 256 53 385 53 c 0
 488 53 575 121 627 227 c 1
 583 85 464 -10 333 -10 c 0
 149 -10 63 137 110 327 c 0
 157 517 312 665 496 665 c 0
 560 665 598 652 631 620 c 1
 721 665 l 1
EndSplineSet
EndChar

StartChar: afii10035
Encoding: 1057 1057 84
Width: 620
Flags: MW
HStem: -10 63<320.5 398.5> 632 33<441.5 528 404 558.5>
LayerCount: 2
Fore
SplineSet
721 665 m 1
 661 420 l 1
 644 542 612 632 505 632 c 0
 378 632 280 505 238 330 c 0
 198 166 256 53 385 53 c 0
 488 53 575 121 627 227 c 1
 583 85 464 -10 333 -10 c 0
 149 -10 63 137 110 327 c 0
 157 517 312 665 496 665 c 0
 560 665 598 652 631 620 c 1
 721 665 l 1
EndSplineSet
EndChar

StartChar: afii10047
Encoding: 1069 1069 85
Width: 608
Flags: MW
HStem: -10 73 320 35<379 551 370 562> 645 20G<222 222 423 553.5>
LayerCount: 2
Fore
SplineSet
550 314 m 1
 551 320 l 1
 370 320 l 1
 279 218 l 1
 339 458 l 1
 379 355 l 1
 562 355 l 1
 603 497 576 617 466 632 c 0
 341 650 228 533 158 400 c 1
 222 665 l 1
 292 620 l 1
 341 652 391 665 455 665 c 0
 652 665 713 514 667 327 c 0
 621 140 462 -10 278 -10 c 0
 150 -10 52 83 98 257 c 1
 92 129 163 67 254 63 c 0
 383 57 512 161 550 314 c 1
EndSplineSet
EndChar

StartChar: afii10049
Encoding: 1071 1071 86
Width: 671
Flags: MW
HStem: 0 21G<1 187 1 1 364 644 364 364> 296 35<439 470 470 520> 615 35<499 510 510 598>
LayerCount: 2
Fore
SplineSet
499 650 m 2
 802 650 l 1
 707 599 l 1
 571 51 l 1
 644 0 l 1
 364 0 l 1
 459 51 l 1
 520 296 l 1
 470 296 l 2
 408 296 360 259 319 200 c 2
 187 0 l 1
 1 0 l 1
 96 53 l 1
 174 164 l 2
 221 229 275 290 348 309 c 1
 242 323 194 376 218 473 c 0
 250 603 366 650 499 650 c 2
528 331 m 1
 598 615 l 1
 510 615 l 2
 440 615 364 578 340 473 c 0
 316 378 367 331 437 331 c 2
 528 331 l 1
EndSplineSet
EndChar

StartChar: afii10028
Encoding: 1050 1050 87
Width: 694
Flags: MW
HStem: 0 21G<27 307 27 27 484 670 484 484> 320 35<309 350 301 370> 530 135<667.5 700> 582 83<619.5 715>
LayerCount: 2
Fore
SplineSet
465 650 m 1xd0
 370 599 l 1
 309 355 l 1
 370 355 l 2
 421 357 456 394 495 459 c 2
 567 582 l 2xd0
 605 644 643 665 692 665 c 0
 738 665 773 642 760 596 c 0
 750 551 716 530 684 530 c 0xe0
 631 530 652 582 626 582 c 0
 613 582 605 574 594 557 c 2
 522 438 l 2
 487 382 458 357 426 343 c 1
 490 336 545 295 569 184 c 2
 599 51 l 1
 670 0 l 1
 484 0 l 1
 446 205 l 2
 430 292 395 320 350 320 c 2
 301 320 l 1
 234 51 l 1
 307 0 l 1
 27 0 l 1
 122 51 l 1
 258 599 l 1
 185 650 l 1
 465 650 l 1xd0
EndSplineSet
EndChar

StartChar: afii10024
Encoding: 1046 1046 88
Width: 1006
Flags: MW
HStem: 0 21G<24 210 24 24 363 643 363 363 796 982 796 796> 320 35<485 487 487 525 645 675> 529 136<249.5 346.5 983.5 1016.5> 582 83<334 346.5 299 353 299 405>
LayerCount: 2
Fore
SplineSet
521 650 m 1xd0
 801 650 l 1
 706 599 l 1
 645 355 l 1
 692 355 l 2
 745 355 773 393 813 459 c 2
 883 582 l 2
 921 642 959 665 1008 665 c 0
 1054 665 1089 643 1076 596 c 0
 1066 551 1034 529 999 529 c 0xd0
 946 529 967 582 943 582 c 0xe0
 929 582 920 574 910 557 c 2
 840 438 l 2
 807 383 778 356 748 344 c 1
 816 338 867 294 889 184 c 2
 913 50 l 1
 982 0 l 1
 796 0 l 1
 766 205 l 2
 750 292 713 320 675 320 c 2
 637 320 l 1
 570 51 l 1
 643 0 l 1
 363 0 l 1
 458 51 l 1
 525 320 l 1
 487 320 l 2
 449 320 396 292 340 205 c 2
 210 0 l 1
 24 0 l 1
 116 50 l 1
 205 184 l 2
 281 294 354 338 423 344 c 1
 401 356 385 383 378 438 c 2
 366 557 l 2
 364 574 360 582 346 582 c 0
 322 582 320 529 267 529 c 0xd0
 232 529 209 551 219 596 c 0
 232 643 276 665 322 665 c 0
 371 665 399 642 405 582 c 2xe0
 417 459 l 2
 425 393 432 355 485 355 c 2
 533 355 l 1
 594 599 l 1
 521 650 l 1xd0
EndSplineSet
EndChar

StartChar: afii10021
Encoding: 1044 1044 89
Width: 690
Flags: MW
HStem: -200 21G<-28 -28 619 619> 0 35<153 475> 615 35<381 617 381 381>
LayerCount: 2
Fore
SplineSet
-28 -200 m 1
 29 35 l 1
 56 35 l 2
 176 35 229 224 262 340 c 2
 335 599 l 1
 246 650 l 1
 821 650 l 1
 726 599 l 1
 587 35 l 1
 677 35 l 1
 619 -200 l 1
 551 0 l 1
 139 0 l 1
 -28 -200 l 1
617 615 m 1
 381 615 l 1
 300 320 l 2
 257 168 210 73 153 35 c 1
 475 35 l 1
 617 615 l 1
EndSplineSet
EndChar

StartChar: R
Encoding: 82 82 90
Width: 663
Flags: MW
HStem: 0 21G<27 307 27 27 478 666 478 478> 296 35<303 334 295 390> 615 35<373 373 373 457>
LayerCount: 2
Fore
SplineSet
185 650 m 1
 484 650 l 2
 617 650 713 608 681 478 c 0
 659 381 573 316 453 305 c 1
 521 294 551 257 566 192 c 2
 595 53 l 1
 666 0 l 1
 478 0 l 1
 440 210 l 2
 427 269 391 296 334 296 c 2
 295 296 l 1
 234 51 l 1
 307 0 l 1
 27 0 l 1
 122 51 l 1
 258 599 l 1
 185 650 l 1
373 615 m 1
 303 331 l 1
 390 331 l 2
 465 331 537 383 559 478 c 0
 585 583 527 615 457 615 c 2
 373 615 l 1
EndSplineSet
EndChar

StartChar: afii10037
Encoding: 1059 1059 91
Width: 652
Flags: MW
HStem: -10 85<193 289> -10 133<209 240.5> 630 20G<168 418 418 418 607 807 807 807>
LayerCount: 2
Fore
SplineSet
807 650 m 1xa0
 708 591 l 1
 341 75 l 2xa0
 299 16 265 -10 216 -10 c 0
 170 -10 140 16 150 60 c 0
 160 101 193 123 225 123 c 0x60
 275 123 255 75 282 75 c 0
 296 75 307 85 318 101 c 2
 370 173 l 1
 231 602 l 1
 168 650 l 1
 418 650 l 1
 348 609 l 1
 454 293 l 1
 670 595 l 1
 607 650 l 1
 807 650 l 1xa0
EndSplineSet
EndChar

StartChar: afii10027
Encoding: 1049 1049 92
Width: 736
Flags: MW
HStem: 0 21G<27 27 27 307 429 429 429 709> 714 24<530 564.5 530 584.5> 714 152<450 584.5>
LayerCount: 2
Fore
SplineSet
471 866 m 0xa0
 500 866 521 847 514 819 c 0
 505 788 482 782 482 764 c 0
 483 747 513 738 547 738 c 0xc0
 582 738 614 747 624 764 c 0
 636 782 613 788 622 819 c 0
 629 847 657 866 690 866 c 0
 732 866 740 836 733 808 c 0
 717 742 628 714 541 714 c 0
 454 714 381 742 397 808 c 0
 404 836 429 866 471 866 c 0xa0
27 0 m 1
 122 51 l 1
 258 599 l 1
 185 650 l 1
 465 650 l 1
 370 599 l 1
 254 130 l 1
 655 580 l 1
 660 599 l 1
 587 650 l 1
 867 650 l 1
 772 599 l 1
 636 51 l 1
 709 0 l 1
 429 0 l 1
 524 51 l 1
 638 513 l 1
 237 63 l 1
 234 51 l 1
 307 0 l 1
 27 0 l 1
EndSplineSet
EndChar

StartChar: afii10029
Encoding: 1051 1051 93
Width: 711
Flags: MW
HStem: -20 20G<404 684 404 404> -10 125<90.5 125.5 90.5 148.5> 615 35<403 638 403 403>
LayerCount: 2
Fore
SplineSet
350 599 m 1x60
 272 650 l 1
 842 650 l 1
 746 599 l 1
 611 51 l 1
 684 0 l 1
 404 0 l 1xa0
 499 51 l 1
 638 615 l 1
 403 615 l 1
 321 280 l 2
 271 76 196 -10 101 -10 c 0
 59 -10 23 11 34 58 c 0
 45 102 79 115 102 115 c 0
 149 115 129 66 166 76 c 0
 224 92 256 213 276 300 c 2
 350 599 l 1x60
EndSplineSet
EndChar

StartChar: J
Encoding: 74 74 94
Width: 466
Flags: MW
HStem: -10 32<172 216.5 172 227> -10 176<113 140.5 99.5 227> 630 20G<320 600 600 600>
LayerCount: 2
Fore
SplineSet
600 650 m 1xa0
 505 599 l 1
 414 230 l 2
 376 75 286 -10 168 -10 c 0
 58 -10 31 39 41 93 c 0
 51 138 83 166 116 166 c 0x60
 165 166 171 130 158 97 c 0
 132 31 161 22 183 22 c 0
 250 22 276 123 306 250 c 2
 393 599 l 1
 320 650 l 1
 600 650 l 1xa0
EndSplineSet
EndChar

StartChar: G
Encoding: 71 71 95
Width: 627
Flags: MW
HStem: -10 35<285 365.5> 632 33<420.5 529.5 405.5 549>
LayerCount: 2
Fore
SplineSet
714 290 m 1
 627 239 l 1
 566 -10 l 1
 498 58 l 1
 454 16 401 -10 330 -10 c 0
 136 -10 63 137 110 327 c 0
 157 517 312 665 499 665 c 0
 560 665 596 651 628 620 c 1
 721 665 l 1
 657 400 l 1
 640 526 607 632 491 632 c 0
 350 632 277 474 238 322 c 0
 195 154 222 25 348 25 c 0
 415 25 450 54 477 81 c 1
 515 239 l 1
 444 290 l 1
 714 290 l 1
EndSplineSet
EndChar

StartChar: D
Encoding: 68 68 96
Width: 659
Flags: MW
HStem: 0 35<231 318 318 319> 615 35<373 460 373 373>
LayerCount: 2
Fore
SplineSet
185 650 m 1
 477 650 l 2
 665 650 756 520 709 327 c 0
 661 134 507 0 319 0 c 2
 27 0 l 1
 122 51 l 1
 258 599 l 1
 185 650 l 1
460 615 m 2
 373 615 l 1
 231 35 l 1
 318 35 l 2
 444 35 535 145 580 327 c 0
 625 509 586 615 460 615 c 2
EndSplineSet
EndChar

StartChar: Z
Encoding: 90 90 97
Width: 582
Flags: MW
HStem: 0 35<188 440 188 542> 615 35<320 545 320 320>
LayerCount: 2
Fore
SplineSet
164 430 m 1
 218 650 l 1
 700 650 l 1
 188 35 l 1
 440 35 l 1
 596 220 l 1
 542 0 l 1
 34 0 l 1
 545 615 l 1
 320 615 l 1
 164 430 l 1
EndSplineSet
EndChar

StartChar: one
Encoding: 49 49 98
Width: 502
Flags: MW
HStem: 0 21G<109 393 109 109> 645 20G<465 465>
LayerCount: 2
Fore
SplineSet
335 541 m 1
 249 541 l 1
 465 665 l 1
 312 51 l 1
 393 0 l 1
 109 0 l 1
 213 51 l 1
 335 541 l 1
EndSplineSet
EndChar

StartChar: l
Encoding: 108 108 99
Width: 260
Flags: MW
HStem: -10 21G<91 137.5> 645 20G<313 313>
LayerCount: 2
Fore
SplineSet
68 57 m 2
 199 588 l 1
 130 610 l 1
 313 665 l 1
 162 47 l 1
 264 92 l 1
 233 58 167 -10 108 -10 c 0
 74 -10 57 12 68 57 c 2
EndSplineSet
EndChar

StartChar: o
Encoding: 111 111 100
Width: 474
Flags: MW
HStem: -10 32<203.5 272.5 203.5 277> 428 32
LayerCount: 2
Fore
SplineSet
66 225 m 0
 100 361 204 460 330 460 c 0
 449 460 511 361 477 225 c 0
 444 89 340 -10 214 -10 c 0
 95 -10 33 89 66 225 c 0
173 210 m 0
 159 91 172 22 235 22 c 0
 310 22 354 121 370 240 c 0
 386 359 371 427 308 428 c 0
 234 429 189 329 173 210 c 0
EndSplineSet
EndChar

StartChar: a
Encoding: 97 97 101
Width: 499
Flags: MW
HStem: -10 62<116 211> 431 29<302 351 283 355>
LayerCount: 2
Fore
SplineSet
315 106 m 1
 271 41 215 -10 160 -10 c 0
 72 -10 34 78 72 216 c 0
 117 376 233 460 333 460 c 0
 369 460 396 443 406 417 c 1
 498 460 l 1
 464 322 430 185 397 47 c 1
 499 92 l 1
 461 51 400 -10 343 -10 c 0
 306 -10 294 15 303 57 c 0
 305 65 313 97 315 106 c 1
170 206 m 0
 147 102 165 52 211 52 c 0
 239 53 285 83 321 133 c 1
 378 367 l 2
 384 396 377 431 333 431 c 0
 271 431 200 342 170 206 c 0
EndSplineSet
EndChar

StartChar: c
Encoding: 99 99 102
Width: 432
Flags: MW
HStem: -10 21G<148.5 259> 297 163<366.5 372 266.5 397.5> 430 30<275.5 333>
LayerCount: 2
Fore
SplineSet
161 209 m 0xa0
 155 92 215 59 281 65 c 0
 337 71 393 115 427 189 c 1
 391 60 310 -10 208 -10 c 0
 89 -10 34 92 67 225 c 0
 100 358 206 460 327 460 c 0
 417 460 459 410 446 351 c 0
 440 320 412 297 383 297 c 0xc0
 350 297 345 326 350 348 c 0
 364 406 355 430 311 430 c 0
 240 430 169 328 161 209 c 0xa0
EndSplineSet
EndChar

StartChar: e
Encoding: 101 101 103
Width: 441
Flags: MW
HStem: -10 21G<144 261> 255 30 430 30<279.5 323>
LayerCount: 2
Fore
SplineSet
327 460 m 0
 416 460 463 420 456 357 c 0
 447 277 352 264 275 259 c 2
 166 252 l 1
 164 238 161 224 160 209 c 0
 153 95 215 59 283 65 c 0
 341 71 393 115 428 189 c 1
 395 70 317 -10 205 -10 c 0
 83 -10 35 95 67 225 c 0
 99 355 205 460 327 460 c 0
174 279 m 1
 258 285 l 2
 323 289 355 317 359 357 c 0
 366 408 338 430 308 430 c 0
 251 430 197 362 174 279 c 1
EndSplineSet
EndChar

StartChar: x
Encoding: 120 120 104
Width: 504
Flags: MW
HStem: -10 109<82.5 107> 351 109<461 481.5>
LayerCount: 2
Fore
SplineSet
381 341 m 2
 331 273 l 1
 407 40 l 1
 499 93 l 1
 465 47 420 -10 362 -10 c 0
 316 -10 308 28 291 79 c 2
 260 171 l 1
 172 48 l 2
 143 8 125 -10 89 -10 c 0
 57 -10 35 13 38 44 c 0
 41 78 69 99 96 99 c 0
 133 99 152 60 187 108 c 2
 251 198 l 1
 190 382 l 1
 101 405 l 1
 271 460 l 1
 323 300 l 1
 396 402 l 2
 425 443 443 460 479 460 c 0
 510 460 534 440 530 407 c 0
 526 367 494 351 469 351 c 0
 433 351 414 389 381 341 c 2
EndSplineSet
EndChar

StartChar: y
Encoding: 121 121 105
Width: 444
Flags: MW
HStem: -211 112<15 44.5 13 51.5> 440 20G<214 214 393.5 433.5>
LayerCount: 2
Fore
SplineSet
128 -96 m 2
 208 23 l 1
 125 385 l 1
 99 391 72 398 46 405 c 1
 101 423 158 442 214 460 c 1
 282 130 l 1
 319 185 354 239 379 294 c 0
 407 355 347 357 350 406 c 0
 352 438 378 460 409 460 c 0
 458 460 485 409 444 332 c 0
 396 245 338 157 280 70 c 2
 166 -101 l 2
 107 -190 72 -211 31 -211 c 0
 -1 -211 -28 -191 -26 -152 c 0
 -24 -121 -2 -99 28 -99 c 0
 61 -99 59 -129 84 -130 c 0
 95 -131 108 -126 128 -96 c 2
EndSplineSet
EndChar

StartChar: afii10025
Encoding: 1047 1047 106
Width: 551
Flags: MW
HStem: -10 59<214 306 214 341.5> 320 35<292 333 292 341 284 333> 632 33<421 445>
LayerCount: 2
Fore
SplineSet
170 403 m 1
 234 665 l 1
 305 619 l 1
 351 651 399 665 443 665 c 0
 564 665 644 621 612 491 c 0
 592 413 525 356 449 343 c 1
 527 334 583 280 560 186 c 0
 530 64 416 -10 267 -10 c 0
 131 -10 76 74 101 196 c 1
 111 93 170 49 258 49 c 0
 354 49 419 110 440 192 c 0
 458 266 423 320 341 320 c 2
 284 320 l 1
 292 355 l 1
 333 355 l 2
 400 357 471 398 495 493 c 0
 520 596 477 632 413 632 c 0
 309 632 229 507 170 403 c 1
EndSplineSet
EndChar

StartChar: S
Encoding: 83 83 107
Width: 543
Flags: MW
HStem: -10 32<267.5 351 249 374.5> 633 32<381.5 452.5 372 464>
LayerCount: 2
Fore
SplineSet
633 665 m 1
 575 430 l 1
 559 560 513 633 415 633 c 0
 348 633 268 598 251 530 c 0
 238 479 272 454 323 430 c 2
 466 362 l 2
 527 334 582 287 554 173 c 0
 532 83 446 -10 303 -10 c 0
 232 -10 175 20 154 53 c 1
 58 -10 l 1
 122 249 l 1
 140 116 187 22 311 22 c 0
 391 22 456 64 473 132 c 0
 490 199 438 227 401 245 c 2
 260 313 l 2
 196 343 155 393 176 477 c 0
 208 608 322 665 422 665 c 0
 483 665 526 644 550 621 c 1
 633 665 l 1
EndSplineSet
EndChar

StartChar: K
Encoding: 75 75 108
Width: 705
Flags: MW
HStem: 0 21G<27 27 27 307 504 504 504 695> 630 20G<185 465 465 465 569 799 799 799>
LayerCount: 2
Fore
SplineSet
27 0 m 1
 122 51 l 1
 258 599 l 1
 185 650 l 1
 465 650 l 1
 370 599 l 1
 297 304 l 1
 632 590 l 1
 569 650 l 1
 799 650 l 1
 452 389 l 1
 613 56 l 1
 695 0 l 1
 504 0 l 1
 362 314 l 1
 283 246 l 1
 234 51 l 1
 307 0 l 1
 27 0 l 1
EndSplineSet
EndChar

StartChar: k
Encoding: 107 107 109
Width: 508
Flags: MW
HStem: -20 20G<64 160 64 64> -10 21G<347 387.5> 354 106<441 479> 645 20G
LayerCount: 2
Fore
SplineSet
220 252 m 1xb0
 226 252 l 2
 266 252 293 265 342 345 c 0
 371 392 410 460 472 460 c 0
 499 460 525 443 520 406 c 0
 517 375 494 354 464 354 c 0
 416 354 426 430 368 325 c 0
 343 279 321 252 287 238 c 1
 373 227 390 151 414 43 c 1
 442 58 470 72 498 87 c 1
 455 24 408 -10 367 -10 c 0x70
 327 -10 316 19 306 70 c 0
 291 145 276 218 228 220 c 2
 214 220 l 1
 196 147 178 73 160 0 c 1
 64 0 l 1
 208 588 l 1
 185 595 161 603 139 610 c 1
 200 628 261 647 322 665 c 1
 288 527 254 390 220 252 c 1xb0
EndSplineSet
EndChar

StartChar: p
Encoding: 112 112 110
Width: 491
Flags: MW
HStem: -200 21G<-63 -63 -63 179> -10 31<239 239> 396 64<361.5 362>
LayerCount: 2
Fore
SplineSet
-63 -200 m 1
 19 -155 l 1
 153 383 l 1
 84 405 l 1
 267 460 l 1
 241 356 l 1
 285 414 334 460 389 460 c 0
 481 460 527 376 491 229 c 0
 458 90 345 -10 239 -10 c 0
 200 -10 178 4 161 25 c 1
 115 -155 l 1
 179 -200 l 1
 -63 -200 l 1
393 237 m 0
 413 339 389 396 335 396 c 0
 306 396 271 372 235 329 c 1
 179 100 l 2
 164 42 198 20 239 21 c 0
 312 24 371 121 393 237 c 0
EndSplineSet
EndChar

StartChar: n
Encoding: 110 110 111
Width: 528
Flags: MW
HStem: -20 20G<64 160 64 64> -10 21G<355 401.5> 400 60
LayerCount: 2
Fore
SplineSet
272 460 m 1xa0
 244 347 l 1
 284 395 357 460 413 460 c 0
 499 460 511 395 487 296 c 2
 426 47 l 1
 528 92 l 1
 497 58 431 -10 372 -10 c 0x60
 338 -10 321 12 332 57 c 2
 387 283 l 2
 407 365 404 400 356 400 c 0
 326 400 275 364 237 317 c 1
 160 0 l 1
 64 0 l 1
 158 383 l 1
 89 405 l 1
 272 460 l 1xa0
EndSplineSet
EndChar

StartChar: d
Encoding: 100 100 112
Width: 498
Flags: MW
HStem: -10 62<185.5 187.5> 432 28<333 343 273 350> 645 20G<551 551>
LayerCount: 2
Fore
SplineSet
317 106 m 1
 274 41 215 -10 160 -10 c 0
 72 -10 34 76 72 215 c 0
 112 363 220 460 326 460 c 0
 360 460 382 446 397 425 c 1
 437 588 l 1
 413 595 390 603 367 610 c 1
 428 628 490 647 551 665 c 1
 400 47 l 1
 502 92 l 1
 471 58 405 -10 346 -10 c 0
 311 -10 297 13 306 57 c 2
 317 106 l 1
169 205 m 0
 150 110 158 52 213 52 c 0
 244 52 288 83 325 133 c 1
 377 350 l 2
 391 408 367 432 333 432 c 0
 269 431 195 335 169 205 c 0
EndSplineSet
EndChar

StartChar: u
Encoding: 117 117 113
Width: 525
Flags: MW
HStem: -10 58<128 241.5> 440 20G<269 269 524 524>
LayerCount: 2
Fore
SplineSet
86 405 m 1
 269 460 l 1
 197 167 l 2
 177 85 176 48 223 48 c 0
 260 48 312 89 347 133 c 1
 410 383 l 1
 387 390 364 398 341 405 c 1
 402 423 463 442 524 460 c 1
 423 47 l 1
 526 92 l 1
 487 51 427 -10 369 -10 c 0
 332 -10 319 15 329 57 c 2
 340 101 l 1
 299 54 225 -10 171 -10 c 0
 85 -10 72 55 97 154 c 2
 155 383 l 1
 86 405 l 1
EndSplineSet
EndChar

StartChar: h
Encoding: 104 104 114
Width: 528
Flags: MW
HStem: -20 20G<64 160 64 64> -10 21G<355 401.5> 400 60<341 456> 645 20G<322 322>
LayerCount: 2
Fore
SplineSet
322 665 m 1xb0
 245 347 l 1
 285 395 357 460 413 460 c 0
 499 460 511 395 487 296 c 2
 426 47 l 1
 528 92 l 1
 497 58 431 -10 372 -10 c 0x70
 338 -10 321 12 332 57 c 2
 387 283 l 2
 407 365 404 400 356 400 c 0
 326 400 272 361 237 317 c 1
 160 0 l 1
 64 0 l 1
 208 588 l 1
 139 610 l 1
 322 665 l 1xb0
EndSplineSet
EndChar

StartChar: b
Encoding: 98 98 115
Width: 480
Flags: MW
HStem: -10 30<205 225 205 275.5> 398 62<308 425.5> 645 20G<306 306>
LayerCount: 2
Fore
SplineSet
131 34 m 1
 44 -10 l 1
 192 588 l 1
 123 610 l 1
 306 665 l 1
 230 356 l 1
 274 414 323 460 378 460 c 0
 473 460 516 368 480 228 c 0
 446 89 335 -10 216 -10 c 0
 177 -10 148 5 131 34 c 1
381 238 m 0
 397 333 384 399 324 398 c 0
 292 398 260 372 224 329 c 1
 165 90 l 2
 153 40 185 20 225 20 c 0
 300 21 358 120 381 238 c 0
EndSplineSet
EndChar

StartChar: f
Encoding: 102 102 116
Width: 346
Flags: MW
HStem: -210 29<-6.5 29.5 -6.5 38> -210 135<-42.5 -32.5 -67.5 38> 423 27<106 180 100 186 282 376> 528 137<415.5 434.5 346.5 447> 634 31<349.5 382>
LayerCount: 2
Fore
SplineSet
376 423 m 1xa8
 276 423 l 1
 190 13 l 2
 162 -120 90 -210 -14 -210 c 0
 -71 -210 -115 -189 -109 -136 c 0
 -104 -99 -85 -75 -50 -75 c 0
 -15 -75 -7 -104 -13 -135 c 0
 -18 -160 -17 -181 4 -181 c 0x70
 55 -181 68 -111 94 13 c 2
 180 423 l 1
 100 423 l 1
 106 450 l 1
 186 450 l 1
 188 460 l 2
 217 599 297 665 396 665 c 0
 473 665 499 623 490 578 c 0
 484 550 460 528 434 528 c 0
 397 528 393 555 395 580 c 0
 398 622 393 634 371 634 c 0xb0
 328 634 304 554 284 460 c 2
 282 450 l 1
 382 450 l 1
 376 423 l 1xa8
EndSplineSet
EndChar

StartChar: g
Encoding: 103 103 117
Width: 504
Flags: MW
HStem: -220 25<155 243.5 155 247.5> 147 24<237.5 281 228.5 304> 398 32<455 549 455 455> 437 23<291.5 342 271.5 343.5>
VStem: -5 83 58 84
LayerCount: 2
Fore
SplineSet
169 164 m 1xf4
 120 184 93 242 107 307 c 0
 131 412 223 460 320 460 c 0
 364 460 404 451 432 430 c 1
 557 430 l 1
 549 398 l 1
 455 398 l 1
 470 375 475 335 467 299 c 0
 443 204 359 147 249 147 c 0
 226 147 203 153 180 159 c 1
 156 149 142 139 142 122 c 0
 142 101 164 94 188 85 c 2xf4
 315 37 l 2
 376 14 408 -26 401 -85 c 0xf8
 390 -168 315 -220 180 -220 c 0
 64 -220 -8 -180 -5 -109 c 0
 -2 -43 52 -11 115 5 c 1
 81 18 56 34 58 70 c 0
 60 126 127 150 169 164 c 1xf4
313 437 m 0
 270 437 228 391 212 321 c 0
 194 251 198 171 259 171 c 0
 303 171 343 214 359 284 c 0
 377 355 374 437 313 437 c 0
280 -57 m 2
 126 1 l 1
 97 -24 81 -55 78 -89 c 0
 74 -151 112 -195 198 -195 c 0
 289 -195 327 -153 332 -116 c 0
 334 -93 321 -72 280 -57 c 2
EndSplineSet
EndChar

StartChar: j
Encoding: 106 106 118
Width: 280
Flags: MW
HStem: -210 29<-18 18 -18 26> 540 120<273 276>
LayerCount: 2
Fore
SplineSet
111 405 m 1
 181 383 l 1
 89 13 l 2
 59 -111 43 -181 -7 -181 c 0
 -29 -181 -28 -161 -21 -135 c 0
 -13 -104 -22 -75 -57 -75 c 0
 -92 -75 -114 -99 -119 -136 c 0
 -125 -189 -83 -210 -26 -210 c 0
 78 -210 152 -123 185 13 c 2
 295 460 l 1
 111 405 l 1
215 599 m 0
 222 633 256 660 290 660 c 0
 324 660 342 633 335 599 c 0
 326 566 293 540 259 540 c 0
 226 540 206 566 215 599 c 0
EndSplineSet
EndChar

StartChar: m
Encoding: 109 109 119
Width: 775
Flags: MW
HStem: -20 20G<64 160 64 64 316 412 316 316> -10 21G<602 648.5> 400 60
LayerCount: 2
Fore
SplineSet
579 57 m 2x60
 634 283 l 2
 654 365 647 400 601 400 c 0
 571 400 526 364 488 317 c 0
 487 311 486 304 484 296 c 2
 412 0 l 1
 316 0 l 1
 384 283 l 2
 404 365 401 400 355 400 c 0
 324 400 275 364 237 317 c 1
 160 0 l 1
 64 0 l 1xa0
 158 383 l 1
 89 405 l 1
 272 460 l 1
 245 347 l 1
 281 392 353 460 410 460 c 0
 475 460 501 406 491 342 c 1
 526 387 596 460 655 460 c 0
 744 460 758 395 734 296 c 2
 673 47 l 1
 775 92 l 1
 744 58 678 -10 619 -10 c 0
 585 -10 568 12 579 57 c 2x60
EndSplineSet
EndChar

StartChar: q
Encoding: 113 113 120
Width: 477
Flags: MW
HStem: -200 21G<168 412 168 168> -9 61<188.5 190> 432 28 441 20G<500 500>
LayerCount: 2
Fore
SplineSet
408 417 m 1xe0
 500 461 l 1xd0
 348 -155 l 1
 412 -200 l 1
 168 -200 l 1
 252 -155 l 1
 317 106 l 1
 273 41 221 -9 159 -9 c 0
 78 -9 34 76 70 216 c 0
 107 362 216 460 335 460 c 0
 369 460 395 444 408 417 c 1xe0
167 206 m 0
 149 111 164 52 213 52 c 0
 243 52 287 83 323 133 c 1
 378 360 l 2
 392 409 368 434 333 432 c 0xe0
 262 431 188 324 167 206 c 0
EndSplineSet
EndChar

StartChar: r
Encoding: 114 114 121
Width: 409
Flags: MW
HStem: 0 21G<64 160 64 64> 346 114<370.5 401>
LayerCount: 2
Fore
SplineSet
160 0 m 1
 64 0 l 1
 158 383 l 1
 89 405 l 1
 272 460 l 1
 244 348 l 1
 298 409 l 2
 329 444 348 460 390 460 c 0
 431 460 454 438 447 402 c 0
 442 369 417 346 385 346 c 0
 356 346 347 364 349 384 c 0
 350 403 347 413 333 413 c 0
 323 413 316 408 304 395 c 2
 236 317 l 1
 160 0 l 1
EndSplineSet
EndChar

StartChar: s
Encoding: 115 115 122
Width: 413
Flags: MW
HStem: -10 32<179.5 224 171 240> 428 32<247.5 294.5 231 298.5>
LayerCount: 2
Fore
SplineSet
362 436 m 1
 419 460 l 1
 375 288 l 1
 363 394 324 428 273 428 c 0
 222 428 187 405 181 364 c 0
 174 326 196 307 240 285 c 2
 294 258 l 2
 354 229 380 180 368 112 c 0
 352 32 280 -10 200 -10 c 0
 159 -10 124 4 103 21 c 1
 34 -10 l 1
 76 164 l 1
 94 62 139 22 203 22 c 0
 245 22 278 44 286 85 c 0
 297 142 252 166 196 189 c 0
 125 217 96 256 108 328 c 0
 122 408 188 460 274 460 c 0
 315 460 348 447 362 436 c 1
EndSplineSet
EndChar

StartChar: t
Encoding: 116 116 123
Width: 338
Flags: MW
HStem: -10 21G<125 174> 423 27<269 371 277 363> 558 20G<309 309>
LayerCount: 2
Fore
SplineSet
102 423 m 1
 309 578 l 1
 277 450 l 1
 371 450 l 1
 363 423 l 1
 269 423 l 1
 191 102 l 2
 171 22 251 53 304 98 c 1
 252 28 197 -10 151 -10 c 0
 99 -10 76 21 93 87 c 2
 174 423 l 1
 102 423 l 1
EndSplineSet
EndChar

StartChar: w
Encoding: 119 119 124
Width: 707
Flags: MW
HStem: -15 21G<185 185 467 467> 440 20G<463 463 651.5 691.5>
LayerCount: 2
Fore
SplineSet
252 147 m 1
 463 460 l 1
 535 125 l 1
 578 177 625 240 642 294 c 0
 661 352 605 357 608 406 c 0
 610 437 636 460 667 460 c 0
 716 460 741 406 706 332 c 0
 648 208 563 101 467 -15 c 1
 402 310 l 1
 185 -15 l 1
 162 118 140 252 117 385 c 1
 92 392 65 398 40 405 c 1
 95 423 152 442 208 460 c 1
 222 354 238 253 252 147 c 1
EndSplineSet
EndChar

StartChar: z
Encoding: 122 122 125
Width: 424
Flags: MW
HStem: -10 90<291 301> 10 70 10 90<100 215> 364 86<161 343 161 161>
LayerCount: 2
Fore
SplineSet
11 -10 m 1x50
 343 364 l 1x90
 161 364 l 1x30
 107 297 l 1
 149 450 l 1
 467 450 l 1x90
 147 93 l 1
 165 98 173 100 193 100 c 0
 237 100 267 80 315 80 c 0
 346 80 389 92 423 135 c 1
 382 59 339 -10 263 -10 c 0
 216 -10 171 10 121 10 c 0
 79 10 48 5 11 -10 c 1x50
EndSplineSet
EndChar

StartChar: exclam
Encoding: 33 33 126
Width: 262
Flags: MW
HStem: -7 120<142 145> 645 20G<273 313.5>
LayerCount: 2
Fore
SplineSet
293 665 m 0
 334 665 347 632 333 572 c 0
 311 486 194 218 169 158 c 1
 173 218 188 486 210 572 c 0
 225 632 253 665 293 665 c 0
84 53 m 0
 91 87 125 113 159 113 c 0
 193 113 211 87 204 53 c 0
 195 20 162 -7 128 -7 c 0
 95 -7 75 20 84 53 c 0
EndSplineSet
EndChar

StartChar: parenleft
Encoding: 40 40 127
Width: 342
Flags: MW
HStem: -214 21G 674 20G
LayerCount: 2
Fore
SplineSet
208 240 m 0
 161 51 165 -127 268 -214 c 1
 113 -145 50 43 99 240 c 0
 148 437 306 625 495 694 c 1
 337 604 255 426 208 240 c 0
EndSplineSet
EndChar

StartChar: parenright
Encoding: 41 41 128
Width: 342
Flags: MW
HStem: -214 21G 674 20G
LayerCount: 2
Fore
SplineSet
259 240 m 0
 306 426 312 604 200 694 c 1
 355 625 417 437 368 240 c 0
 319 43 162 -145 -26 -214 c 1
 120 -127 212 51 259 240 c 0
EndSplineSet
EndChar

StartChar: plus
Encoding: 43 43 129
Width: 490
Flags: MW
HStem: 156 21G<299 331 299 299> 320 32<136 299 136 299 331 495> 495 20G<299 331 331 331>
VStem: 299 32<156 320 156 320 352 515>
LayerCount: 2
Fore
SplineSet
136 320 m 1
 136 352 l 1
 299 352 l 1
 299 515 l 1
 331 515 l 1
 331 352 l 1
 495 352 l 1
 495 320 l 1
 331 320 l 1
 331 156 l 1
 299 156 l 1
 299 320 l 1
 136 320 l 1
EndSplineSet
EndChar

StartChar: underscore
Encoding: 95 95 130
Width: 490
Flags: MW
HStem: -100 32<-9 457 -1 449>
LayerCount: 2
Fore
SplineSet
-9 -100 m 1
 -1 -68 l 1
 457 -68 l 1
 449 -100 l 1
 -9 -100 l 1
EndSplineSet
EndChar

StartChar: equal
Encoding: 61 61 131
Width: 490
Flags: MW
HStem: 268 32<135 495 135 495> 378 32<135 495 135 495>
LayerCount: 2
Fore
SplineSet
135 268 m 1
 135 300 l 1
 495 300 l 1
 495 268 l 1
 135 268 l 1
135 378 m 1
 135 410 l 1
 495 410 l 1
 495 378 l 1
 135 378 l 1
EndSplineSet
EndChar

StartChar: quoteright
Encoding: 8217 8217 132
Width: 241
Flags: MW
HStem: 393 21G 545 120<226.5 299>
LayerCount: 2
Fore
SplineSet
200 604 m 0
 209 638 239 665 278 665 c 0
 320 665 350 639 331 564 c 0
 315 497 249 426 160 393 c 1
 236 430 278 504 284 555 c 1
 271 548 260 545 244 545 c 0
 209 545 192 571 200 604 c 0
EndSplineSet
EndChar

StartChar: quoteleft
Encoding: 8216 8216 133
Width: 241
Flags: MW
HStem: 398 120<206 279> 650 20G
LayerCount: 2
Fore
SplineSet
305 460 m 0
 297 426 266 398 227 398 c 0
 185 398 155 424 174 499 c 0
 190 566 256 637 345 670 c 1
 269 633 227 559 221 508 c 1
 234 515 246 518 262 518 c 0
 296 518 313 493 305 460 c 0
EndSplineSet
EndChar

StartChar: quotedblright
Encoding: 8221 8221 134
Width: 417
Flags: MW
HStem: 393 21G 545 120<226.5 299 258.5 428>
LayerCount: 2
Fore
SplineSet
200 604 m 0
 209 638 239 665 278 665 c 0
 320 665 350 639 331 564 c 0
 315 497 249 426 160 393 c 1
 236 430 278 504 284 555 c 1
 271 548 260 545 244 545 c 0
 209 545 192 571 200 604 c 0
376 604 m 0
 385 638 415 665 454 665 c 0
 496 665 526 639 507 564 c 0
 491 497 425 426 336 393 c 1
 412 430 454 504 460 555 c 1
 447 548 436 545 420 545 c 0
 385 545 368 571 376 604 c 0
EndSplineSet
EndChar

StartChar: quotedblleft
Encoding: 8220 8220 135
Width: 417
Flags: MW
HStem: 398 120<206 279 254 422.5> 650 20G
LayerCount: 2
Fore
SplineSet
481 460 m 0
 473 426 442 398 403 398 c 0
 361 398 331 424 350 499 c 0
 366 566 432 637 521 670 c 1
 445 633 403 559 397 508 c 1
 410 515 422 518 438 518 c 0
 472 518 489 493 481 460 c 0
305 460 m 0
 297 426 266 398 227 398 c 0
 185 398 155 424 174 499 c 0
 190 566 256 637 345 670 c 1
 269 633 227 559 221 508 c 1
 234 515 246 518 262 518 c 0
 296 518 313 493 305 460 c 0
EndSplineSet
EndChar

StartChar: quotedblbase
Encoding: 8222 8222 136
Width: 417
Flags: MW
HStem: -158 21G -7 120<88.5 162 121.5 290>
LayerCount: 2
Fore
SplineSet
63 52 m 0
 71 86 102 113 141 113 c 0
 183 113 213 88 194 13 c 0
 177 -54 111 -125 23 -158 c 1
 98 -121 141 -47 147 4 c 1
 134 -3 122 -7 106 -7 c 0
 71 -7 54 19 63 52 c 0
239 52 m 0
 247 86 278 113 317 113 c 0
 359 113 389 88 370 13 c 0
 353 -54 287 -125 199 -158 c 1
 274 -121 317 -47 323 4 c 1
 310 -3 298 -7 282 -7 c 0
 247 -7 230 19 239 52 c 0
EndSplineSet
EndChar

StartChar: quotesinglbase
Encoding: 8218 8218 137
Width: 241
Flags: MW
HStem: -158 21G -7 120<88.5 162>
LayerCount: 2
Fore
SplineSet
63 52 m 0
 71 86 102 113 141 113 c 0
 183 113 213 88 194 13 c 0
 177 -54 111 -125 23 -158 c 1
 98 -121 141 -47 147 4 c 1
 134 -3 122 -7 106 -7 c 0
 71 -7 54 19 63 52 c 0
EndSplineSet
EndChar

StartChar: ellipsis
Encoding: 8230 8230 138
Width: 572
Flags: MW
HStem: -7 120<118 121 297 300 476 479>
LayerCount: 2
Fore
SplineSet
60 53 m 0
 68 87 101 113 135 113 c 0
 169 113 188 87 180 53 c 0
 171 20 138 -7 104 -7 c 0
 71 -7 51 20 60 53 c 0
239 53 m 0
 247 87 280 113 314 113 c 0
 348 113 367 87 359 53 c 0
 350 20 317 -7 283 -7 c 0
 250 -7 230 20 239 53 c 0
418 53 m 0
 426 87 459 113 493 113 c 0
 527 113 546 87 538 53 c 0
 529 20 496 -7 462 -7 c 0
 429 -7 409 20 418 53 c 0
EndSplineSet
EndChar

StartChar: guillemotleft
Encoding: 171 171 139
Width: 424
Flags: MW
HStem: 56 21G<263 263 407 407> 396 20G<353 353 497 497>
LayerCount: 2
Fore
SplineSet
195 236 m 1
 263 56 l 1
 88 236 l 1
 353 416 l 1
 195 236 l 1
359 236 m 1
 407 56 l 1
 251 236 l 1
 497 416 l 1
 359 236 l 1
EndSplineSet
EndChar

StartChar: guillemotright
Encoding: 187 187 140
Width: 424
Flags: MW
HStem: 56 21G<43 43 187 187> 396 20G<133 133 277 277>
LayerCount: 2
Fore
SplineSet
187 56 m 1
 345 236 l 1
 277 416 l 1
 452 236 l 1
 187 56 l 1
43 56 m 1
 181 236 l 1
 133 416 l 1
 289 236 l 1
 43 56 l 1
EndSplineSet
EndChar

StartChar: plusminus
Encoding: 177 177 141
Width: 490
Flags: MW
HStem: 150 32<115 474 115 474> 360 32<115 278 115 278 310 474> 535 20G<278 310 310 310>
VStem: 278 32<216 360 216 360 392 555>
LayerCount: 2
Fore
SplineSet
115 360 m 1
 115 392 l 1
 278 392 l 1
 278 555 l 1
 310 555 l 1
 310 392 l 1
 474 392 l 1
 474 360 l 1
 310 360 l 1
 310 216 l 1
 278 216 l 1
 278 360 l 1
 115 360 l 1
115 150 m 1
 115 182 l 1
 474 182 l 1
 474 150 l 1
 115 150 l 1
EndSplineSet
EndChar

StartChar: slash
Encoding: 47 47 142
Width: 279
Flags: MW
HStem: -10 21G<-2 37 -2 -2> 645 20G<405 444 444 444>
LayerCount: 2
Fore
SplineSet
405 665 m 1
 444 665 l 1
 37 -10 l 1
 -2 -10 l 1
 405 665 l 1
EndSplineSet
EndChar

StartChar: backslash
Encoding: 92 92 143
Width: 279
Flags: MW
HStem: -10 21G<237 276 237 237> 645 20G<165 205 205 205>
LayerCount: 2
Fore
SplineSet
276 -10 m 1
 237 -10 l 1
 165 665 l 1
 205 665 l 1
 276 -10 l 1
EndSplineSet
EndChar

StartChar: bar
Encoding: 124 124 144
Width: 200
Flags: MW
HStem: -200 21G<110 150 110 110> 730 20G<110 150 150 150>
VStem: 110 40<-200 750 -200 750>
LayerCount: 2
Fore
SplineSet
110 750 m 1
 150 750 l 1
 150 -200 l 1
 110 -200 l 1
 110 750 l 1
EndSplineSet
EndChar

StartChar: brokenbar
Encoding: 166 166 145
Width: 200
Flags: MW
HStem: -210 21G<109 149 109 109> 645 20G<109 149 149 149>
VStem: 109 40<-210 195 -210 195 260 665>
LayerCount: 2
Fore
SplineSet
109 195 m 1
 149 195 l 1
 149 -210 l 1
 109 -210 l 1
 109 195 l 1
109 665 m 1
 149 665 l 1
 149 260 l 1
 109 260 l 1
 109 665 l 1
EndSplineSet
EndChar

StartChar: asciitilde
Encoding: 126 126 146
Width: 490
Flags: MW
HStem: 274 69 360 69<174 270>
LayerCount: 2
Fore
SplineSet
91 285 m 1
 121 382 187 429 251 429 c 0
 289 429 327 415 359 390 c 0
 395 362 419 342 465 343 c 0
 504 344 548 366 574 420 c 1
 547 324 474 274 404 274 c 0
 367 274 330 287 301 308 c 0
 267 334 243 360 193 360 c 0
 155 360 122 340 91 285 c 1
EndSplineSet
EndChar

StartChar: less
Encoding: 60 60 147
Width: 490
Flags: MW
HStem: 97 21G<449 449> 558 20G<449 449>
LayerCount: 2
Fore
SplineSet
107 337 m 1
 449 578 l 1
 449 536 l 1
 172 337 l 1
 449 141 l 1
 449 97 l 1
 107 337 l 1
EndSplineSet
EndChar

StartChar: greater
Encoding: 62 62 148
Width: 490
Flags: MW
HStem: 97 21G<148 148> 558 20G<148 148>
LayerCount: 2
Fore
SplineSet
490 338 m 1
 148 97 l 1
 148 139 l 1
 425 338 l 1
 148 534 l 1
 148 578 l 1
 490 338 l 1
EndSplineSet
EndChar

StartChar: guilsinglleft
Encoding: 8249 8249 149
Width: 258
Flags: MW
HStem: 56 21G<241 241> 396 20G<331 331>
LayerCount: 2
Fore
SplineSet
193 236 m 1
 241 56 l 1
 88 236 l 1
 331 416 l 1
 193 236 l 1
EndSplineSet
EndChar

StartChar: guilsinglright
Encoding: 8250 8250 150
Width: 258
Flags: MW
HStem: 56 21G<43 43> 396 20G<133 133>
LayerCount: 2
Fore
SplineSet
43 56 m 1
 181 236 l 1
 133 416 l 1
 286 236 l 1
 43 56 l 1
EndSplineSet
EndChar

StartChar: quotesingle
Encoding: 39 39 151
Width: 203
Flags: MW
HStem: 372 21G 645 20G<249.5 283>
LayerCount: 2
Fore
SplineSet
266 665 m 0
 300 665 311 637 302 603 c 0
 287 543 244 482 193 372 c 1
 197 482 184 543 199 603 c 0
 208 637 233 665 266 665 c 0
EndSplineSet
EndChar

StartChar: quotedbl
Encoding: 34 34 152
Width: 346
Flags: MW
HStem: 372 21G 645 20G<247.5 281 393.5 427>
LayerCount: 2
Fore
SplineSet
264 665 m 0
 298 665 308 637 299 603 c 0
 284 543 243 482 192 372 c 1
 196 482 184 543 199 603 c 0
 208 637 231 665 264 665 c 0
410 665 m 0
 444 665 454 637 445 603 c 0
 430 543 389 482 338 372 c 1
 342 482 330 543 345 603 c 0
 354 637 377 665 410 665 c 0
EndSplineSet
EndChar

StartChar: paragraph
Encoding: 182 182 153
Width: 522
Flags: MW
HStem: -200 21G<215 250 215 215 341 377 341 341> 623 27<455 546 455 455 582 647 582 582>
LayerCount: 2
Fore
SplineSet
647 623 m 1
 582 623 l 1
 377 -200 l 1
 341 -200 l 1
 546 623 l 1
 455 623 l 1
 250 -200 l 1
 215 -200 l 1
 335 281 l 1
 205 278 112 331 146 467 c 0
 176 588 280 650 412 650 c 2
 654 650 l 1
 647 623 l 1
EndSplineSet
EndChar

StartChar: bullet
Encoding: 8226 8226 154
Width: 350
Flags: MW
HStem: 208 245<194.5 259.5>
VStem: 105 245<298.5 363.5 296.5 365.5>
LayerCount: 2
Fore
SplineSet
227 453 m 0
 295 453 350 396 350 331 c 0
 350 262 292 208 227 208 c 0
 158 208 105 266 105 331 c 0
 105 400 162 453 227 453 c 0
EndSplineSet
EndChar

StartChar: bracketleft
Encoding: 91 91 155
Width: 240
Flags: MW
HStem: -100 32<53 185> 718 32<249 389 249 249>
LayerCount: 2
Fore
SplineSet
5 -100 m 1
 216 750 l 1
 396 750 l 1
 389 718 l 1
 249 718 l 1
 53 -68 l 1
 193 -68 l 1
 185 -100 l 1
 5 -100 l 1
EndSplineSet
EndChar

StartChar: bracketright
Encoding: 93 93 156
Width: 240
Flags: MW
HStem: -100 32<13 153 13 185 5 153> 718 32<216 349 209 396>
LayerCount: 2
Fore
SplineSet
396 750 m 1
 185 -100 l 1
 5 -100 l 1
 13 -68 l 1
 153 -68 l 1
 349 718 l 1
 209 718 l 1
 216 750 l 1
 396 750 l 1
EndSplineSet
EndChar

StartChar: numbersign
Encoding: 35 35 157
Width: 504
Flags: MW
HStem: -10 250<69 96 56 169 266 306 266 266> 208 32<69 154 61 169 208 364 69 194 418 525> 418 32<142 250 134 265 304 460 142 289 514 598> 418 247<134 401 134 401 362 401 362 460 289 401 572 598 362 499>
LayerCount: 2
Fore
SplineSet
572 665 m 1x90
 611 665 l 1
 514 450 l 1
 606 450 l 1
 598 418 l 1
 499 418 l 1
 418 240 l 1x60
 533 240 l 1
 525 208 l 1xa0
 404 208 l 1
 306 -10 l 1x60
 266 -10 l 1
 364 208 l 1
 194 208 l 1
 96 -10 l 1
 56 -10 l 1
 154 208 l 1xa0
 61 208 l 1
 69 240 l 1x60
 169 240 l 1
 250 418 l 1xa0
 134 418 l 1
 142 450 l 1x90
 265 450 l 1
 362 665 l 1xa0
 401 665 l 1
 304 450 l 1
 475 450 l 1
 572 665 l 1x90
289 418 m 1x90
 208 240 l 1
 379 240 l 1
 460 418 l 1
 289 418 l 1x90
EndSplineSet
EndChar

StartChar: grave
Encoding: 96 96 158
Width: 246
Flags: MW
HStem: 461 21G<320 320> 630 20G<189 313 313 313>
LayerCount: 2
Fore
SplineSet
320 461 m 1
 189 650 l 1
 313 650 l 1
 320 461 l 1
EndSplineSet
EndChar

StartChar: asciicircum
Encoding: 94 94 159
Width: 441
Flags: MW
HStem: 383 21G<61 105 61 61 380 422 380 380> 645 20G<241 241>
LayerCount: 2
Fore
SplineSet
241 665 m 1
 422 383 l 1
 380 383 l 1
 241 598 l 1
 105 383 l 1
 61 383 l 1
 241 665 l 1
EndSplineSet
EndChar

StartChar: question
Encoding: 63 63 160
Width: 454
Flags: MW
HStem: -7 120<218.5 222> 638 27<343 386>
LayerCount: 2
Fore
SplineSet
233 174 m 1
 280 337 396 361 431 504 c 0
 451 587 418 638 354 638 c 0
 300 638 258 609 250 577 c 0
 244 552 277 546 272 509 c 0
 267 474 237 449 207 449 c 0
 179 449 154 470 167 521 c 0
 191 618 302 665 384 665 c 0
 498 665 561 606 537 508 c 0
 500 357 297 314 233 174 c 1
160 53 m 0
 167 87 202 113 235 113 c 0
 269 113 287 87 280 53 c 0
 272 20 239 -7 205 -7 c 0
 172 -7 152 20 160 53 c 0
EndSplineSet
EndChar

StartChar: zero
Encoding: 48 48 161
Width: 502
Flags: MW
HStem: -10 30<202 308 202 323.5> 635 30<356 462>
LayerCount: 2
Fore
SplineSet
111 328 m 0
 155 503 265 665 416 665 c 0
 567 665 597 503 553 328 c 0
 509 153 399 -10 248 -10 c 0
 97 -10 67 153 111 328 c 0
439 328 m 0
 467 442 515 635 409 635 c 0
 303 635 253 442 225 328 c 0
 197 214 149 20 255 20 c 0
 361 20 411 214 439 328 c 0
EndSplineSet
EndChar

StartChar: two
Encoding: 50 50 162
Width: 502
Flags: MW
HStem: 0 92<176 410> 578 87<362 388.5>
LayerCount: 2
Fore
SplineSet
412 92 m 1
 504 155 l 1
 410 0 l 1
 26 0 l 1
 282 232 l 2
 377 318 424 379 444 457 c 0
 464 539 420 578 357 578 c 0
 301 578 237 550 171 452 c 1
 224 598 312 665 412 665 c 0
 511 665 575 601 548 491 c 0
 531 424 478 364 356 256 c 2
 176 92 l 1
 412 92 l 1
EndSplineSet
EndChar

StartChar: three
Encoding: 51 51 163
Width: 502
Flags: MW
HStem: -10 41<202 256.5> -10 118<141 162 113.5 256.5> 588 77<372 395>
LayerCount: 2
Fore
SplineSet
192 498 m 1xa0
 249 607 325 665 419 665 c 0
 500 665 567 625 543 531 c 0
 529 474 484 428 412 386 c 1
 484 359 518 299 496 209 c 0
 462 74 323 -10 190 -10 c 0
 92 -10 60 23 70 60 c 0
 75 82 96 108 131 108 c 0x60
 193 108 164 31 240 31 c 0
 316 31 376 91 396 169 c 0
 422 276 369 335 276 335 c 2
 249 335 l 1
 344 363 424 414 442 484 c 0
 458 547 430 588 360 588 c 0
 304 588 245 561 192 498 c 1xa0
EndSplineSet
EndChar

StartChar: four
Encoding: 52 52 164
Width: 502
Flags: MW
HStem: 0 234<191 340 438 461 191 191> 175 59<153 325 438 476> 648 20G<546 546>
LayerCount: 2
Fore
SplineSet
392 51 m 1xa0
 461 0 l 1
 191 0 l 1
 294 51 l 1
 325 175 l 1
 57 175 l 1x60
 546 668 l 1
 438 234 l 1
 534 234 l 1
 476 175 l 1
 423 175 l 1
 392 51 l 1xa0
153 234 m 1
 340 234 l 1
 403 488 l 1xa0
 153 234 l 1
EndSplineSet
EndChar

StartChar: five
Encoding: 53 53 165
Width: 502
Flags: MW
HStem: -10 49<192 233.5> -10 118<124 145.5 102.5 233.5> 367 102 556 94<345 527 322 591>
LayerCount: 2
Fore
SplineSet
345 650 m 1xb0
 591 650 l 1
 527 556 l 1
 322 556 l 1
 263 469 l 1
 428 460 520 383 484 238 c 0x70
 445 84 303 -10 164 -10 c 0
 84 -10 43 14 54 59 c 0
 62 90 90 108 115 108 c 0
 176 108 157 39 227 39 c 0
 305 39 387 104 407 184 c 0
 448 346 283 372 156 367 c 1
 345 650 l 1xb0
EndSplineSet
EndChar

StartChar: six
Encoding: 54 54 166
Width: 502
Flags: MW
HStem: -10 30<225.5 294 225.5 312> 375 43<355 380>
LayerCount: 2
Fore
SplineSet
387 418 m 0
 498 418 539 325 513 223 c 0
 483 103 377 -10 247 -10 c 0
 107 -10 75 126 109 263 c 0
 167 495 347 676 584 664 c 1
 402 629 293 502 238 341 c 1
 270 382 323 418 387 418 c 0
268 20 m 0
 320 20 374 71 401 180 c 0
 427 283 422 375 338 375 c 0
 307 375 274 366 237 338 c 1
 226 306 217 272 211 238 c 0
 196 164 183 20 268 20 c 0
EndSplineSet
EndChar

StartChar: seven
Encoding: 55 55 167
Width: 502
Flags: MW
HStem: -10 21G<147 200 147 147> 555 95<246 493 246 246>
LayerCount: 2
Fore
SplineSet
151 474 m 1
 245 650 l 1
 606 650 l 1
 200 -10 l 1
 147 -10 l 1
 493 555 l 1
 246 555 l 1
 151 474 l 1
EndSplineSet
EndChar

StartChar: eight
Encoding: 56 56 168
Width: 502
Flags: MW
HStem: -10 30<224 295 224 295.5> 635 30<372.5 438>
LayerCount: 2
Fore
SplineSet
263 322 m 1
 230 355 213 380 201 405 c 0
 190 429 179 458 190 501 c 0
 216 608 315 665 412 665 c 0
 499 665 580 617 558 529 c 0
 540 455 467 407 387 368 c 1
 425 331 447 307 463 284 c 0
 484 252 498 212 485 160 c 0
 456 43 347 -10 244 -10 c 0
 145 -10 66 41 92 143 c 0
 109 212 158 263 263 322 c 1
302 454 m 2
 368 387 l 1
 434 435 467 469 482 527 c 0
 496 588 470 635 406 635 c 0
 339 635 286 593 274 544 c 0
 265 508 275 481 302 454 c 2
282 304 m 1
 222 259 188 210 175 153 c 0
 154 72 187 20 261 20 c 0
 329 20 385 56 399 111 c 0
 407 143 395 167 385 184 c 0
 367 216 338 248 282 304 c 1
EndSplineSet
EndChar

StartChar: nine
Encoding: 57 57 169
Width: 502
Flags: MW
HStem: 237 43<284 309.5> 635 30<369.5 439>
LayerCount: 2
Fore
SplineSet
278 237 m 0
 167 237 126 330 151 432 c 0
 182 552 287 665 417 665 c 0
 557 665 589 529 555 392 c 0
 497 160 317 -21 80 -9 c 1
 262 26 370 153 425 313 c 1
 393 273 341 237 278 237 c 0
396 635 m 0
 343 635 290 584 263 475 c 0
 237 372 242 280 326 280 c 0
 355 280 390 288 427 316 c 1
 438 349 446 382 453 417 c 0
 468 491 482 635 396 635 c 0
EndSplineSet
EndChar

StartChar: W
Encoding: 87 87 170
Width: 981
Flags: MW
HStem: -15 21G<322 322 671 671> 630 20G<158 428 428 428 505 775 775 775 939 1146 1146 1146>
LayerCount: 2
Fore
SplineSet
1146 650 m 1
 1041 588 l 1
 671 -15 l 1
 606 436 l 1
 322 -15 l 1
 234 594 l 1
 158 650 l 1
 428 650 l 1
 351 604 l 1
 405 180 l 1
 599 487 l 1
 582 594 l 1
 505 650 l 1
 775 650 l 1
 699 604 l 1
 752 180 l 1
 1005 594 l 1
 939 650 l 1
 1146 650 l 1
EndSplineSet
EndChar

StartChar: afii10071
Encoding: 1105 1105 171
Width: 441
Flags: MW
HStem: -10 21G<144 261> 255 30 430 30<279.5 323> 540 120<255 258 431 434>
LayerCount: 2
Fore
SplineSet
327 460 m 0
 416 460 463 420 456 357 c 0
 447 277 352 264 275 259 c 2
 166 252 l 1
 164 238 161 224 160 209 c 0
 153 95 215 59 283 65 c 0
 341 71 393 115 428 189 c 1
 395 70 317 -10 205 -10 c 0
 83 -10 35 95 67 225 c 0
 99 355 205 460 327 460 c 0
174 279 m 1
 258 285 l 2
 323 289 355 317 359 357 c 0
 366 408 338 430 308 430 c 0
 251 430 197 362 174 279 c 1
197 599 m 0
 205 633 238 660 272 660 c 0
 306 660 325 633 317 599 c 0
 308 566 275 540 241 540 c 0
 208 540 188 566 197 599 c 0
373 599 m 0
 381 633 414 660 448 660 c 0
 482 660 501 633 493 599 c 0
 484 566 451 540 417 540 c 0
 384 540 364 566 373 599 c 0
EndSplineSet
EndChar

StartChar: afii10023
Encoding: 1025 1025 172
Width: 596
Flags: MW
HStem: 0 35<231 458 231 560> 320 35<309 416 301 423> 615 35<373 591 373 373> 728 120<382 385 588 591>
LayerCount: 2
Fore
SplineSet
27 0 m 1
 122 51 l 1
 258 599 l 1
 185 650 l 1
 703 650 l 1
 649 430 l 1
 591 615 l 1
 373 615 l 1
 309 355 l 1
 423 355 l 1
 524 458 l 1
 464 218 l 1
 416 320 l 1
 301 320 l 1
 231 35 l 1
 458 35 l 1
 614 220 l 1
 560 0 l 1
 27 0 l 1
324 787 m 0
 332 821 365 848 399 848 c 0
 433 848 452 821 444 787 c 0
 435 754 402 728 368 728 c 0
 335 728 315 754 324 787 c 0
530 787 m 0
 538 821 571 848 605 848 c 0
 639 848 658 821 650 787 c 0
 641 754 608 728 574 728 c 0
 541 728 521 754 530 787 c 0
EndSplineSet
EndChar

StartChar: dollar
Encoding: 36 36 173
Width: 502
Flags: MW
HStem: -100 21G<194 234 194 194> -10 32<256 273 256 273> 633 32<376 384> 730 20G<405 445 445 445>
LayerCount: 2
Fore
SplineSet
405 750 m 1
 445 750 l 1
 424 664 l 1
 454 657 498 642 510 624 c 1
 586 665 l 1
 520 400 l 1
 515 527 504 621 416 631 c 1
 357 396 l 1
 414 371 l 2
 481 342 526 280 499 173 c 0
 476 80 398 -10 258 -10 c 2
 256 -10 l 1
 234 -100 l 1
 194 -100 l 1
 216 -10 l 1
 185 -3 147 7 129 37 c 1
 47 -10 l 1
 113 255 l 1
 118 134 144 42 225 25 c 1
 287 277 l 1
 230 304 l 2
 162 336 146 396 167 480 c 0
 198 605 305 662 384 665 c 1
 405 750 l 1
345 253 m 2
 324 262 l 1
 264 22 l 1
 273 22 l 2
 333 22 400 58 420 138 c 0
 437 208 384 236 345 253 c 2
238 522 m 0
 225 468 240 444 294 421 c 2
 321 410 l 1
 376 633 l 1
 327 630 258 600 238 522 c 0
EndSplineSet
EndChar

StartChar: uni00AD
Encoding: 173 173 174
Width: 490
Flags: MW
HStem: 320 32<144 512 152 504>
LayerCount: 2
Fore
SplineSet
144 320 m 1
 152 352 l 1
 512 352 l 1
 504 320 l 1
 144 320 l 1
EndSplineSet
EndChar

StartChar: copyright
Encoding: 169 169 175
Width: 560
Flags: MW
HStem: -10 30<253.5 366.5 253.5 375> 274 115<273.5 399.5> 430 30<253.5 366.5>
VStem: 75 30<168.5 281.5 168.5 290> 358 77 515 30<168.5 281.5>
LayerCount: 2
Fore
SplineSet
75 225 m 0
 75 355 180 460 310 460 c 0
 440 460 545 355 545 225 c 0
 545 95 440 -10 310 -10 c 0
 180 -10 75 95 75 225 c 0
105 225 m 0
 105 112 197 20 310 20 c 0
 423 20 515 112 515 225 c 0
 515 338 423 430 310 430 c 0
 197 430 105 338 105 225 c 0
232 214 m 0
 247 136 304 109 349 116 c 0
 382 122 416 148 435 195 c 1
 431 113 379 60 308 60 c 0
 218 60 166 134 166 225 c 0
 166 316 232 389 315 389 c 0
 385 389 426 352 426 311 c 0
 426 286 408 274 391 274 c 0
 368 274 358 293 358 312 c 0
 358 352 339 374 302 368 c 0
 254 360 217 294 232 214 c 0
EndSplineSet
EndChar

StartChar: registered
Encoding: 174 174 176
Width: 560
Flags: MW
HStem: -10 30<284 335.5 284 375> 71 156<273 297 297 312 273 322 175 297 273 445 273 394> 360 100<273 273 273 296> 430 30<283.5 366.5>
VStem: 75 30<195.5 254 195.5 290> 213 60<101 210 101 227 227 347 347 347> 358 67<273 321.5> 515 30<198.5 281.5>
LayerCount: 2
Fore
SplineSet
75 225 m 0xdf
 75 355 180 460 310 460 c 0
 440 460 545 355 545 225 c 0
 545 95 440 -10 310 -10 c 0
 180 -10 75 95 75 225 c 0xdf
314 377 m 2
 375 377 425 358 425 297 c 0
 425 249 390 220 333 215 c 1
 369 211 390 188 404 167 c 2
 447 101 l 1
 463 89 l 1
 495 124 515 172 515 225 c 0
 515 338 423 430 310 430 c 0
 257 430 209 410 172 377 c 1
 314 377 l 2
105 225 m 0
 105 166 130 112 170 75 c 1
 213 101 l 1
 213 347 l 1
 169 373 l 1
 129 336 105 283 105 225 c 0
310 20 m 0
 361 20 409 39 445 71 c 1
 394 71 l 1
 336 172 l 2
 321 198 303 210 278 210 c 2
 273 210 l 1
 273 101 l 1
 322 71 l 1
 175 71 l 1
 211 39 258 20 310 20 c 0
273 360 m 1xef
 273 227 l 1
 297 227 l 2
 327 227 358 249 358 297 c 0
 358 346 326 360 296 360 c 2
 273 360 l 1xef
EndSplineSet
EndChar

StartChar: degree
Encoding: 176 176 177
Width: 305
Flags: MW
HStem: 460 29<262 302 262 310.5> 636 29<262 302>
VStem: 180 29<542 582 542 590.5> 356 29<542 582>
LayerCount: 2
Fore
SplineSet
180 562 m 0
 180 619 225 665 282 665 c 0
 339 665 385 619 385 562 c 0
 385 505 339 460 282 460 c 0
 225 460 180 505 180 562 c 0
209 562 m 0
 209 522 242 489 282 489 c 0
 322 489 356 522 356 562 c 0
 356 602 322 636 282 636 c 0
 242 636 209 602 209 562 c 0
EndSplineSet
EndChar

StartChar: asterisk
Encoding: 42 42 178
Width: 420
Flags: MW
HStem: 489 186<286 286>
VStem: 240 93<609.5 637>
LayerCount: 2
Fore
SplineSet
286 675 m 0
 324 675 333 646 333 628 c 0
 333 591 309 572 286 489 c 1
 264 572 240 591 240 628 c 0
 240 646 249 675 286 675 c 0
109 546 m 0
 121 583 151 582 168 576 c 0
 204 565 214 536 286 489 c 1
 200 494 175 476 140 488 c 0
 122 493 98 511 109 546 c 0
463 546 m 0
 474 510 450 492 432 487 c 0
 397 475 372 493 286 489 c 1
 358 535 369 564 404 575 c 0
 421 581 451 582 463 546 c 0
176 338 m 0
 145 361 155 388 166 404 c 0
 188 433 219 435 286 489 c 1
 255 409 263 379 241 349 c 0
 230 334 206 316 176 338 c 0
396 338 m 0
 365 316 340 334 330 349 c 0
 308 379 316 409 286 489 c 1
 352 435 383 433 405 404 c 0
 415 388 425 361 396 338 c 0
EndSplineSet
EndChar

StartChar: section
Encoding: 167 167 179
Width: 402
Flags: MW
HStem: -10 30<179.5 242.5 179.5 246.5> -10 159<107 246.5> 509 156<308.5 449> 635 30<318.5 380>
LayerCount: 2
Fore
SplineSet
436 509 m 0xa0
 400 509 393 538 399 560 c 0
 412 610 418 635 342 635 c 0
 295 635 246 614 235 572 c 0
 224 527 244 516 290 500 c 2
 379 468 l 2
 448 443 460 396 446 340 c 0
 437 304 407 263 362 242 c 1
 400 217 413 177 399 122 c 0
 380 46 298 -10 195 -10 c 0
 85 -10 42 41 57 99 c 0
 65 130 94 149 120 149 c 0
 156 149 160 120 155 98 c 0
 142 48 140 20 219 20 c 0
 266 20 321 41 332 83 c 0
 343 128 319 147 274 163 c 2
 185 194 l 2
 116 219 104 267 118 323 c 0
 127 358 156 400 202 421 c 1x50
 163 446 154 477 168 533 c 0
 187 609 262 665 355 665 c 0
 472 665 512 617 497 559 c 0
 490 528 462 509 436 509 c 0xa0
320 263 m 0xa0
 335 256 349 250 360 243 c 1
 371 289 l 2
 390 363 304 375 244 400 c 0
 228 406 215 413 204 420 c 1
 193 374 l 2
 174 300 260 288 320 263 c 0xa0
EndSplineSet
EndChar

StartChar: percent
Encoding: 65537 -1 180
Width: 700
Flags: MW
HStem: -10 25<514 569.5 514 573> 302 25<586 641.5> 328 25<222.5 277.5 222.5 280> 640 25<293.5 348.5>
LayerCount: 2
Fore
SplineSet
699 665 m 1
 751 665 l 1
 164 -10 l 1
 111 -10 l 1
 699 665 l 1
153 497 m 0
 181 606 253 665 327 665 c 0
 401 665 445 606 417 497 c 0
 390 388 317 328 243 328 c 0
 169 328 126 388 153 497 c 0
340 497 m 0
 352 543 376 640 321 640 c 0
 266 640 242 543 230 497 c 0
 219 450 195 353 250 353 c 0
 305 353 329 450 340 497 c 0
445 159 m 0
 473 268 546 327 620 327 c 0
 694 327 737 268 709 159 c 0
 682 50 610 -10 536 -10 c 0
 462 -10 418 50 445 159 c 0
632 159 m 0
 644 205 669 302 614 302 c 0
 558 302 534 205 522 159 c 0
 510 112 486 15 542 15 c 0
 597 15 620 112 632 159 c 0
EndSplineSet
EndChar

StartChar: perthousand
Encoding: 8240 8240 181
Width: 1019
Flags: MW
HStem: -10 25<514 569.5 514 573 833 888.5> 302 25<586 641.5 905 960.5> 328 25<222.5 277.5 222.5 280> 640 25<293.5 348.5>
LayerCount: 2
Fore
SplineSet
699 665 m 1
 751 665 l 1
 164 -10 l 1
 111 -10 l 1
 699 665 l 1
153 497 m 0
 181 606 253 665 327 665 c 0
 401 665 445 606 417 497 c 0
 390 388 317 328 243 328 c 0
 169 328 126 388 153 497 c 0
340 497 m 0
 352 543 376 640 321 640 c 0
 266 640 242 543 230 497 c 0
 219 450 195 353 250 353 c 0
 305 353 329 450 340 497 c 0
445 159 m 0
 473 268 546 327 620 327 c 0
 694 327 737 268 709 159 c 0
 682 50 610 -10 536 -10 c 0
 462 -10 418 50 445 159 c 0
632 159 m 0
 644 205 669 302 614 302 c 0
 558 302 534 205 522 159 c 0
 510 112 486 15 542 15 c 0
 597 15 620 112 632 159 c 0
764 159 m 0
 792 268 865 327 939 327 c 0
 1013 327 1056 268 1028 159 c 0
 1001 50 929 -10 855 -10 c 0
 781 -10 737 50 764 159 c 0
951 159 m 0
 963 205 988 302 933 302 c 0
 877 302 853 205 841 159 c 0
 829 112 805 15 861 15 c 0
 916 15 939 112 951 159 c 0
EndSplineSet
EndChar

StartChar: dagger
Encoding: 8224 8224 182
Width: 403
Flags: MW
HStem: 245 21G<284 312.5> 599 20G
LayerCount: 2
Fore
SplineSet
365 511 m 1
 364 481 372 434 365 380 c 0
 359 333 352 294 345 278 c 0
 339 267 326 245 299 245 c 0
 269 245 266 268 264 279 c 0
 260 289 259 309 258 333 c 1
 296 388 339 469 365 511 c 1
300 399 m 1
 287 423 285 450 285 470 c 0
 285 498 287 521 298 549 c 0
 307 572 324 607 356 619 c 1
 381 611 380 581 378 563 c 0
 372 507 357 457 300 399 c 1
272 493 m 1
 316 516 347 530 365 535 c 0
 377 538 387 539 400 537 c 0
 414 533 441 524 443 493 c 1
 426 462 395 453 378 450 c 0
 363 448 352 449 340 453 c 0
 325 460 301 472 272 493 c 1
351 533 m 1
 286 510 266 483 228 464 c 1
 215 482 189 497 198 533 c 0
 205 562 231 574 248 577 c 0
 255 578 262 578 269 577 c 0
 298 572 308 547 351 533 c 1
EndSplineSet
EndChar

StartChar: daggerdbl
Encoding: 8225 8225 183
Width: 389
Flags: MW
HStem: 161 229<166.5 253.5> 296 94<142.5 190.5> 447 94<179.5 228.5> 447 228<179.5 382>
LayerCount: 2
Fore
SplineSet
398 629 m 0x90
 390 596 363 574 326 511 c 1
 322 495 l 1
 398 515 411 540 447 540 c 0
 460 540 491 532 482 493 c 0
 472 453 436 446 423 446 c 0
 388 446 386 469 321 491 c 1
 285 344 l 1
 360 365 374 389 410 389 c 0
 423 389 453 382 444 343 c 0
 434 303 399 295 386 295 c 0
 351 295 348 319 284 340 c 1
 280 324 l 1
 284 261 300 240 292 207 c 0
 289 194 273 161 234 161 c 0xa0
 194 161 195 194 198 207 c 0
 207 240 234 261 270 325 c 1
 274 341 l 1
 198 320 184 296 149 296 c 0
 136 296 105 304 115 343 c 0
 125 383 160 390 173 390 c 0
 208 390 210 366 275 344 c 1
 312 492 l 1
 236 471 221 447 186 447 c 0
 173 447 143 454 153 493 c 0
 162 533 198 541 211 541 c 0x60
 246 541 247 516 312 495 c 1
 316 511 l 1
 313 575 296 596 304 629 c 0
 307 642 323 675 362 675 c 0
 402 675 401 642 398 629 c 0x90
EndSplineSet
EndChar

StartChar: braceleft
Encoding: 123 123 184
Width: 306
Flags: W
LayerCount: 2
Fore
SplineSet
114 339 m 1
 169 342 214 383 221 443 c 2
 239 607 l 2
 253 731 343 766 462 750 c 1
 397 743 351 719 340 611 c 2
 326 481 l 2
 316 368 198 341 146 339 c 1
 197 336 301 309 256 197 c 2
 204 67 l 2
 162 -41 195 -65 258 -72 c 1
 131 -88 57 -53 105 71 c 2
 169 235 l 2
 192 295 167 336 114 339 c 1
EndSplineSet
EndChar

StartChar: braceright
Encoding: 125 125 185
Width: 306
Flags: W
LayerCount: 2
Fore
SplineSet
360 339 m 1
 305 336 260 295 253 235 c 2
 235 71 l 2
 221 -53 131 -88 12 -72 c 1
 77 -65 122 -41 134 67 c 2
 148 197 l 2
 157 309 276 336 327 339 c 1
 276 341 173 368 218 481 c 2
 270 611 l 2
 313 719 279 743 216 750 c 1
 343 766 417 731 369 607 c 2
 305 443 l 2
 282 383 307 342 360 339 c 1
EndSplineSet
EndChar

StartChar: Euro
Encoding: 8364 8364 186
Width: 502
Flags: MW
HStem: -10 63<305 343.5> 268 32<74 132 66 137 264 410> 378 32<94 170 102 158 293 438> 632 33<430.5 479.5 395.5 503.5>
LayerCount: 2
Fore
SplineSet
94 378 m 1
 102 410 l 1
 170 410 l 1
 227 558 330 665 461 665 c 0
 498 665 523 655 541 643 c 1
 609 665 l 1
 548 420 l 1
 537 542 540 632 467 632 c 0
 394 632 336 542 293 410 c 1
 446 410 l 1
 438 378 l 1
 283 378 l 1
 278 362 274 346 271 330 c 0
 268 319 266 310 264 300 c 1
 418 300 l 1
 410 268 l 1
 257 268 l 1
 237 137 265 53 345 53 c 0
 411 53 456 101 503 180 c 1
 466 72 394 -10 293 -10 c 0
 155 -10 107 107 132 268 c 1
 66 268 l 1
 74 300 l 1
 137 300 l 1
 139 309 141 318 144 327 c 0
 148 344 153 361 158 378 c 1
 94 378 l 1
EndSplineSet
EndChar

StartChar: trademark
Encoding: 8482 8482 187
Width: 622
Flags: MW
HStem: 394 21G<501 501> 400 250<192 326 185 514 342 442 342 342 192 566 650 691> 630 20<231 284 231 231 343 414 343 343>
LayerCount: 2
Fore
SplineSet
342 400 m 1x40
 385 428 l 1
 432 615 l 1
 414 630 l 1
 343 630 l 1xa0
 292 426 l 1
 326 400 l 1
 185 400 l 1x40
 233 426 l 1
 284 630 l 1
 231 630 l 1xa0
 171 569 l 1
 192 650 l 1
 514 650 l 1
 544 493 l 1
 650 650 l 1
 754 650 l 1
 715 629 l 1
 664 422 l 1
 691 400 l 1
 566 400 l 1x40
 605 422 l 1
 654 618 l 1
 501 394 l 1xa0
 458 608 l 1
 413 428 l 1
 442 400 l 1
 342 400 l 1x40
EndSplineSet
EndChar

StartChar: afii61352
Encoding: 8470 8470 188
Width: 944
Flags: MW
HStem: -20 20G<30 269 30 30> -15 21G<568 568> 188 85<822.5 877.5 822.5 960 822.5 960> 248 25<822.5 877.5 822.5 880> 560 25<893.5 948.5> 560 90
LayerCount: 2
Fore
SplineSet
753 417 m 0x64
 781 526 853 585 927 585 c 0
 1001 585 1045 526 1017 417 c 0
 990 308 917 248 843 248 c 0
 769 248 726 308 753 417 c 0x64
940 417 m 0
 952 463 976 560 921 560 c 0
 866 560 842 463 830 417 c 0
 819 370 795 273 850 273 c 0
 905 273 929 370 940 417 c 0
688 156 m 1
 696 188 l 1
 960 188 l 1xa8
 952 156 l 1
 688 156 l 1
184 63 m 1
 269 0 l 1
 30 0 l 1
 135 63 l 1
 264 578 l 1
 192 650 l 1
 374 650 l 1
 581 237 l 1
 669 587 l 1
 595 650 l 1
 824 650 l 1
 718 587 l 1x58
 568 -15 l 1
 299 523 l 1
 184 63 l 1
EndSplineSet
EndChar

StartChar: ampersand
Encoding: 38 38 189
Width: 635
Flags: MW
HStem: -10 65<465 565> 635 30<407.5 462>
LayerCount: 2
Fore
SplineSet
632 106 m 1
 601 35 550 -10 493 -10 c 0
 437 -10 410 21 391 57 c 1
 335 16 273 -10 201 -10 c 0
 108 -10 43 54 67 152 c 0
 92 252 177 309 264 349 c 1
 258 362 253 377 247 391 c 0
 233 424 218 463 234 528 c 0
 254 610 343 665 443 665 c 0
 543 665 597 623 577 542 c 0
 561 477 496 446 378 376 c 1
 408 305 438 234 468 164 c 1
 497 194 524 230 551 272 c 1
 532 296 511 319 492 343 c 1
 690 343 l 1
 651 318 613 294 574 269 c 1
 547 227 514 181 478 140 c 1
 497 94 515 55 549 55 c 0
 581 55 610 74 632 106 c 1
269 62 m 0
 305 62 341 72 376 91 c 1
 342 166 311 242 278 318 c 1
 223 283 193 241 181 189 c 0
 161 107 204 62 269 62 c 0
341 546 m 0
 331 505 340 471 367 402 c 1
 435 440 466 488 478 538 c 0
 489 584 489 635 435 635 c 0
 380 635 349 578 341 546 c 0
EndSplineSet
EndChar

StartChar: at
Encoding: 64 64 190
Width: 530
Flags: MW
HStem: -10 30<238.5 319.5 238.5 322.5> 84 30<393 430.5 393 433> 84 43<241.5 245.5> 430 30<243.5 361.5>
VStem: 65 30<168.5 281.5 168.5 290> 495 30<203.5 291.5>
LayerCount: 2
Fore
SplineSet
95 225 m 0xdc
 95 112 177 20 300 20 c 0
 339 20 376 31 407 50 c 1
 423 25 l 1
 387 3 345 -10 300 -10 c 0
 160 -10 65 95 65 225 c 0
 65 355 170 460 300 460 c 0
 440 460 525 365 525 235 c 0
 525 163 479 84 387 84 c 0
 351 84 329 106 325 134 c 1
 323 136 l 1
 299 105 263 84 228 84 c 0
 161 84 130 140 152 224 c 0
 175 312 246 369 321 369 c 0
 345 369 369 358 378 339 c 1
 440 366 l 1
 389 171 l 2
 380 135 383 114 403 114 c 0
 458 114 495 172 495 235 c 0
 495 348 423 430 300 430 c 0
 187 430 95 338 95 225 c 0xdc
222 218 m 0
 208 161 224 127 259 127 c 0xbc
 279 127 302 137 321 155 c 1
 357 292 l 2
 367 333 342 346 313 343 c 0
 265 338 236 288 222 218 c 0
EndSplineSet
EndChar

StartChar: afii10103
Encoding: 1110 1110 191
Width: 281
Flags: MW
HStem: -10 21G<101 147.5> 540 120<251 254>
LayerCount: 2
Fore
SplineSet
193 599 m 0
 200 633 234 660 268 660 c 0
 302 660 320 633 313 599 c 0
 304 566 271 540 237 540 c 0
 204 540 184 566 193 599 c 0
78 57 m 2
 159 383 l 1
 89 405 l 1
 273 460 l 1
 172 47 l 1
 274 92 l 1
 243 58 177 -10 118 -10 c 0
 84 -10 67 12 78 57 c 2
EndSplineSet
EndChar

StartChar: afii10055
Encoding: 1030 1030 192
Width: 334
Flags: MW
HStem: 0 21G<27 307 27 27> 630 20G<185 465 465 465>
LayerCount: 2
Fore
SplineSet
465 650 m 1
 370 599 l 1
 234 51 l 1
 307 0 l 1
 27 0 l 1
 122 51 l 1
 258 599 l 1
 185 650 l 1
 465 650 l 1
EndSplineSet
EndChar

StartChar: afii10102
Encoding: 1109 1109 193
Width: 413
Flags: MW
HStem: -10 32<179.5 224 171 240> 428 32<247.5 294.5 231 298.5>
LayerCount: 2
Fore
SplineSet
362 436 m 1
 419 460 l 1
 375 288 l 1
 363 394 324 428 273 428 c 0
 222 428 187 405 181 364 c 0
 174 326 196 307 240 285 c 2
 294 258 l 2
 354 229 380 180 368 112 c 0
 352 32 280 -10 200 -10 c 0
 159 -10 124 4 103 21 c 1
 34 -10 l 1
 76 164 l 1
 94 62 139 22 203 22 c 0
 245 22 278 44 286 85 c 0
 297 142 252 166 196 189 c 0
 125 217 96 256 108 328 c 0
 122 408 188 460 274 460 c 0
 315 460 348 447 362 436 c 1
EndSplineSet
EndChar

StartChar: afii10054
Encoding: 1029 1029 194
Width: 543
Flags: MW
HStem: -10 32<267.5 351 249 374.5> 633 32<381.5 452.5 372 464>
LayerCount: 2
Fore
SplineSet
633 665 m 1
 575 430 l 1
 559 560 513 633 415 633 c 0
 348 633 268 598 251 530 c 0
 238 479 272 454 323 430 c 2
 466 362 l 2
 527 334 582 287 554 173 c 0
 532 83 446 -10 303 -10 c 0
 232 -10 175 20 154 53 c 1
 58 -10 l 1
 122 249 l 1
 140 116 187 22 311 22 c 0
 391 22 456 64 473 132 c 0
 490 199 438 227 401 245 c 2
 260 313 l 2
 196 343 155 393 176 477 c 0
 208 608 322 665 422 665 c 0
 483 665 526 644 550 621 c 1
 633 665 l 1
EndSplineSet
EndChar

StartChar: afii10105
Encoding: 1112 1112 195
Width: 280
Flags: MW
HStem: -210 29<-18 18 -18 26> 540 120<273 276>
LayerCount: 2
Fore
SplineSet
111 405 m 1
 181 383 l 1
 89 13 l 2
 59 -111 43 -181 -7 -181 c 0
 -29 -181 -28 -161 -21 -135 c 0
 -13 -104 -22 -75 -57 -75 c 0
 -92 -75 -114 -99 -119 -136 c 0
 -125 -189 -83 -210 -26 -210 c 0
 78 -210 152 -123 185 13 c 2
 295 460 l 1
 111 405 l 1
215 599 m 0
 222 633 256 660 290 660 c 0
 324 660 342 633 335 599 c 0
 326 566 293 540 259 540 c 0
 226 540 206 566 215 599 c 0
EndSplineSet
EndChar

StartChar: afii10104
Encoding: 1111 1111 196
Width: 281
Flags: MW
HStem: -10 21G<101 147.5> 540 120<161 164 327 330>
LayerCount: 2
Fore
SplineSet
103 599 m 0
 110 633 144 660 178 660 c 0
 212 660 230 633 223 599 c 0
 214 566 181 540 147 540 c 0
 114 540 94 566 103 599 c 0
78 57 m 2
 159 383 l 1
 89 405 l 1
 273 460 l 1
 172 47 l 1
 274 92 l 1
 243 58 177 -10 118 -10 c 0
 84 -10 67 12 78 57 c 2
269 599 m 0
 276 633 310 660 344 660 c 0
 378 660 396 633 389 599 c 0
 380 566 347 540 313 540 c 0
 280 540 260 566 269 599 c 0
EndSplineSet
EndChar

StartChar: afii10110
Encoding: 1118 1118 197
Width: 444
Flags: MW
HStem: -211 112<15 44.5 13 51.5> 440 20G<214 214 393.5 433.5> 509 21<325.5 355 325.5 364.5> 509 139<270.5 364.5>
LayerCount: 2
Fore
SplineSet
128 -96 m 2xd0
 208 23 l 1
 125 385 l 1
 99 391 72 398 46 405 c 1
 101 423 158 442 214 460 c 1
 282 130 l 1
 319 185 354 239 379 294 c 0
 407 355 347 357 350 406 c 0
 352 438 378 460 409 460 c 0
 458 460 485 409 444 332 c 0
 396 245 338 157 280 70 c 2
 166 -101 l 2
 107 -190 72 -211 31 -211 c 0
 -1 -211 -28 -191 -26 -152 c 0
 -24 -121 -2 -99 28 -99 c 0
 61 -99 59 -129 84 -130 c 0
 95 -131 108 -126 128 -96 c 2xd0
290 648 m 0
 316 648 330 633 324 608 c 0
 318 580 293 575 295 557 c 0
 296 540 311 530 340 530 c 0xe0
 370 530 389 540 398 557 c 0
 407 575 387 580 393 608 c 0
 399 633 423 648 449 648 c 0
 488 648 495 619 489 596 c 0
 473 530 395 509 334 509 c 0
 273 509 209 530 224 596 c 0
 230 620 251 648 290 648 c 0
EndSplineSet
EndChar

StartChar: afii10062
Encoding: 1038 1038 198
Width: 652
Flags: MW
HStem: -10 85<193 289> -10 133<209 240.5> 714 24<518 552.5 518 572.5> 714 152<438 572.5>
LayerCount: 2
Fore
SplineSet
807 650 m 1xa0
 708 591 l 1
 341 75 l 2x90
 299 16 265 -10 216 -10 c 0
 170 -10 140 16 150 60 c 0
 160 101 193 123 225 123 c 0x60
 275 123 255 75 282 75 c 0
 296 75 307 85 318 101 c 2
 370 173 l 1
 231 602 l 1
 168 650 l 1
 418 650 l 1
 348 609 l 1
 454 293 l 1
 670 595 l 1
 607 650 l 1
 807 650 l 1xa0
459 866 m 0
 488 866 509 847 502 819 c 0
 493 788 470 782 470 764 c 0
 471 747 501 738 535 738 c 0xa0
 570 738 602 747 612 764 c 0
 624 782 601 788 610 819 c 0
 617 847 645 866 678 866 c 0
 720 866 728 836 721 808 c 0
 705 742 616 714 529 714 c 0
 442 714 369 742 385 808 c 0
 392 836 417 866 459 866 c 0
EndSplineSet
EndChar

StartChar: afii10101
Encoding: 1108 1108 199
Width: 432
Flags: MW
HStem: -10 21G<148.5 259> 228 32<168 304 162 312> 297 163<366.5 372 266.5 397.5> 430 30<280.5 333>
LayerCount: 2
Fore
SplineSet
161 209 m 0xd0
 155 92 215 59 281 65 c 0
 337 71 393 115 427 189 c 1
 391 60 310 -10 208 -10 c 0
 89 -10 34 92 67 225 c 0
 100 358 206 460 327 460 c 0
 417 460 459 410 446 351 c 0
 440 320 412 297 383 297 c 0xe0
 350 297 345 326 350 348 c 0
 364 406 355 430 311 430 c 0
 250 430 189 356 168 260 c 1
 312 260 l 1
 304 228 l 1
 162 228 l 1
 161 221 161 215 161 209 c 0xd0
EndSplineSet
EndChar

StartChar: afii10056
Encoding: 1031 1031 200
Width: 334
Flags: MW
HStem: 0 21G<27 307 27 27> 740 120<278 281 444 447>
LayerCount: 2
Fore
SplineSet
465 650 m 1
 370 599 l 1
 234 51 l 1
 307 0 l 1
 27 0 l 1
 122 51 l 1
 258 599 l 1
 185 650 l 1
 465 650 l 1
220 799 m 0
 227 833 261 860 295 860 c 0
 329 860 347 833 340 799 c 0
 331 766 298 740 264 740 c 0
 231 740 211 766 220 799 c 0
386 799 m 0
 393 833 427 860 461 860 c 0
 495 860 513 833 506 799 c 0
 497 766 464 740 430 740 c 0
 397 740 377 766 386 799 c 0
EndSplineSet
EndChar

StartChar: afii10061
Encoding: 1036 1036 201
Width: 694
Flags: MW
HStem: 0 21G<27 307 27 27 484 670 484 484> 320 35<309 350 301 370> 530 135<667.5 700> 582 83<619.5 715> 665 225<516 715>
LayerCount: 2
Fore
SplineSet
465 650 m 1xc8
 370 599 l 1
 309 355 l 1
 370 355 l 2
 421 357 456 394 495 459 c 2
 567 582 l 2
 605 644 643 665 692 665 c 0
 738 665 773 642 760 596 c 0
 750 551 716 530 684 530 c 0
 631 530 652 582 626 582 c 0
 613 582 605 574 594 557 c 2
 522 438 l 2
 487 382 458 357 426 343 c 1
 490 336 545 295 569 184 c 2
 599 51 l 1
 670 0 l 1xd0
 484 0 l 1xe0
 446 205 l 2
 430 292 395 320 350 320 c 2
 301 320 l 1xd0
 234 51 l 1
 307 0 l 1
 27 0 l 1
 122 51 l 1
 258 599 l 1
 185 650 l 1
 465 650 l 1xc8
468 701 m 1
 516 890 l 1
 640 890 l 1
 468 701 l 1
EndSplineSet
EndChar

StartChar: afii10052
Encoding: 1027 1027 202
Width: 574
Flags: MW
HStem: 0 21G<27 327 27 27> 615 35<373 584 373 373> 650 240<483 607 483 702 483 702>
LayerCount: 2
Fore
SplineSet
702 650 m 1xa0
 652 444 l 1
 584 615 l 1
 373 615 l 1
 236 61 l 1
 327 0 l 1
 27 0 l 1xc0
 122 51 l 1
 258 599 l 1
 185 650 l 1
 702 650 l 1xa0
435 701 m 1
 483 890 l 1
 607 890 l 1
 435 701 l 1
EndSplineSet
EndChar

StartChar: afii10057
Encoding: 1032 1032 203
Width: 466
Flags: MW
HStem: -10 32<172 216.5 172 227> -10 176<113 140.5 99.5 227> 630 20G<320 600 600 600>
LayerCount: 2
Fore
SplineSet
600 650 m 1xa0
 505 599 l 1
 414 230 l 2
 376 75 286 -10 168 -10 c 0
 58 -10 31 39 41 93 c 0
 51 138 83 166 116 166 c 0x60
 165 166 171 130 158 97 c 0
 132 31 161 22 183 22 c 0
 250 22 276 123 306 250 c 2
 393 599 l 1
 320 650 l 1
 600 650 l 1xa0
EndSplineSet
EndChar

StartChar: afii10109
Encoding: 1116 1116 204
Width: 508
Flags: MW
HStem: -20 20G<64 160 64 64> -10 21G<347 387.5> 354 106<441 479> 670 20G<355 479 479 479>
LayerCount: 2
Fore
SplineSet
220 252 m 1xb0
 226 252 l 2
 266 252 293 265 342 345 c 0
 371 392 410 460 472 460 c 0
 499 460 525 443 520 406 c 0
 517 375 494 354 464 354 c 0
 416 354 426 430 368 325 c 0
 343 279 321 252 287 238 c 1
 373 227 390 151 414 43 c 1
 442 58 470 72 498 87 c 1
 455 24 408 -10 367 -10 c 0
 327 -10 316 19 306 70 c 0
 291 145 276 218 228 220 c 2
 214 220 l 1x70
 196 147 178 73 160 0 c 1
 64 0 l 1
 95 128 126 255 157 383 c 1
 134 390 111 398 88 405 c 1
 149 423 210 442 271 460 c 1
 254 391 237 321 220 252 c 1xb0
307 501 m 1
 355 690 l 1
 479 690 l 1
 422 627 364 564 307 501 c 1
EndSplineSet
EndChar

StartChar: afii10100
Encoding: 1107 1107 205
Width: 387
Flags: MW
HStem: -10 47<198.5 225> 416 44<232 254.5> 460 230<292 307.5>
LayerCount: 2
Fore
SplineSet
106 345 m 1xa0
 129 415 197 460 267 460 c 0
 348 460 407 415 398 338 c 0
 390 270 324 246 239 217 c 0
 178 194 146 173 141 117 c 0
 135 62 175 37 222 37 c 0
 271 37 323 63 366 135 c 1
 334 36 265 -10 185 -10 c 0
 99 -10 36 34 49 113 c 0
 61 190 132 211 213 243 c 0
 264 262 296 282 303 332 c 0
 311 385 276 416 233 416 c 0
 196 416 151 402 106 345 c 1xa0
244 501 m 1
 292 690 l 1
 416 690 l 1xc0
 244 501 l 1
EndSplineSet
EndChar

StartChar: afii10050
Encoding: 1168 1168 206
Width: 574
Flags: MW
HStem: 0 21G<27 327 27 27> 615 35<373 584 373 373> 750 20G<730 730>
LayerCount: 2
Fore
SplineSet
730 770 m 1
 666 510 l 1
 584 615 l 1
 373 615 l 1
 236 61 l 1
 327 0 l 1
 27 0 l 1
 122 51 l 1
 258 599 l 1
 185 650 l 1
 594 650 l 1
 730 770 l 1
EndSplineSet
EndChar

StartChar: afii10053
Encoding: 1028 1028 207
Width: 620
Flags: MW
HStem: -10 63<322 398.5> 320 35<244 406 236 415> 632 33<445 528 404 558.5>
LayerCount: 2
Fore
SplineSet
721 665 m 1
 661 420 l 1
 644 542 612 632 505 632 c 0
 385 632 290 516 244 355 c 1
 415 355 l 1
 510 458 l 1
 442 218 l 1
 406 320 l 1
 236 320 l 1
 200 161 259 53 385 53 c 0
 488 53 575 121 627 227 c 1
 583 85 464 -10 333 -10 c 0
 149 -10 63 137 110 327 c 0
 157 517 312 665 496 665 c 0
 560 665 598 652 631 620 c 1
 721 665 l 1
EndSplineSet
EndChar

StartChar: afii10145
Encoding: 1039 1039 208
Width: 714
Flags: MW
HStem: -200 21G<305 305> 0 35<228 295 416 416 416 499 228 687> 630 20G<189 469 469 469 569 849 849 849>
LayerCount: 2
Fore
SplineSet
305 -200 m 1
 295 0 l 1
 27 0 l 1
 123 51 l 1
 260 599 l 1
 189 650 l 1
 469 650 l 1
 369 599 l 1
 228 35 l 1
 499 35 l 1
 640 599 l 1
 569 650 l 1
 849 650 l 1
 752 599 l 1
 615 51 l 1
 687 0 l 1
 416 0 l 1
 305 -200 l 1
EndSplineSet
EndChar

StartChar: afii10059
Encoding: 1034 1034 209
Width: 982
Flags: MW
HStem: 0 35<611 699 699 716> 320 35<311 570 302 579> 355 35<691 813 700 779> 630 20G<189 469 469 469 569 849 849 849>
LayerCount: 2
Fore
SplineSet
640 599 m 1xd0
 569 650 l 1
 849 650 l 1
 752 599 l 1
 700 390 l 1
 813 390 l 2xb0
 949 390 1036 325 1003 195 c 0
 971 65 852 0 716 0 c 2
 407 0 l 1
 503 51 l 1
 570 320 l 1
 302 320 l 1
 235 51 l 1
 307 0 l 1
 27 0 l 1
 123 51 l 1
 260 599 l 1
 189 650 l 1
 469 650 l 1
 372 599 l 1
 311 355 l 1
 579 355 l 1
 640 599 l 1xd0
611 35 m 1
 699 35 l 2
 772 35 848 85 875 195 c 0
 903 305 852 355 779 355 c 2
 691 355 l 1
 611 35 l 1
EndSplineSet
EndChar

StartChar: afii10058
Encoding: 1033 1033 210
Width: 959
Flags: MW
HStem: -10 21G<81 149.5> 0 35<588 676 676 693> 0 115 355 35<677 756 668 790> 615 35<406 621 406 406>
LayerCount: 2
Fore
SplineSet
621 615 m 1x58
 406 615 l 1
 322 280 l 2
 271 76 197 -10 102 -10 c 0x98
 60 -10 28 11 35 58 c 0
 42 102 80 115 103 115 c 0x38
 150 115 130 66 167 76 c 0
 225 92 257 213 278 300 c 2
 353 599 l 1
 276 650 l 1
 826 650 l 1
 729 599 l 1
 677 390 l 1
 790 390 l 2
 926 390 1013 325 980 195 c 0
 948 65 829 0 693 0 c 2
 384 0 l 1
 480 51 l 1
 621 615 l 1x58
588 35 m 1x58
 676 35 l 2
 749 35 825 85 852 195 c 0
 880 305 829 355 756 355 c 2
 668 355 l 1
 588 35 l 1x58
EndSplineSet
EndChar

StartChar: afii10107
Encoding: 1114 1114 211
Width: 675
Flags: MW
HStem: -20 20G<64 160 64 64> -10 24<445 462> 219 33<355 355> 281 23<532 559.5> 281 169<411 559.5> 440 20G
LayerCount: 2
Fore
SplineSet
507 450 m 1x68
 464 270 l 1
 486 290 515 304 549 304 c 0
 650 304 694 242 673 144 c 0
 651 37 550 -9 462 -10 c 0x74
 361 -10 318 63 345 176 c 2
 355 219 l 1
 214 220 l 1
 196 147 178 73 160 0 c 1
 64 0 l 1
 95 128 126 255 157 383 c 1
 134 390 111 398 88 405 c 1
 149 423 210 442 271 460 c 1xb4
 254 391 237 321 220 252 c 1
 361 252 l 1
 411 450 l 1
 507 450 l 1x68
530 281 m 0x68
 487 281 451 228 434 158 c 0
 417 88 415 14 475 14 c 0
 516 14 550 65 568 135 c 0
 586 206 589 281 530 281 c 0x68
EndSplineSet
EndChar

StartChar: afii10106
Encoding: 1113 1113 212
Width: 665
Flags: MW
HStem: -10 24<435 452> -10 73 -10 105<68 84 68 117> 281 23<521 549> 418 32<284 401 284 284>
LayerCount: 2
Fore
SplineSet
334 176 m 2x58
 401 418 l 1
 284 418 l 1
 235 223 l 2
 217 150 173 -10 61 -10 c 0
 34 -10 7 5 11 43 c 0
 16 82 45 96 68 95 c 0x38
 100 95 90 61 116 63 c 0
 155 65 185 184 200 243 c 2
 237 393 l 1
 172 450 l 1
 505 450 l 1
 453 270 l 1
 475 290 504 304 538 304 c 0
 639 304 683 242 662 144 c 0
 641 37 540 -9 452 -10 c 0
 350 -10 302 65 334 176 c 2x58
520 281 m 0
 477 281 441 228 424 158 c 0
 406 88 405 14 465 14 c 0x98
 506 14 540 65 557 135 c 0
 575 206 578 281 520 281 c 0
EndSplineSet
EndChar

StartChar: Idieresis
Encoding: 207 207 213
Width: 334
Flags: MW
HStem: 0 21G<27 307 27 27> 740 120<278 281 444 447>
LayerCount: 2
Fore
SplineSet
465 650 m 1
 370 599 l 1
 234 51 l 1
 307 0 l 1
 27 0 l 1
 122 51 l 1
 258 599 l 1
 185 650 l 1
 465 650 l 1
220 799 m 0
 227 833 261 860 295 860 c 0
 329 860 347 833 340 799 c 0
 331 766 298 740 264 740 c 0
 231 740 211 766 220 799 c 0
386 799 m 0
 393 833 427 860 461 860 c 0
 495 860 513 833 506 799 c 0
 497 766 464 740 430 740 c 0
 397 740 377 766 386 799 c 0
EndSplineSet
EndChar

StartChar: idieresis
Encoding: 239 239 214
Width: 281
Flags: MW
HStem: -10 21G<101 147.5> 540 120<161 164 327 330>
LayerCount: 2
Fore
SplineSet
103 599 m 0
 110 633 144 660 178 660 c 0
 212 660 230 633 223 599 c 0
 214 566 181 540 147 540 c 0
 114 540 94 566 103 599 c 0
78 57 m 2
 159 383 l 1
 89 405 l 1
 273 460 l 1
 172 47 l 1
 274 92 l 1
 243 58 177 -10 118 -10 c 0
 84 -10 67 12 78 57 c 2
269 599 m 0
 276 633 310 660 344 660 c 0
 378 660 396 633 389 599 c 0
 380 566 347 540 313 540 c 0
 280 540 260 566 269 599 c 0
EndSplineSet
EndChar

StartChar: odieresis
Encoding: 246 246 215
Width: 474
Flags: MW
HStem: -10 32<203.5 272.5 203.5 277> 428 32 540 120<265 268 441 444>
LayerCount: 2
Fore
SplineSet
66 225 m 0
 100 361 204 460 330 460 c 0
 449 460 511 361 477 225 c 0
 444 89 340 -10 214 -10 c 0
 95 -10 33 89 66 225 c 0
173 210 m 0
 159 91 172 22 235 22 c 0
 310 22 354 121 370 240 c 0
 386 359 371 427 308 428 c 0
 234 429 189 329 173 210 c 0
207 599 m 0
 215 633 248 660 282 660 c 0
 316 660 335 633 327 599 c 0
 318 566 285 540 251 540 c 0
 218 540 198 566 207 599 c 0
383 599 m 0
 391 633 424 660 458 660 c 0
 492 660 511 633 503 599 c 0
 494 566 461 540 427 540 c 0
 394 540 374 566 383 599 c 0
EndSplineSet
EndChar

StartChar: udieresis
Encoding: 252 252 216
Width: 525
Flags: MW
HStem: -10 58<128 241.5> 540 120<282 285 458 461>
LayerCount: 2
Fore
SplineSet
86 405 m 1
 269 460 l 1
 197 167 l 2
 177 85 176 48 223 48 c 0
 260 48 312 89 347 133 c 1
 410 383 l 1
 387 390 364 398 341 405 c 1
 402 423 463 442 524 460 c 1
 423 47 l 1
 526 92 l 1
 487 51 427 -10 369 -10 c 0
 332 -10 319 15 329 57 c 2
 340 101 l 1
 299 54 225 -10 171 -10 c 0
 85 -10 72 55 97 154 c 2
 155 383 l 1
 86 405 l 1
224 599 m 0
 232 633 265 660 299 660 c 0
 333 660 352 633 344 599 c 0
 335 566 302 540 268 540 c 0
 235 540 215 566 224 599 c 0
400 599 m 0
 408 633 441 660 475 660 c 0
 509 660 528 633 520 599 c 0
 511 566 478 540 444 540 c 0
 411 540 391 566 400 599 c 0
EndSplineSet
EndChar

StartChar: ydieresis
Encoding: 255 255 217
Width: 444
Flags: MW
HStem: -211 112<15 44.5 13 51.5> 440 20G<214 214 393.5 433.5> 540 120<237 240 413 416>
LayerCount: 2
Fore
SplineSet
128 -96 m 2
 208 23 l 1
 125 385 l 1
 99 391 72 398 46 405 c 1
 101 423 158 442 214 460 c 1
 282 130 l 1
 319 185 354 239 379 294 c 0
 407 355 347 357 350 406 c 0
 352 438 378 460 409 460 c 0
 458 460 485 409 444 332 c 0
 396 245 338 157 280 70 c 2
 166 -101 l 2
 107 -190 72 -211 31 -211 c 0
 -1 -211 -28 -191 -26 -152 c 0
 -24 -121 -2 -99 28 -99 c 0
 61 -99 59 -129 84 -130 c 0
 95 -131 108 -126 128 -96 c 2
179 599 m 0
 187 633 220 660 254 660 c 0
 288 660 307 633 299 599 c 0
 290 566 257 540 223 540 c 0
 190 540 170 566 179 599 c 0
355 599 m 0
 363 633 396 660 430 660 c 0
 464 660 483 633 475 599 c 0
 466 566 433 540 399 540 c 0
 366 540 346 566 355 599 c 0
EndSplineSet
EndChar

StartChar: thorn
Encoding: 254 254 218
Width: 491
Flags: MW
HStem: -200 21G<-63 -63 -63 179> -10 31<239 239> 396 64<361.5 362> 630 20G<314 314>
LayerCount: 2
Fore
SplineSet
-63 -200 m 1
 19 -155 l 1
 200 573 l 1
 130 595 l 1
 314 650 l 1
 241 356 l 1
 285 414 334 460 389 460 c 0
 481 460 527 376 491 229 c 0
 458 90 345 -10 239 -10 c 0
 200 -10 178 4 161 25 c 1
 115 -155 l 1
 179 -200 l 1
 -63 -200 l 1
393 237 m 0
 413 339 389 396 335 396 c 0
 306 396 271 372 235 329 c 1
 179 100 l 2
 164 42 198 20 239 21 c 0
 312 24 371 121 393 237 c 0
EndSplineSet
EndChar

StartChar: edieresis
Encoding: 235 235 219
Width: 441
Flags: MW
HStem: -10 21G<144 261> 255 30 430 30<279.5 323> 540 120<255 258 431 434>
LayerCount: 2
Fore
SplineSet
327 460 m 0
 416 460 463 420 456 357 c 0
 447 277 352 264 275 259 c 2
 166 252 l 1
 164 238 161 224 160 209 c 0
 153 95 215 59 283 65 c 0
 341 71 393 115 428 189 c 1
 395 70 317 -10 205 -10 c 0
 83 -10 35 95 67 225 c 0
 99 355 205 460 327 460 c 0
174 279 m 1
 258 285 l 2
 323 289 355 317 359 357 c 0
 366 408 338 430 308 430 c 0
 251 430 197 362 174 279 c 1
197 599 m 0
 205 633 238 660 272 660 c 0
 306 660 325 633 317 599 c 0
 308 566 275 540 241 540 c 0
 208 540 188 566 197 599 c 0
373 599 m 0
 381 633 414 660 448 660 c 0
 482 660 501 633 493 599 c 0
 484 566 451 540 417 540 c 0
 384 540 364 566 373 599 c 0
EndSplineSet
EndChar

StartChar: adieresis
Encoding: 228 228 220
Width: 499
Flags: MW
HStem: -10 62<116 211> 431 29<302 351 283 355> 540 120<282 285 458 461>
LayerCount: 2
Fore
SplineSet
315 106 m 1
 271 41 215 -10 160 -10 c 0
 72 -10 34 78 72 216 c 0
 117 376 233 460 333 460 c 0
 369 460 396 443 406 417 c 1
 498 460 l 1
 464 322 430 185 397 47 c 1
 499 92 l 1
 461 51 400 -10 343 -10 c 0
 306 -10 294 15 303 57 c 0
 305 65 313 97 315 106 c 1
170 206 m 0
 147 102 165 52 211 52 c 0
 239 53 285 83 321 133 c 1
 378 367 l 2
 384 396 377 431 333 431 c 0
 271 431 200 342 170 206 c 0
224 599 m 0
 232 633 265 660 299 660 c 0
 333 660 352 633 344 599 c 0
 335 566 302 540 268 540 c 0
 235 540 215 566 224 599 c 0
400 599 m 0
 408 633 441 660 475 660 c 0
 509 660 528 633 520 599 c 0
 511 566 478 540 444 540 c 0
 411 540 391 566 400 599 c 0
EndSplineSet
EndChar

StartChar: yacute
Encoding: 253 253 221
Width: 444
Flags: MW
HStem: -211 112<15 44.5 13 51.5> 460 230<214 448 393.5 433.5>
LayerCount: 2
Fore
SplineSet
128 -96 m 2
 208 23 l 1
 125 385 l 1
 99 391 72 398 46 405 c 1
 101 423 158 442 214 460 c 1
 282 130 l 1
 319 185 354 239 379 294 c 0
 407 355 347 357 350 406 c 0
 352 438 378 460 409 460 c 0
 458 460 485 409 444 332 c 0
 396 245 338 157 280 70 c 2
 166 -101 l 2
 107 -190 72 -211 31 -211 c 0
 -1 -211 -28 -191 -26 -152 c 0
 -24 -121 -2 -99 28 -99 c 0
 61 -99 59 -129 84 -130 c 0
 95 -131 108 -126 128 -96 c 2
276 501 m 1
 324 690 l 1
 448 690 l 1
 276 501 l 1
EndSplineSet
EndChar

StartChar: uacute
Encoding: 250 250 222
Width: 525
Flags: MW
HStem: -10 58<128 241.5> 670 20G<365 489 489 489>
LayerCount: 2
Fore
SplineSet
86 405 m 1
 269 460 l 1
 197 167 l 2
 177 85 176 48 223 48 c 0
 260 48 312 89 347 133 c 1
 410 383 l 1
 387 390 364 398 341 405 c 1
 402 423 463 442 524 460 c 1
 423 47 l 1
 526 92 l 1
 487 51 427 -10 369 -10 c 0
 332 -10 319 15 329 57 c 2
 340 101 l 1
 299 54 225 -10 171 -10 c 0
 85 -10 72 55 97 154 c 2
 155 383 l 1
 86 405 l 1
317 501 m 1
 365 690 l 1
 489 690 l 1
 317 501 l 1
EndSplineSet
EndChar

StartChar: oacute
Encoding: 243 243 223
Width: 474
Flags: MW
HStem: -10 32<203.5 272.5 203.5 277> 428 32 460 230<339 389.5>
LayerCount: 2
Fore
SplineSet
66 225 m 0xa0
 100 361 204 460 330 460 c 0
 449 460 511 361 477 225 c 0
 444 89 340 -10 214 -10 c 0
 95 -10 33 89 66 225 c 0xa0
173 210 m 0
 159 91 172 22 235 22 c 0
 310 22 354 121 370 240 c 0
 386 359 371 427 308 428 c 0xc0
 234 429 189 329 173 210 c 0
291 501 m 1
 339 690 l 1
 463 690 l 1
 291 501 l 1
EndSplineSet
EndChar

StartChar: eacute
Encoding: 233 233 224
Width: 441
Flags: MW
HStem: -10 21G<144 261> 255 30 430 30<279.5 323> 460 230<336 371.5>
LayerCount: 2
Fore
SplineSet
327 460 m 0xe0
 416 460 463 420 456 357 c 0
 447 277 352 264 275 259 c 2
 166 252 l 1
 164 238 161 224 160 209 c 0
 153 95 215 59 283 65 c 0
 341 71 393 115 428 189 c 1
 395 70 317 -10 205 -10 c 0
 83 -10 35 95 67 225 c 0
 99 355 205 460 327 460 c 0xe0
174 279 m 1
 258 285 l 2
 323 289 355 317 359 357 c 0
 366 408 338 430 308 430 c 0
 251 430 197 362 174 279 c 1
288 501 m 1
 336 690 l 1xd0
 460 690 l 1
 288 501 l 1
EndSplineSet
EndChar

StartChar: aacute
Encoding: 225 225 225
Width: 499
Flags: MW
HStem: -10 62<116 211> 431 29<302 351 283 355> 460 230<283 496 372 498>
LayerCount: 2
Fore
SplineSet
315 106 m 1xa0
 271 41 215 -10 160 -10 c 0
 72 -10 34 78 72 216 c 0
 117 376 233 460 333 460 c 0xc0
 369 460 396 443 406 417 c 1
 498 460 l 1
 464 322 430 185 397 47 c 1
 499 92 l 1
 461 51 400 -10 343 -10 c 0
 306 -10 294 15 303 57 c 0
 305 65 313 97 315 106 c 1xa0
170 206 m 0
 147 102 165 52 211 52 c 0
 239 53 285 83 321 133 c 1
 378 367 l 2
 384 396 377 431 333 431 c 0
 271 431 200 342 170 206 c 0
324 501 m 1
 372 690 l 1
 496 690 l 1
 324 501 l 1
EndSplineSet
EndChar

StartChar: Adieresis
Encoding: 196 196 226
Width: 663
Flags: MW
HStem: 0 210<-10 450 402 402 402 450 234 663> 175 35<234 450 234 458 212 450> 728 120<405 408 611 614>
LayerCount: 2
Fore
SplineSet
-10 0 m 1xa0
 95 61 l 1
 491 665 l 1
 596 50 l 1
 663 0 l 1
 402 0 l 1xa0
 479 45 l 1
 458 175 l 1
 212 175 l 1x60
 132 55 l 1
 197 0 l 1
 -10 0 l 1xa0
405 471 m 1
 234 210 l 1
 450 210 l 1
 405 471 l 1
347 787 m 0
 355 821 388 848 422 848 c 0
 456 848 475 821 467 787 c 0
 458 754 425 728 391 728 c 0
 358 728 338 754 347 787 c 0
553 787 m 0
 561 821 594 848 628 848 c 0
 662 848 681 821 673 787 c 0
 664 754 631 728 597 728 c 0
 564 728 544 754 553 787 c 0
EndSplineSet
EndChar

StartChar: Edieresis
Encoding: 203 203 227
Width: 596
Flags: MW
HStem: 0 35<231 458 231 560> 320 35<309 416 301 423> 615 35<373 591 373 373> 728 120<382 385 588 591>
LayerCount: 2
Fore
SplineSet
27 0 m 1
 122 51 l 1
 258 599 l 1
 185 650 l 1
 703 650 l 1
 649 430 l 1
 591 615 l 1
 373 615 l 1
 309 355 l 1
 423 355 l 1
 524 458 l 1
 464 218 l 1
 416 320 l 1
 301 320 l 1
 231 35 l 1
 458 35 l 1
 614 220 l 1
 560 0 l 1
 27 0 l 1
324 787 m 0
 332 821 365 848 399 848 c 0
 433 848 452 821 444 787 c 0
 435 754 402 728 368 728 c 0
 335 728 315 754 324 787 c 0
530 787 m 0
 538 821 571 848 605 848 c 0
 639 848 658 821 650 787 c 0
 641 754 608 728 574 728 c 0
 541 728 521 754 530 787 c 0
EndSplineSet
EndChar

StartChar: Odieresis
Encoding: 214 214 228
Width: 669
Flags: MW
HStem: -10 32<279.5 398.5 279.5 419> 633 32<429.5 548.5> 728 120<439 442 645 648>
LayerCount: 2
Fore
SplineSet
110 327 m 0
 157 517 319 665 496 665 c 0
 674 665 766 517 719 327 c 0
 672 137 508 -10 330 -10 c 0
 153 -10 63 137 110 327 c 0
240 327 m 0
 196 148 220 22 339 22 c 0
 458 22 546 148 590 327 c 0
 634 506 608 633 489 633 c 0
 370 633 284 506 240 327 c 0
381 787 m 0
 389 821 422 848 456 848 c 0
 490 848 509 821 501 787 c 0
 492 754 459 728 425 728 c 0
 392 728 372 754 381 787 c 0
587 787 m 0
 595 821 628 848 662 848 c 0
 696 848 715 821 707 787 c 0
 698 754 665 728 631 728 c 0
 598 728 578 754 587 787 c 0
EndSplineSet
EndChar

StartChar: Udieresis
Encoding: 220 220 229
Width: 720
Flags: MW
HStem: -10 54<319 462.5> 728 120<459 462 665 668>
LayerCount: 2
Fore
SplineSet
182 650 m 1
 255 599 l 1
 169 254 l 2
 138 128 156 -10 368 -10 c 0
 557 -10 640 143 668 259 c 2
 750 587 l 1
 854 650 l 1
 625 650 l 1
 701 587 l 1
 619 254 l 2
 597 164 535 44 391 44 c 0
 247 44 260 163 284 263 c 2
 367 599 l 1
 462 650 l 1
 182 650 l 1
401 787 m 0
 409 821 442 848 476 848 c 0
 510 848 529 821 521 787 c 0
 512 754 479 728 445 728 c 0
 412 728 392 754 401 787 c 0
607 787 m 0
 615 821 648 848 682 848 c 0
 716 848 735 821 727 787 c 0
 718 754 685 728 651 728 c 0
 618 728 598 754 607 787 c 0
EndSplineSet
EndChar

StartChar: Ydieresis
Encoding: 376 376 230
Width: 682
Flags: MW
HStem: 0 21G<212 492 212 212> 728 120<451 454 657 660>
LayerCount: 2
Fore
SplineSet
434 650 m 1
 360 608 l 1
 466 345 l 1
 679 597 l 1
 624 650 l 1
 833 650 l 1
 724 592 l 1
 482 303 l 1
 419 51 l 1
 492 0 l 1
 212 0 l 1
 307 51 l 1
 364 282 l 1
 236 602 l 1
 168 650 l 1
 434 650 l 1
393 787 m 0
 401 821 434 848 468 848 c 0
 502 848 521 821 513 787 c 0
 504 754 471 728 437 728 c 0
 404 728 384 754 393 787 c 0
599 787 m 0
 607 821 640 848 674 848 c 0
 708 848 727 821 719 787 c 0
 710 754 677 728 643 728 c 0
 610 728 590 754 599 787 c 0
EndSplineSet
EndChar

StartChar: exclamdown
Encoding: 161 161 231
Width: 262
Flags: MW
HStem: -219 21G<55.5 96> 333 120<224 227>
LayerCount: 2
Fore
SplineSet
76 -219 m 0
 35 -219 22 -186 37 -126 c 0
 58 -40 175 228 200 288 c 1
 196 228 181 -40 159 -126 c 0
 145 -186 116 -219 76 -219 c 0
285 393 m 0
 278 359 244 333 210 333 c 0
 176 333 158 359 165 393 c 0
 174 426 207 453 241 453 c 0
 274 453 294 426 285 393 c 0
EndSplineSet
EndChar

StartChar: Uacute
Encoding: 218 218 232
Width: 720
Flags: MW
HStem: -10 54<319 462.5> 870 20G<566 690 690 690>
LayerCount: 2
Fore
SplineSet
255 599 m 1
 182 650 l 1
 462 650 l 1
 367 599 l 1
 284 263 l 2
 260 163 247 44 391 44 c 0
 535 44 597 164 619 254 c 2
 701 587 l 1
 625 650 l 1
 854 650 l 1
 750 587 l 1
 668 259 l 2
 640 143 557 -10 368 -10 c 0
 156 -10 138 128 169 254 c 2
 255 599 l 1
518 701 m 1
 566 890 l 1
 690 890 l 1
 518 701 l 1
EndSplineSet
EndChar

StartChar: Oacute
Encoding: 211 211 233
Width: 669
Flags: MW
HStem: -10 32<279.5 398.5 279.5 419> 633 32<429.5 548.5> 665 225<549 585>
LayerCount: 2
Fore
SplineSet
110 327 m 0xa0
 157 517 319 665 496 665 c 0
 674 665 766 517 719 327 c 0
 672 137 508 -10 330 -10 c 0
 153 -10 63 137 110 327 c 0xa0
240 327 m 0
 196 148 220 22 339 22 c 0
 458 22 546 148 590 327 c 0
 634 506 608 633 489 633 c 0xc0
 370 633 284 506 240 327 c 0
501 701 m 1
 549 890 l 1
 673 890 l 1
 501 701 l 1
EndSplineSet
EndChar

StartChar: Iacute
Encoding: 205 205 234
Width: 334
Flags: MW
HStem: 0 21G<27 307 27 27> 650 240<359 465 465 465>
LayerCount: 2
Fore
SplineSet
465 650 m 1
 370 599 l 1
 234 51 l 1
 307 0 l 1
 27 0 l 1
 122 51 l 1
 258 599 l 1
 185 650 l 1
 465 650 l 1
311 701 m 1
 359 890 l 1
 483 890 l 1
 311 701 l 1
EndSplineSet
EndChar

StartChar: Eacute
Encoding: 201 201 235
Width: 596
Flags: MW
HStem: 0 35<231 458 231 560> 320 35<309 416 301 423> 615 35<373 591 373 373> 650 240<499 623 499 703 499 703>
LayerCount: 2
Fore
SplineSet
27 0 m 1xd0
 122 51 l 1
 258 599 l 1
 185 650 l 1
 703 650 l 1
 649 430 l 1
 591 615 l 1
 373 615 l 1
 309 355 l 1
 423 355 l 1
 524 458 l 1xe0
 464 218 l 1
 416 320 l 1
 301 320 l 1
 231 35 l 1
 458 35 l 1
 614 220 l 1
 560 0 l 1
 27 0 l 1xd0
451 701 m 1
 499 890 l 1
 623 890 l 1
 451 701 l 1
EndSplineSet
EndChar

StartChar: Aacute
Encoding: 193 193 236
Width: 663
Flags: MW
HStem: 0 210<-10 450 402 402 402 450 234 663> 175 35<234 450 234 458 212 450> 870 20G<509 633 633 633>
LayerCount: 2
Fore
SplineSet
-10 0 m 1xa0
 95 61 l 1
 491 665 l 1
 596 50 l 1
 663 0 l 1
 402 0 l 1
 479 45 l 1
 458 175 l 1
 212 175 l 1
 132 55 l 1
 197 0 l 1
 -10 0 l 1xa0
405 471 m 1
 234 210 l 1
 450 210 l 1x60
 405 471 l 1
461 701 m 1
 509 890 l 1
 633 890 l 1xa0
 461 701 l 1
EndSplineSet
EndChar

StartChar: questiondown
Encoding: 191 191 237
Width: 454
Flags: MW
HStem: -220 27<173 216> 331 120<337 340.5>
LayerCount: 2
Fore
SplineSet
326 271 m 1
 262 131 59 88 22 -63 c 0
 -2 -161 61 -220 175 -220 c 0
 257 -220 368 -173 392 -76 c 0
 405 -25 380 -4 352 -4 c 0
 322 -4 292 -29 287 -64 c 0
 282 -101 315 -107 309 -132 c 0
 301 -164 259 -193 205 -193 c 0
 141 -193 108 -142 128 -59 c 0
 163 84 279 108 326 271 c 1
399 392 m 0
 391 358 357 331 324 331 c 0
 290 331 271 358 279 392 c 0
 287 425 320 451 354 451 c 0
 387 451 407 425 399 392 c 0
EndSplineSet
EndChar

StartChar: agrave
Encoding: 224 224 238
Width: 499
Flags: MW
HStem: -10 62<116 211> 431 29<302 351 283 355> 460 230<283 351 241 498>
LayerCount: 2
Fore
SplineSet
315 106 m 1xa0
 271 41 215 -10 160 -10 c 0
 72 -10 34 78 72 216 c 0
 117 376 233 460 333 460 c 0xc0
 369 460 396 443 406 417 c 1
 498 460 l 1
 464 322 430 185 397 47 c 1
 499 92 l 1
 461 51 400 -10 343 -10 c 0
 306 -10 294 15 303 57 c 0
 305 65 313 97 315 106 c 1xa0
170 206 m 0
 147 102 165 52 211 52 c 0
 239 53 285 83 321 133 c 1
 378 367 l 2
 384 396 377 431 333 431 c 0
 271 431 200 342 170 206 c 0
393 501 m 1
 241 690 l 1
 359 690 l 1
 393 501 l 1
EndSplineSet
EndChar

StartChar: egrave
Encoding: 232 232 239
Width: 441
Flags: MW
HStem: -10 21G<144 261> 255 30 430 30<279.5 323> 460 230<266 336 218 371.5>
LayerCount: 2
Fore
SplineSet
327 460 m 0xe0
 416 460 463 420 456 357 c 0
 447 277 352 264 275 259 c 2
 166 252 l 1
 164 238 161 224 160 209 c 0
 153 95 215 59 283 65 c 0
 341 71 393 115 428 189 c 1
 395 70 317 -10 205 -10 c 0
 83 -10 35 95 67 225 c 0
 99 355 205 460 327 460 c 0xe0
174 279 m 1
 258 285 l 2
 323 289 355 317 359 357 c 0
 366 408 338 430 308 430 c 0
 251 430 197 362 174 279 c 1
370 501 m 1
 218 690 l 1xd0
 336 690 l 1
 370 501 l 1
EndSplineSet
EndChar

StartChar: ograve
Encoding: 242 242 240
Width: 474
Flags: MW
HStem: -10 32<203.5 272.5 203.5 277> 428 32 460 230<267 326 208 389.5>
LayerCount: 2
Fore
SplineSet
66 225 m 0xa0
 100 361 204 460 330 460 c 0
 449 460 511 361 477 225 c 0
 444 89 340 -10 214 -10 c 0
 95 -10 33 89 66 225 c 0xa0
173 210 m 0
 159 91 172 22 235 22 c 0
 310 22 354 121 370 240 c 0
 386 359 371 427 308 428 c 0xc0
 234 429 189 329 173 210 c 0
360 501 m 1
 208 690 l 1
 326 690 l 1
 360 501 l 1
EndSplineSet
EndChar

StartChar: ugrave
Encoding: 249 249 241
Width: 525
Flags: MW
HStem: -10 58<128 241.5> 670 20G<212 330 330 330>
LayerCount: 2
Fore
SplineSet
86 405 m 1
 269 460 l 1
 197 167 l 2
 177 85 176 48 223 48 c 0
 260 48 312 89 347 133 c 1
 410 383 l 1
 387 390 364 398 341 405 c 1
 402 423 463 442 524 460 c 1
 423 47 l 1
 526 92 l 1
 487 51 427 -10 369 -10 c 0
 332 -10 319 15 329 57 c 2
 340 101 l 1
 299 54 225 -10 171 -10 c 0
 85 -10 72 55 97 154 c 2
 155 383 l 1
 86 405 l 1
364 501 m 1
 212 690 l 1
 330 690 l 1
 364 501 l 1
EndSplineSet
EndChar

StartChar: oslash
Encoding: 248 248 242
Width: 474
Flags: MW
HStem: -22 21G<58 58> -10 32<216.5 272.5 216.5 277> 428 32 448 20G<490 490>
LayerCount: 2
Fore
SplineSet
490 468 m 1x50
 518 440 l 1
 465 387 l 1
 487 345 493 289 477 225 c 0
 444 89 340 -10 214 -10 c 0x50
 170 -10 133 3 107 27 c 1
 58 -22 l 1
 30 6 l 1
 81 59 l 1
 57 100 50 158 66 225 c 0
 100 361 204 460 330 460 c 0xa0
 376 460 414 445 441 418 c 1
 490 468 l 1x50
173 210 m 0
 171 186 169 165 169 146 c 1
 373 351 l 1
 367 400 347 427 308 428 c 0x60
 234 429 189 329 173 210 c 0
370 240 m 0
 373 261 375 279 375 296 c 1
 171 92 l 1
 178 47 198 22 235 22 c 0
 310 22 354 121 370 240 c 0
EndSplineSet
EndChar

StartChar: igrave
Encoding: 236 236 243
Width: 281
Flags: MW
HStem: -10 21G<101 147.5> 670 20G<115 233 233 233>
LayerCount: 2
Fore
SplineSet
78 57 m 2
 159 383 l 1
 89 405 l 1
 273 460 l 1
 172 47 l 1
 274 92 l 1
 243 58 177 -10 118 -10 c 0
 84 -10 67 12 78 57 c 2
267 501 m 1
 115 690 l 1
 233 690 l 1
 267 501 l 1
EndSplineSet
EndChar

StartChar: iacute
Encoding: 237 237 244
Width: 281
Flags: MW
HStem: -10 21G<101 147.5> 670 20G<249 373 373 373>
LayerCount: 2
Fore
SplineSet
78 57 m 2
 159 383 l 1
 89 405 l 1
 273 460 l 1
 172 47 l 1
 274 92 l 1
 243 58 177 -10 118 -10 c 0
 84 -10 67 12 78 57 c 2
201 501 m 1
 249 690 l 1
 373 690 l 1
 201 501 l 1
EndSplineSet
EndChar

StartChar: Yacute
Encoding: 221 221 245
Width: 682
Flags: MW
HStem: 0 21G<212 492 212 212> 650 240<168 679 434 679 624 679 555 833 555 833>
LayerCount: 2
Fore
SplineSet
434 650 m 1
 360 608 l 1
 466 345 l 1
 679 597 l 1
 624 650 l 1
 833 650 l 1
 724 592 l 1
 482 303 l 1
 419 51 l 1
 492 0 l 1
 212 0 l 1
 307 51 l 1
 364 282 l 1
 236 602 l 1
 168 650 l 1
 434 650 l 1
507 701 m 1
 555 890 l 1
 679 890 l 1
 507 701 l 1
EndSplineSet
EndChar

StartChar: Ugrave
Encoding: 217 217 246
Width: 720
Flags: MW
HStem: -10 54<319 462.5> 870 20G<409 527 527 527>
LayerCount: 2
Fore
SplineSet
255 599 m 1
 182 650 l 1
 462 650 l 1
 367 599 l 1
 284 263 l 2
 260 163 247 44 391 44 c 0
 535 44 597 164 619 254 c 2
 701 587 l 1
 625 650 l 1
 854 650 l 1
 750 587 l 1
 668 259 l 2
 640 143 557 -10 368 -10 c 0
 156 -10 138 128 169 254 c 2
 255 599 l 1
561 701 m 1
 409 890 l 1
 527 890 l 1
 561 701 l 1
EndSplineSet
EndChar

StartChar: Ograve
Encoding: 210 210 247
Width: 669
Flags: MW
HStem: -10 32<279.5 398.5 279.5 419> 633 32<429.5 548.5> 665 225<407.5 521 403 585>
LayerCount: 2
Fore
SplineSet
110 327 m 0xa0
 157 517 319 665 496 665 c 0
 674 665 766 517 719 327 c 0
 672 137 508 -10 330 -10 c 0
 153 -10 63 137 110 327 c 0xa0
240 327 m 0
 196 148 220 22 339 22 c 0
 458 22 546 148 590 327 c 0
 634 506 608 633 489 633 c 0xc0
 370 633 284 506 240 327 c 0
555 701 m 1
 403 890 l 1
 521 890 l 1
 555 701 l 1
EndSplineSet
EndChar

StartChar: Igrave
Encoding: 204 204 248
Width: 334
Flags: MW
HStem: 0 21G<27 307 27 27> 650 240<228 346 228 465 228 465>
LayerCount: 2
Fore
SplineSet
465 650 m 1
 370 599 l 1
 234 51 l 1
 307 0 l 1
 27 0 l 1
 122 51 l 1
 258 599 l 1
 185 650 l 1
 465 650 l 1
380 701 m 1
 228 890 l 1
 346 890 l 1
 380 701 l 1
EndSplineSet
EndChar

StartChar: Egrave
Encoding: 200 200 249
Width: 596
Flags: MW
HStem: 0 35<231 458 231 560> 320 35<309 416 301 423> 615 35<373 591 373 373> 650 240<376 494 376 703 376 703>
LayerCount: 2
Fore
SplineSet
27 0 m 1xd0
 122 51 l 1
 258 599 l 1
 185 650 l 1
 703 650 l 1
 649 430 l 1
 591 615 l 1
 373 615 l 1
 309 355 l 1
 423 355 l 1
 524 458 l 1xe0
 464 218 l 1
 416 320 l 1
 301 320 l 1
 231 35 l 1
 458 35 l 1
 614 220 l 1
 560 0 l 1
 27 0 l 1xd0
528 701 m 1
 376 890 l 1
 494 890 l 1
 528 701 l 1
EndSplineSet
EndChar

StartChar: Agrave
Encoding: 192 192 250
Width: 663
Flags: MW
HStem: 0 210<-10 450 402 402 402 450 234 663> 175 35<234 450 234 458 212 450> 870 20G<369 487 487 487>
LayerCount: 2
Fore
SplineSet
-10 0 m 1xa0
 95 61 l 1
 491 665 l 1
 596 50 l 1
 663 0 l 1
 402 0 l 1
 479 45 l 1
 458 175 l 1
 212 175 l 1
 132 55 l 1
 197 0 l 1
 -10 0 l 1xa0
405 471 m 1
 234 210 l 1
 450 210 l 1x60
 405 471 l 1
521 701 m 1
 369 890 l 1
 487 890 l 1xa0
 521 701 l 1
EndSplineSet
EndChar

StartChar: Zcaron
Encoding: 381 381 251
Width: 582
Flags: MW
HStem: 0 35<188 440 188 542> 615 35<320 545 320 320> 845 20G<366 366 644 644>
LayerCount: 2
Fore
SplineSet
490 804 m 1
 644 865 l 1
 467 710 l 1
 366 865 l 1
 490 804 l 1
164 430 m 1
 218 650 l 1
 700 650 l 1
 188 35 l 1
 440 35 l 1
 596 220 l 1
 542 0 l 1
 34 0 l 1
 545 615 l 1
 320 615 l 1
 164 430 l 1
EndSplineSet
EndChar

StartChar: Scaron
Encoding: 352 352 252
Width: 543
Flags: MW
HStem: -10 32<267.5 351 249 374.5> 633 32<381.5 452.5 372 464> 845 20G<332 332 610 610>
LayerCount: 2
Fore
SplineSet
633 665 m 1
 575 430 l 1
 559 560 513 633 415 633 c 0
 348 633 268 598 251 530 c 0
 238 479 272 454 323 430 c 2
 466 362 l 2
 527 334 582 287 554 173 c 0
 532 83 446 -10 303 -10 c 0
 232 -10 175 20 154 53 c 1
 58 -10 l 1
 122 249 l 1
 140 116 187 22 311 22 c 0
 391 22 456 64 473 132 c 0
 490 199 438 227 401 245 c 2
 260 313 l 2
 196 343 155 393 176 477 c 0
 208 608 322 665 422 665 c 0
 483 665 526 644 550 621 c 1
 633 665 l 1
456 804 m 1
 610 865 l 1
 433 710 l 1
 332 865 l 1
 456 804 l 1
EndSplineSet
EndChar

StartChar: zcaron
Encoding: 382 382 253
Width: 424
Flags: MW
HStem: -10 90<291 301> 10 70 10 90<100 215> 364 86<161 343 161 161> 645 20G<215 215 459 459>
LayerCount: 2
Fore
SplineSet
11 -10 m 1x98
 343 364 l 1
 161 364 l 1
 107 297 l 1
 149 450 l 1
 467 450 l 1x38
 147 93 l 1x98
 165 98 173 100 193 100 c 0
 237 100 267 80 315 80 c 0
 346 80 389 92 423 135 c 1x58
 382 59 339 -10 263 -10 c 0
 216 -10 171 10 121 10 c 0
 79 10 48 5 11 -10 c 1x98
321 601 m 1
 459 665 l 1
 300 517 l 1
 215 665 l 1
 321 601 l 1
EndSplineSet
EndChar

StartChar: scaron
Encoding: 353 353 254
Width: 413
Flags: MW
HStem: -10 32<179.5 224 171 240> 428 32<247.5 294.5 231 298.5> 645 20G<209 209 453 453>
LayerCount: 2
Fore
SplineSet
362 436 m 1
 419 460 l 1
 375 288 l 1
 363 394 324 428 273 428 c 0
 222 428 187 405 181 364 c 0
 174 326 196 307 240 285 c 2
 294 258 l 2
 354 229 380 180 368 112 c 0
 352 32 280 -10 200 -10 c 0
 159 -10 124 4 103 21 c 1
 34 -10 l 1
 76 164 l 1
 94 62 139 22 203 22 c 0
 245 22 278 44 286 85 c 0
 297 142 252 166 196 189 c 0
 125 217 96 256 108 328 c 0
 122 408 188 460 274 460 c 0
 315 460 348 447 362 436 c 1
315 601 m 1
 453 665 l 1
 294 517 l 1
 209 665 l 1
 315 601 l 1
EndSplineSet
EndChar

StartChar: ecircumflex
Encoding: 234 234 255
Width: 441
Flags: MW
HStem: -10 21G<144 261> 255 30 430 30<279.5 323> 645 20G<366 366>
LayerCount: 2
Fore
SplineSet
327 460 m 0
 416 460 463 420 456 357 c 0
 447 277 352 264 275 259 c 2
 166 252 l 1
 164 238 161 224 160 209 c 0
 153 95 215 59 283 65 c 0
 341 71 393 115 428 189 c 1
 395 70 317 -10 205 -10 c 0
 83 -10 35 95 67 225 c 0
 99 355 205 460 327 460 c 0
174 279 m 1
 258 285 l 2
 323 289 355 317 359 357 c 0
 366 408 338 430 308 430 c 0
 251 430 197 362 174 279 c 1
345 580 m 1
 193 500 l 1
 366 665 l 1
 457 500 l 1
 345 580 l 1
EndSplineSet
EndChar

StartChar: icircumflex
Encoding: 238 238 256
Width: 281
Flags: MW
HStem: -10 21G<101 147.5> 645 20G<273 273>
LayerCount: 2
Fore
SplineSet
78 57 m 2
 159 383 l 1
 89 405 l 1
 273 460 l 1
 172 47 l 1
 274 92 l 1
 243 58 177 -10 118 -10 c 0
 84 -10 67 12 78 57 c 2
252 580 m 1
 100 500 l 1
 273 665 l 1
 364 500 l 1
 252 580 l 1
EndSplineSet
EndChar

StartChar: ucircumflex
Encoding: 251 251 257
Width: 525
Flags: MW
HStem: -10 58<128 241.5> 645 20G<380 380>
LayerCount: 2
Fore
SplineSet
86 405 m 1
 269 460 l 1
 197 167 l 2
 177 85 176 48 223 48 c 0
 260 48 312 89 347 133 c 1
 410 383 l 1
 387 390 364 398 341 405 c 1
 402 423 463 442 524 460 c 1
 423 47 l 1
 526 92 l 1
 487 51 427 -10 369 -10 c 0
 332 -10 319 15 329 57 c 2
 340 101 l 1
 299 54 225 -10 171 -10 c 0
 85 -10 72 55 97 154 c 2
 155 383 l 1
 86 405 l 1
359 580 m 1
 207 500 l 1
 380 665 l 1
 471 500 l 1
 359 580 l 1
EndSplineSet
EndChar

StartChar: ocircumflex
Encoding: 244 244 258
Width: 474
Flags: MW
HStem: -10 32<203.5 272.5 203.5 277> 428 32 645 20G<380 380>
LayerCount: 2
Fore
SplineSet
66 225 m 0
 100 361 204 460 330 460 c 0
 449 460 511 361 477 225 c 0
 444 89 340 -10 214 -10 c 0
 95 -10 33 89 66 225 c 0
173 210 m 0
 159 91 172 22 235 22 c 0
 310 22 354 121 370 240 c 0
 386 359 371 427 308 428 c 0
 234 429 189 329 173 210 c 0
359 580 m 1
 207 500 l 1
 380 665 l 1
 471 500 l 1
 359 580 l 1
EndSplineSet
EndChar

StartChar: acircumflex
Encoding: 226 226 259
Width: 499
Flags: MW
HStem: -10 62<116 211> 431 29<302 351 283 355> 645 20G<383 383>
LayerCount: 2
Fore
SplineSet
315 106 m 1
 271 41 215 -10 160 -10 c 0
 72 -10 34 78 72 216 c 0
 117 376 233 460 333 460 c 0
 369 460 396 443 406 417 c 1
 498 460 l 1
 464 322 430 185 397 47 c 1
 499 92 l 1
 461 51 400 -10 343 -10 c 0
 306 -10 294 15 303 57 c 0
 305 65 313 97 315 106 c 1
170 206 m 0
 147 102 165 52 211 52 c 0
 239 53 285 83 321 133 c 1
 378 367 l 2
 384 396 377 431 333 431 c 0
 271 431 200 342 170 206 c 0
362 580 m 1
 210 500 l 1
 383 665 l 1
 474 500 l 1
 362 580 l 1
EndSplineSet
EndChar

StartChar: atilde
Encoding: 227 227 260
Width: 499
Flags: MW
HStem: -10 62<116 211> 431 29<302 351 283 355> 431 150<257 355> 654 20G
LayerCount: 2
Fore
SplineSet
315 106 m 1xb0
 271 41 215 -10 160 -10 c 0
 72 -10 34 78 72 216 c 0
 117 376 233 460 333 460 c 0
 369 460 396 443 406 417 c 1
 498 460 l 1
 464 322 430 185 397 47 c 1
 499 92 l 1
 461 51 400 -10 343 -10 c 0
 306 -10 294 15 303 57 c 0
 305 65 313 97 315 106 c 1xb0
170 206 m 0
 147 102 165 52 211 52 c 0
 239 53 285 83 321 133 c 1
 378 367 l 2
 384 396 377 431 333 431 c 0
 271 431 200 342 170 206 c 0
208 514 m 1
 214 613 270 644 305 649 c 0xd0
 341 655 359 646 388 628 c 0
 425 604 438 596 465 600 c 0
 487 603 519 620 532 674 c 1
 529 576 474 538 430 531 c 0
 391 526 372 532 343 550 c 0
 311 569 294 581 266 581 c 0
 248 581 226 572 208 514 c 1
EndSplineSet
EndChar

StartChar: ntilde
Encoding: 241 241 261
Width: 528
Flags: MW
HStem: -20 20G<64 160 64 64> -10 21G<355 401.5> 400 60 400 181<254 380> 654 20G
LayerCount: 2
Fore
SplineSet
272 460 m 1x58
 244 347 l 1
 284 395 357 460 413 460 c 0
 499 460 511 395 487 296 c 2
 426 47 l 1
 528 92 l 1x68
 497 58 431 -10 372 -10 c 0
 338 -10 321 12 332 57 c 2
 387 283 l 2
 407 365 404 400 356 400 c 0
 326 400 275 364 237 317 c 1
 160 0 l 1
 64 0 l 1
 158 383 l 1
 89 405 l 1
 272 460 l 1x58
205 514 m 1
 211 613 267 644 302 649 c 0
 338 655 356 646 385 628 c 0
 422 604 435 596 462 600 c 0
 484 603 516 620 529 674 c 1xa8
 526 576 471 538 427 531 c 0
 388 526 369 532 340 550 c 0
 308 569 291 581 263 581 c 0
 245 581 223 572 205 514 c 1
EndSplineSet
EndChar

StartChar: otilde
Encoding: 245 245 262
Width: 474
Flags: MW
HStem: -10 32<203.5 272.5 203.5 277> 428 32 428 153 654 20G
LayerCount: 2
Fore
SplineSet
66 225 m 0xb0
 100 361 204 460 330 460 c 0
 449 460 511 361 477 225 c 0
 444 89 340 -10 214 -10 c 0
 95 -10 33 89 66 225 c 0xb0
173 210 m 0
 159 91 172 22 235 22 c 0
 310 22 354 121 370 240 c 0
 386 359 371 427 308 428 c 0
 234 429 189 329 173 210 c 0
202 514 m 1
 208 613 264 644 299 649 c 0
 335 655 353 646 382 628 c 0
 419 604 432 596 459 600 c 0
 481 603 513 620 526 674 c 1
 523 576 468 538 424 531 c 0xd0
 385 526 366 532 337 550 c 0
 305 569 288 581 260 581 c 0
 242 581 220 572 202 514 c 1
EndSplineSet
EndChar

StartChar: Thorn
Encoding: 222 222 263
Width: 570
Flags: MW
HStem: 0 140<257 307> 110 30<257 308 308 326 250 308> 520 30<352 436 360 403> 520 130<352 352 352 403>
LayerCount: 2
Fore
SplineSet
469 650 m 1x90
 372 599 l 1
 360 550 l 1
 436 550 l 2
 580 550 663 470 628 330 c 0
 593 190 470 110 326 110 c 2
 250 110 l 1x60
 235 51 l 1
 307 0 l 1
 27 0 l 1
 123 51 l 1
 260 599 l 1
 189 650 l 1
 469 650 l 1x90
352 520 m 1x90
 257 140 l 1
 308 140 l 2
 392 140 472 200 505 330 c 0
 537 460 487 520 403 520 c 2
 352 520 l 1x90
EndSplineSet
EndChar

StartChar: Eth
Encoding: 208 208 264
Width: 669
Flags: MW
HStem: 0 35<241 328 328 329> 310 32<57 206 65 198 318 447> 615 35<386 473 386 386>
LayerCount: 2
Fore
SplineSet
57 310 m 1
 65 342 l 1
 206 342 l 1
 270 599 l 1
 199 650 l 1
 491 650 l 2
 679 650 768 520 720 327 c 0
 671 134 517 0 329 0 c 2
 37 0 l 1
 133 51 l 1
 198 310 l 1
 57 310 l 1
473 615 m 2
 386 615 l 1
 318 342 l 1
 455 342 l 1
 447 310 l 1
 310 310 l 1
 241 35 l 1
 328 35 l 2
 454 35 545 145 591 327 c 0
 637 509 599 615 473 615 c 2
EndSplineSet
EndChar

StartChar: Icircumflex
Encoding: 206 206 265
Width: 334
Flags: MW
HStem: 0 21G<27 307 27 27> 845 20G<382 382>
LayerCount: 2
Fore
SplineSet
465 650 m 1
 370 599 l 1
 234 51 l 1
 307 0 l 1
 27 0 l 1
 122 51 l 1
 258 599 l 1
 185 650 l 1
 465 650 l 1
359 770 m 1
 198 693 l 1
 382 865 l 1
 482 693 l 1
 359 770 l 1
EndSplineSet
EndChar

StartChar: Acircumflex
Encoding: 194 194 266
Width: 663
Flags: MW
HStem: 0 210<-10 450 402 402 402 450 234 663> 175 35<234 450 234 458 212 450> 845 20G<529 529>
LayerCount: 2
Fore
SplineSet
-10 0 m 1xa0
 95 61 l 1
 491 665 l 1
 596 50 l 1
 663 0 l 1
 402 0 l 1
 479 45 l 1
 458 175 l 1
 212 175 l 1
 132 55 l 1
 197 0 l 1
 -10 0 l 1xa0
405 471 m 1
 234 210 l 1x60
 450 210 l 1
 405 471 l 1
506 770 m 1
 345 693 l 1
 529 865 l 1
 629 693 l 1xa0
 506 770 l 1
EndSplineSet
EndChar

StartChar: Ecircumflex
Encoding: 202 202 267
Width: 596
Flags: MW
HStem: 0 35<231 458 231 560> 320 35<309 416 301 423> 615 35<373 591 373 373> 845 20G<540 540>
LayerCount: 2
Fore
SplineSet
27 0 m 1
 122 51 l 1
 258 599 l 1
 185 650 l 1
 703 650 l 1
 649 430 l 1
 591 615 l 1
 373 615 l 1
 309 355 l 1
 423 355 l 1
 524 458 l 1
 464 218 l 1
 416 320 l 1
 301 320 l 1
 231 35 l 1
 458 35 l 1
 614 220 l 1
 560 0 l 1
 27 0 l 1
517 770 m 1
 330 700 l 1
 540 865 l 1
 668 700 l 1
 517 770 l 1
EndSplineSet
EndChar

StartChar: Ocircumflex
Encoding: 212 212 268
Width: 669
Flags: MW
HStem: -10 32<279.5 398.5 279.5 419> 633 32<429.5 548.5> 845 20G<544 544>
LayerCount: 2
Fore
SplineSet
110 327 m 0
 157 517 319 665 496 665 c 0
 674 665 766 517 719 327 c 0
 672 137 508 -10 330 -10 c 0
 153 -10 63 137 110 327 c 0
240 327 m 0
 196 148 220 22 339 22 c 0
 458 22 546 148 590 327 c 0
 634 506 608 633 489 633 c 0
 370 633 284 506 240 327 c 0
521 770 m 1
 334 700 l 1
 544 865 l 1
 672 700 l 1
 521 770 l 1
EndSplineSet
EndChar

StartChar: Ntilde
Encoding: 209 209 269
Width: 712
Flags: MW
HStem: -20 20G<27 266 27 27> -15 21G<591 591> 865 20G
LayerCount: 2
Fore
SplineSet
180 63 m 1x60
 266 0 l 1
 27 0 l 1
 131 63 l 1
 259 578 l 1
 185 650 l 1
 361 650 l 1
 599 219 l 1
 690 587 l 1
 614 650 l 1
 843 650 l 1
 739 587 l 1
 591 -15 l 1
 294 523 l 1
 180 63 l 1x60
385 719 m 1
 391 818 448 854 486 860 c 0
 525 867 550 857 579 839 c 0
 617 814 640 807 667 811 c 0
 688 814 722 832 736 885 c 1
 733 787 677 743 629 736 c 0
 591 730 563 737 533 754 c 0
 501 774 473 786 445 786 c 0xa0
 427 786 403 777 385 719 c 1
EndSplineSet
EndChar

StartChar: Otilde
Encoding: 213 213 270
Width: 669
Flags: MW
HStem: -10 32<279.5 398.5 279.5 419> 633 32<429.5 548.5> 633 153<429.5 446 423 548.5> 865 20G
LayerCount: 2
Fore
SplineSet
110 327 m 0xb0
 157 517 319 665 496 665 c 0
 674 665 766 517 719 327 c 0
 672 137 508 -10 330 -10 c 0
 153 -10 63 137 110 327 c 0xb0
240 327 m 0
 196 148 220 22 339 22 c 0
 458 22 546 148 590 327 c 0
 634 506 608 633 489 633 c 0
 370 633 284 506 240 327 c 0
372 719 m 1
 378 818 435 854 473 860 c 0
 512 867 537 857 566 839 c 0
 604 814 627 807 654 811 c 0
 675 814 709 832 723 885 c 1
 720 787 664 743 616 736 c 0xd0
 578 730 550 737 520 754 c 0
 488 774 460 786 432 786 c 0
 414 786 390 777 372 719 c 1
EndSplineSet
EndChar

StartChar: Oslash
Encoding: 216 216 271
Width: 669
Flags: MW
HStem: -30 21G<151 151> -10 32<314.5 398.5 314.5 419> 633 32<429.5 513.5> 665 20G
LayerCount: 2
Fore
SplineSet
680 685 m 1x50
 710 665 l 1
 661 604 l 1
 724 543 747 443 719 327 c 0
 672 137 508 -10 330 -10 c 0x60
 277 -10 232 3 196 26 c 1
 151 -30 l 1xa0
 121 -10 l 1
 168 48 l 1
 104 108 80 209 110 327 c 0
 157 517 319 665 496 665 c 0
 550 665 596 651 633 626 c 1
 680 685 l 1x50
240 327 m 0x50
 220 245 215 175 228 122 c 1
 589 572 l 1
 571 611 538 633 489 633 c 0x60
 370 633 284 506 240 327 c 0x50
590 327 m 0
 609 408 614 478 602 530 c 1
 240 81 l 1
 259 43 290 22 339 22 c 0
 458 22 546 148 590 327 c 0
EndSplineSet
EndChar

StartChar: Ucircumflex
Encoding: 219 219 272
Width: 720
Flags: MW
HStem: -10 54<319 462.5> 845 20G<568 568>
LayerCount: 2
Fore
SplineSet
255 599 m 1
 182 650 l 1
 462 650 l 1
 367 599 l 1
 284 263 l 2
 260 163 247 44 391 44 c 0
 535 44 597 164 619 254 c 2
 701 587 l 1
 625 650 l 1
 854 650 l 1
 750 587 l 1
 668 259 l 2
 640 143 557 -10 368 -10 c 0
 156 -10 138 128 169 254 c 2
 255 599 l 1
545 770 m 1
 358 700 l 1
 568 865 l 1
 696 700 l 1
 545 770 l 1
EndSplineSet
EndChar

StartChar: Atilde
Encoding: 195 195 273
Width: 663
Flags: MW
HStem: 0 210<-10 450 402 402 402 450 234 663> 175 35<234 450 234 458 212 450> 865 20G
LayerCount: 2
Fore
SplineSet
-10 0 m 1xa0
 95 61 l 1
 491 665 l 1
 596 50 l 1
 663 0 l 1
 402 0 l 1
 479 45 l 1
 458 175 l 1
 212 175 l 1
 132 55 l 1
 197 0 l 1
 -10 0 l 1xa0
405 471 m 1
 234 210 l 1
 450 210 l 1
 405 471 l 1
342 719 m 1
 348 818 405 854 443 860 c 0
 482 867 507 857 536 839 c 0
 574 814 597 807 624 811 c 0
 645 814 679 832 693 885 c 1xa0
 690 787 634 743 586 736 c 0
 548 730 520 737 490 754 c 0
 458 774 430 786 402 786 c 0x60
 384 786 360 777 342 719 c 1
EndSplineSet
EndChar

StartChar: aring
Encoding: 229 229 274
Width: 499
Flags: MW
HStem: -10 62<116 211> 431 29<302 351 283 355> 501 34<343 368.5 343 370> 631 34<366.5 392>
LayerCount: 2
Fore
SplineSet
315 106 m 1
 271 41 215 -10 160 -10 c 0
 72 -10 34 78 72 216 c 0
 117 376 233 460 333 460 c 0
 369 460 396 443 406 417 c 1
 498 460 l 1
 464 322 430 185 397 47 c 1
 499 92 l 1
 461 51 400 -10 343 -10 c 0
 306 -10 294 15 303 57 c 0
 305 65 313 97 315 106 c 1
170 206 m 0
 147 102 165 52 211 52 c 0
 239 53 285 83 321 133 c 1
 378 367 l 2
 384 396 377 431 333 431 c 0
 271 431 200 342 170 206 c 0
286 583 m 0
 297 629 342 665 388 665 c 0
 434 665 461 629 450 583 c 0
 438 537 393 501 347 501 c 0
 301 501 274 537 286 583 c 0
320 583 m 0
 313 557 330 535 356 535 c 0
 381 535 409 557 416 583 c 0
 422 609 405 631 379 631 c 0
 354 631 327 609 320 583 c 0
EndSplineSet
EndChar

StartChar: Aring
Encoding: 197 197 275
Width: 663
Flags: MW
HStem: 0 210<-10 450 402 402 402 450 234 663> 175 35<234 450 234 458 212 450> 701 34<498.5 524 498.5 526> 831 34<522 548>
LayerCount: 2
Fore
SplineSet
-10 0 m 1xb0
 95 61 l 1
 491 665 l 1
 596 50 l 1
 663 0 l 1
 402 0 l 1xb0
 479 45 l 1
 458 175 l 1
 212 175 l 1x70
 132 55 l 1
 197 0 l 1
 -10 0 l 1xb0
405 471 m 1
 234 210 l 1
 450 210 l 1
 405 471 l 1
442 783 m 0
 453 829 498 865 544 865 c 0
 590 865 617 829 606 783 c 0
 594 737 549 701 503 701 c 0
 457 701 430 737 442 783 c 0
476 783 m 0
 469 757 486 735 511 735 c 0
 537 735 565 757 571 783 c 0
 577 809 561 831 535 831 c 0
 509 831 482 809 476 783 c 0
EndSplineSet
EndChar

StartChar: germandbls
Encoding: 223 223 276
Width: 567
Flags: MW
HStem: -20 20G<86 183 86 86> -10 32<377 422 371 432> 633 32<421.5 501>
LayerCount: 2
Fore
SplineSet
321 21 m 1x60
 251 -10 l 1
 294 164 l 1
 312 62 339 22 403 22 c 0
 441 22 478 60 480 101 c 0
 484 149 446 167 396 189 c 0
 326 220 317 260 331 318 c 0
 359 434 531 452 554 547 c 0
 567 595 540 633 462 633 c 0
 381 633 324 568 297 460 c 2x60
 183 0 l 1
 86 0 l 1
 199 454 l 2
 236 600 364 665 469 665 c 0
 580 665 605 601 590 546 c 0
 565 452 419 420 403 352 c 0
 392 308 408 302 497 255 c 0
 561 221 579 181 565 125 c 0xa0
 544 38 470 -10 394 -10 c 0
 360 -10 339 2 321 21 c 1x60
EndSplineSet
EndChar

StartChar: Ccedilla
Encoding: 199 199 277
Width: 620
Flags: MW
HStem: -220 61<235.5 248.5 225.5 274.5> -97 152 -9 64 632 33<444.5 531 407 561.5>
LayerCount: 2
Fore
SplineSet
312 -134 m 0xb0
 313 -105 290 -97 272 -97 c 0xd0
 251 -97 234 -102 222 -107 c 1
 316 -9 l 1
 145 0 65 143 111 327 c 0
 159 517 315 665 499 665 c 0
 563 665 600 652 633 620 c 1
 664 635 694 650 724 665 c 1
 663 420 l 1
 646 542 615 632 508 632 c 0
 381 632 283 505 239 330 c 0
 200 173 254 63 371 55 c 0
 482 44 575 118 629 227 c 1
 585 89 471 -5 344 -10 c 1
 327 -25 311 -41 297 -56 c 1
 342 -56 361 -90 349 -138 c 0
 338 -185 296 -220 253 -220 c 0
 218 -220 202 -203 207 -182 c 0
 209 -171 219 -159 232 -159 c 0
 265 -159 227 -207 266 -201 c 0
 287 -198 310 -171 312 -134 c 0xb0
EndSplineSet
EndChar

StartChar: AE
Encoding: 198 198 278
Width: 922
Flags: MW
HStem: 0 35<557 784 557 886> 200 35<271 486 240 495> 320 35<637 743 628 751> 615 35<702 920 702 702>
LayerCount: 2
Fore
SplineSet
-30 0 m 1
 76 61 l 1
 562 609 l 1
 489 650 l 1
 1033 650 l 1
 978 430 l 1
 920 615 l 1
 702 615 l 1
 637 355 l 1
 751 355 l 1
 852 458 l 1
 792 218 l 1
 743 320 l 1
 628 320 l 1
 557 35 l 1
 784 35 l 1
 940 220 l 1
 886 0 l 1
 353 0 l 1
 449 51 l 1
 486 200 l 1
 240 200 l 1
 114 55 l 1
 177 0 l 1
 -30 0 l 1
271 235 m 1
 495 235 l 1
 584 590 l 1
 271 235 l 1
EndSplineSet
EndChar

StartChar: ccedilla
Encoding: 231 231 279
Width: 432
Flags: MW
HStem: -220 61<123.5 136 113.5 162.5> -97 41<149 207> 297 163<366.5 372 266.5 397.5> 430 30<275.5 333>
LayerCount: 2
Fore
SplineSet
199 -134 m 0xd0
 201 -105 178 -97 160 -97 c 0
 138 -97 121 -102 109 -107 c 1
 201 -10 l 1
 87 -5 35 95 67 225 c 0
 100 358 206 460 327 460 c 0
 417 460 459 410 446 351 c 0
 440 320 412 297 383 297 c 0xe0
 350 297 345 326 350 348 c 0
 364 406 355 430 311 430 c 0
 240 430 169 328 161 209 c 0
 155 92 215 59 281 65 c 0
 337 71 393 115 427 189 c 1
 393 69 321 0 228 -9 c 1
 184 -56 l 1
 230 -56 249 -90 237 -138 c 0
 225 -185 184 -220 141 -220 c 0
 106 -220 90 -203 94 -182 c 0
 97 -171 107 -159 120 -159 c 0
 152 -159 115 -207 153 -201 c 0
 175 -198 197 -171 199 -134 c 0xd0
EndSplineSet
EndChar

StartChar: cent
Encoding: 162 162 280
Width: 444
Flags: MW
HStem: -150 21G<165 205 165 165> 297 163<357 436.5> 580 20G<352 392 392 392>
LayerCount: 2
Fore
SplineSet
352 600 m 1
 392 600 l 1
 357 460 l 1
 453 458 497 409 484 351 c 0
 478 320 451 297 422 297 c 0
 389 297 383 326 388 348 c 0
 400 396 385 427 350 430 c 1
 260 70 l 1
 274 68 290 68 304 70 c 0
 353 78 412 116 457 182 c 1
 421 72 336 -2 240 -9 c 1
 205 -150 l 1
 165 -150 l 1
 201 -8 l 1
 89 3 46 100 78 225 c 0
 108 345 207 440 316 457 c 1
 352 600 l 1
172 209 m 0
 167 142 190 103 223 83 c 1
 308 425 l 1
 240 405 179 318 172 209 c 0
EndSplineSet
EndChar

StartChar: currency
Encoding: 164 164 281
Width: 530
Flags: MW
HStem: 139 21G<143 143 454 454> 184 43<294 325.5> 423 43<365 396.5 365 397> 491 20G<236 236 547 547>
LayerCount: 2
Fore
SplineSet
121 170 m 1
 211 242 l 1
 200 265 197 294 205 325 c 0
 212 356 229 385 252 408 c 1
 198 480 l 1
 236 511 l 1
 290 438 l 1
 318 456 349 466 381 466 c 0
 412 466 438 456 457 439 c 1
 547 511 l 1
 569 480 l 1
 480 409 l 1
 492 385 494 356 487 325 c 0
 479 294 461 265 438 241 c 1
 492 170 l 1
 454 139 l 1
 400 211 l 1
 372 194 341 184 310 184 c 0
 278 184 252 194 233 211 c 1
 143 139 l 1
 121 170 l 1
248 325 m 0
 234 271 267 227 321 227 c 0
 375 227 430 271 444 325 c 0
 457 379 424 423 370 423 c 0
 316 423 261 379 248 325 c 0
EndSplineSet
EndChar

StartChar: eth
Encoding: 240 240 282
Width: 480
Flags: MW
HStem: -10 32<200 270 200 281> 428 32 428 237 657 20G<493 493>
LayerCount: 2
Fore
SplineSet
257 505 m 1xd0
 241 532 l 1
 342 590 l 1
 301 641 240 662 168 650 c 1
 192 658 228 665 262 665 c 0xa0
 311 665 355 648 392 618 c 1
 493 677 l 1
 509 650 l 1
 415 596 l 1
 479 526 509 411 483 278 c 0
 450 107 352 -10 210 -10 c 0
 91 -10 32 96 62 235 c 0
 92 377 203 460 298 460 c 0
 348 460 380 431 391 400 c 1
 394 467 382 522 359 563 c 1
 257 505 l 1xd0
170 210 m 0
 157 91 168 22 232 22 c 0
 308 22 352 121 367 240 c 0
 383 359 360 427 305 428 c 0
 238 429 186 329 170 210 c 0
EndSplineSet
EndChar

StartChar: OE
Encoding: 338 338 283
Width: 881
Flags: MW
HStem: 0 35<246 424 357 424 536 743> 320 35<616 705 607 713> 615 35<439 992 502 569 681 879 681 681>
LayerCount: 2
Fore
SplineSet
502 650 m 2
 992 650 l 1
 937 430 l 1
 879 615 l 1
 681 615 l 1
 616 355 l 1
 713 355 l 1
 814 458 l 1
 754 218 l 1
 705 320 l 1
 607 320 l 1
 536 35 l 1
 743 35 l 1
 899 220 l 1
 845 0 l 1
 340 0 l 2
 152 0 62 134 111 327 c 0
 159 520 314 650 502 650 c 2
569 615 m 1
 502 615 l 2
 376 615 286 509 240 327 c 0
 194 145 231 35 357 35 c 2
 424 35 l 1
 569 615 l 1
EndSplineSet
EndChar

StartChar: yen
Encoding: 165 165 284
Width: 682
Flags: MW
HStem: 0 176<212 339 451 492 212 212> 144 32<196 331 188 339 451 586> 234 32<210 361 218 353 473 608> 630 20G<172 438 438 438 628 837 837 837>
LayerCount: 2
Fore
SplineSet
210 234 m 1xb0
 213 245 215 255 218 266 c 1
 361 266 l 1
 363 271 365 277 366 282 c 0
 323 389 281 496 239 602 c 1
 216 618 194 634 172 650 c 1
 438 650 l 1
 413 636 387 622 362 608 c 1
 397 521 433 433 468 345 c 1
 539 429 611 513 682 597 c 1
 664 614 646 632 628 650 c 1
 837 650 l 1
 800 631 764 611 727 592 c 1
 646 496 564 399 483 303 c 1
 480 291 477 278 473 266 c 1
 616 266 l 1
 613 255 611 245 608 234 c 1
 465 234 l 1
 460 215 456 195 451 176 c 1
 594 176 l 1
 591 165 589 155 586 144 c 1
 443 144 l 1x70
 436 113 428 82 420 51 c 1
 444 34 468 17 492 0 c 1
 212 0 l 1xb0
 244 17 276 34 308 51 c 1
 316 82 324 113 331 144 c 1
 188 144 l 1x70
 191 155 193 165 196 176 c 1
 339 176 l 1
 344 195 348 215 353 234 c 1
 210 234 l 1xb0
EndSplineSet
EndChar

StartChar: Dcroat
Encoding: 272 272 285
Width: 669
Flags: MW
HStem: 0 35<241 328 328 329> 310 32<57 206 65 198 318 447> 615 35<386 473 386 386>
LayerCount: 2
Fore
SplineSet
57 310 m 1
 65 342 l 1
 206 342 l 1
 270 599 l 1
 199 650 l 1
 491 650 l 2
 679 650 768 520 720 327 c 0
 671 134 517 0 329 0 c 2
 37 0 l 1
 133 51 l 1
 198 310 l 1
 57 310 l 1
473 615 m 2
 386 615 l 1
 318 342 l 1
 455 342 l 1
 447 310 l 1
 310 310 l 1
 241 35 l 1
 328 35 l 2
 454 35 545 145 591 327 c 0
 637 509 599 615 473 615 c 2
EndSplineSet
EndChar

StartChar: Sacute
Encoding: 346 346 286
Width: 543
Flags: MW
HStem: -10 32<267.5 351 249 374.5> 633 32<381.5 452.5 372 464> 665 225<372 583 459 633>
LayerCount: 2
Fore
SplineSet
633 665 m 1xa0
 575 430 l 1
 559 560 513 633 415 633 c 0
 348 633 268 598 251 530 c 0
 238 479 272 454 323 430 c 2
 466 362 l 2
 527 334 582 287 554 173 c 0
 532 83 446 -10 303 -10 c 0
 232 -10 175 20 154 53 c 1
 58 -10 l 1
 122 249 l 1
 140 116 187 22 311 22 c 0
 391 22 456 64 473 132 c 0
 490 199 438 227 401 245 c 2
 260 313 l 2xc0
 196 343 155 393 176 477 c 0
 208 608 322 665 422 665 c 0
 483 665 526 644 550 621 c 1
 633 665 l 1xa0
411 701 m 1
 459 890 l 1
 583 890 l 1
 411 701 l 1
EndSplineSet
EndChar

StartChar: Tcaron
Encoding: 356 356 287
Width: 637
Flags: MW
HStem: 0 21G<162 482 162 162> 615 35<290 416 290 290 528 654 528 528> 845 20G<389 389 667 667>
LayerCount: 2
Fore
SplineSet
772 650 m 1
 718 430 l 1
 654 615 l 1
 528 615 l 1
 391 61 l 1
 482 0 l 1
 162 0 l 1
 279 61 l 1
 416 615 l 1
 290 615 l 1
 134 430 l 1
 188 650 l 1
 772 650 l 1
513 804 m 1
 667 865 l 1
 490 710 l 1
 389 865 l 1
 513 804 l 1
EndSplineSet
EndChar

StartChar: Zacute
Encoding: 377 377 288
Width: 582
Flags: MW
HStem: 0 35<188 440 188 542> 615 35<320 545 320 320> 650 240<486 610 486 700 486 700>
LayerCount: 2
Fore
SplineSet
164 430 m 1xa0
 218 650 l 1
 700 650 l 1
 188 35 l 1
 440 35 l 1
 596 220 l 1
 542 0 l 1
 34 0 l 1
 545 615 l 1
 320 615 l 1
 164 430 l 1xa0
417 701 m 1
 486 890 l 1xc0
 610 890 l 1
 417 701 l 1
EndSplineSet
EndChar

StartChar: sacute
Encoding: 347 347 289
Width: 413
Flags: MW
HStem: -10 32<179.5 224 171 240> 428 32<247.5 294.5 231 298.5> 670 20G<322 446 446 446>
LayerCount: 2
Fore
SplineSet
362 436 m 1
 419 460 l 1
 375 288 l 1
 363 394 324 428 273 428 c 0
 222 428 187 405 181 364 c 0
 174 326 196 307 240 285 c 2
 294 258 l 2
 354 229 380 180 368 112 c 0
 352 32 280 -10 200 -10 c 0
 159 -10 124 4 103 21 c 1
 34 -10 l 1
 76 164 l 1
 94 62 139 22 203 22 c 0
 245 22 278 44 286 85 c 0
 297 142 252 166 196 189 c 0
 125 217 96 256 108 328 c 0
 122 408 188 460 274 460 c 0
 315 460 348 447 362 436 c 1
253 501 m 1
 322 690 l 1
 446 690 l 1
 253 501 l 1
EndSplineSet
EndChar

StartChar: zacute
Encoding: 378 378 290
Width: 424
Flags: MW
HStem: -10 90<291 301> 10 70 10 90<100 215> 364 86<161 343 161 161> 670 20G<326 450 450 450>
LayerCount: 2
Fore
SplineSet
11 -10 m 1x98
 343 364 l 1
 161 364 l 1
 107 297 l 1
 149 450 l 1x38
 467 450 l 1x98
 147 93 l 1
 165 98 173 100 193 100 c 0
 237 100 267 80 315 80 c 0x58
 346 80 389 92 423 135 c 1
 382 59 339 -10 263 -10 c 0
 216 -10 171 10 121 10 c 0
 79 10 48 5 11 -10 c 1x98
257 501 m 1
 326 690 l 1
 450 690 l 1
 257 501 l 1
EndSplineSet
EndChar

StartChar: Lslash
Encoding: 321 321 291
Width: 609
Flags: MW
HStem: 0 35<237 474 237 576> 630 20G<195 495 495 495>
LayerCount: 2
Fore
SplineSet
54 205 m 1
 44 232 l 1
 193 307 l 1
 266 599 l 1
 195 650 l 1
 495 650 l 1
 376 589 l 1
 321 372 l 1
 470 447 l 1
 479 420 l 1
 312 335 l 1
 237 35 l 1
 474 35 l 1
 630 220 l 1
 576 0 l 1
 33 0 l 1
 129 51 l 1
 184 271 l 1
 54 205 l 1
EndSplineSet
EndChar

StartChar: Aogonek
Encoding: 260 260 292
Width: 663
Flags: MW
HStem: -197 67<509.5 519.5> 0 210<-10 451 402 402 402 451 235 517 235 548 235 663> 175 35<235 451 235 458 213 451> 645 20G<494 494>
LayerCount: 2
Fore
SplineSet
-10 0 m 1xd0
 96 61 l 1
 494 665 l 1
 596 50 l 1
 663 0 l 1
 548 0 l 1
 526 -24 504 -47 495 -72 c 0
 483 -109 495 -130 524 -130 c 0
 560 -130 583 -96 593 -77 c 1
 592 -121 555 -197 484 -197 c 0
 442 -197 417 -168 430 -116 c 0
 441 -69 481 -29 517 0 c 1
 402 0 l 1xd0
 480 45 l 1
 458 175 l 1
 213 175 l 1xb0
 134 55 l 1
 197 0 l 1
 -10 0 l 1xd0
408 471 m 1
 235 210 l 1
 451 210 l 1
 408 471 l 1
EndSplineSet
EndChar

StartChar: Scommaaccent
Encoding: 536 536 293
Width: 543
Flags: MW
HStem: -358 21G -207 120<198.5 272> -10 32<267.5 351 249 374.5> 633 32<381.5 452.5 372 464>
LayerCount: 2
Fore
SplineSet
633 665 m 1
 575 430 l 1
 559 560 513 633 415 633 c 0
 348 633 268 598 251 530 c 0
 238 479 272 454 323 430 c 2
 466 362 l 2
 527 334 582 287 554 173 c 0
 532 83 446 -10 303 -10 c 0
 232 -10 175 20 154 53 c 1
 58 -10 l 1
 122 249 l 1
 140 116 187 22 311 22 c 0
 391 22 456 64 473 132 c 0
 490 199 438 227 401 245 c 2
 260 313 l 2
 196 343 155 393 176 477 c 0
 208 608 322 665 422 665 c 0
 483 665 526 644 550 621 c 1
 633 665 l 1
173 -148 m 0
 181 -114 212 -87 251 -87 c 0
 293 -87 323 -112 304 -187 c 0
 287 -254 221 -325 133 -358 c 1
 208 -321 251 -247 257 -196 c 1
 244 -203 232 -207 216 -207 c 0
 181 -207 164 -181 173 -148 c 0
EndSplineSet
EndChar

StartChar: Zdotaccent
Encoding: 379 379 294
Width: 582
Flags: MW
HStem: 0 35<188 440 188 542> 615 35<320 545 320 320> 740 120<478 481>
LayerCount: 2
Fore
SplineSet
164 430 m 1
 218 650 l 1
 700 650 l 1
 188 35 l 1
 440 35 l 1
 596 220 l 1
 542 0 l 1
 34 0 l 1
 545 615 l 1
 320 615 l 1
 164 430 l 1
420 799 m 0
 427 833 461 860 495 860 c 0
 529 860 547 833 540 799 c 0
 531 766 498 740 464 740 c 0
 431 740 411 766 420 799 c 0
EndSplineSet
EndChar

StartChar: zdotaccent
Encoding: 380 380 295
Width: 424
Flags: MW
HStem: -10 90<291 301> 10 70 364 86<161 343 343 343> 540 120<329 332>
LayerCount: 2
Fore
SplineSet
11 -10 m 1xb0
 48 5 79 10 121 10 c 0x70
 171 10 216 -10 263 -10 c 0
 339 -10 382 59 423 135 c 1
 389 92 346 80 315 80 c 0
 267 80 237 100 193 100 c 0
 173 100 165 98 147 93 c 1
 467 450 l 1
 149 450 l 1
 107 297 l 1
 161 364 l 1
 343 364 l 1
 11 -10 l 1xb0
271 599 m 0
 278 633 312 660 346 660 c 0
 380 660 398 633 391 599 c 0
 382 566 349 540 315 540 c 0
 282 540 262 566 271 599 c 0
EndSplineSet
EndChar

StartChar: Racute
Encoding: 340 340 296
Width: 663
Flags: MW
HStem: 0 21G<27 307 27 27 478 666 478 478> 296 35<303 334 295 390> 615 35<373 373 373 457> 650 240<185 626 502 550.5>
LayerCount: 2
Fore
SplineSet
185 650 m 1xd0
 484 650 l 2
 617 650 713 608 681 478 c 0
 659 381 573 316 453 305 c 1
 521 294 551 257 566 192 c 2
 595 53 l 1
 666 0 l 1
 478 0 l 1
 440 210 l 2
 427 269 391 296 334 296 c 2
 295 296 l 1xe0
 234 51 l 1
 307 0 l 1
 27 0 l 1
 122 51 l 1
 258 599 l 1
 185 650 l 1xd0
373 615 m 1
 303 331 l 1
 390 331 l 2
 465 331 537 383 559 478 c 0
 585 583 527 615 457 615 c 2
 373 615 l 1
427 701 m 1
 502 890 l 1
 626 890 l 1
 427 701 l 1
EndSplineSet
EndChar

StartChar: Abreve
Encoding: 258 258 297
Width: 663
Flags: MW
HStem: 0 210<-10 450 402 402 402 450 234 663> 175 35<234 450 234 458 212 450> 737 63<499.5 549.5> 844 20G
LayerCount: 2
Fore
SplineSet
-10 0 m 1xb0
 95 61 l 1
 491 665 l 1
 596 50 l 1
 663 0 l 1
 402 0 l 1xb0
 479 45 l 1
 458 175 l 1
 212 175 l 1x70
 132 55 l 1
 197 0 l 1
 -10 0 l 1xb0
405 471 m 1
 234 210 l 1
 450 210 l 1
 405 471 l 1
510 737 m 0
 430 737 397 791 406 864 c 1
 429 815 473 800 526 800 c 0
 579 800 631 815 678 864 c 1
 650 791 589 737 510 737 c 0
EndSplineSet
EndChar

StartChar: Lacute
Encoding: 313 313 298
Width: 603
Flags: MW
HStem: 0 35<231 468 231 570> 870 20G<406 530 530 530>
LayerCount: 2
Fore
SplineSet
624 220 m 1
 570 0 l 1
 27 0 l 1
 122 51 l 1
 258 599 l 1
 185 650 l 1
 485 650 l 1
 366 589 l 1
 231 35 l 1
 468 35 l 1
 624 220 l 1
331 701 m 1
 406 890 l 1
 530 890 l 1
 331 701 l 1
EndSplineSet
EndChar

StartChar: Cacute
Encoding: 262 262 299
Width: 620
Flags: MW
HStem: -10 63<320.5 398.5> 632 33<441.5 528 404 558.5> 665 225<404 660 536 721>
LayerCount: 2
Fore
SplineSet
721 665 m 1xa0
 661 420 l 1
 644 542 612 632 505 632 c 0
 378 632 280 505 238 330 c 0
 198 166 256 53 385 53 c 0
 488 53 575 121 627 227 c 1
 583 85 464 -10 333 -10 c 0xc0
 149 -10 63 137 110 327 c 0
 157 517 312 665 496 665 c 0
 560 665 598 652 631 620 c 1
 721 665 l 1xa0
461 701 m 1
 536 890 l 1
 660 890 l 1
 461 701 l 1
EndSplineSet
EndChar

StartChar: Ccaron
Encoding: 268 268 300
Width: 620
Flags: MW
HStem: -10 63<320.5 398.5> 632 33<441.5 528 404 558.5> 845 20G<399 399 677 677>
LayerCount: 2
Fore
SplineSet
721 665 m 1
 661 420 l 1
 644 542 612 632 505 632 c 0
 378 632 280 505 238 330 c 0
 198 166 256 53 385 53 c 0
 488 53 575 121 627 227 c 1
 583 85 464 -10 333 -10 c 0
 149 -10 63 137 110 327 c 0
 157 517 312 665 496 665 c 0
 560 665 598 652 631 620 c 1
 721 665 l 1
523 804 m 1
 677 865 l 1
 500 710 l 1
 399 865 l 1
 523 804 l 1
EndSplineSet
EndChar

StartChar: Eogonek
Encoding: 280 280 301
Width: 596
Flags: MW
HStem: -197 67<485.5 495.5> 0 35<231 458 231 493> 320 35<311 417 302 425> 615 35<376 594 376 376>
LayerCount: 2
Fore
SplineSet
27 0 m 1
 123 51 l 1
 260 599 l 1
 189 650 l 1
 707 650 l 1
 652 430 l 1
 594 615 l 1
 376 615 l 1
 311 355 l 1
 425 355 l 1
 526 458 l 1
 466 218 l 1
 417 320 l 1
 302 320 l 1
 231 35 l 1
 458 35 l 1
 614 220 l 1
 560 0 l 1
 524 0 l 1
 502 -24 480 -47 471 -72 c 0
 459 -109 471 -130 500 -130 c 0
 536 -130 559 -96 569 -77 c 1
 568 -121 531 -197 460 -197 c 0
 418 -197 393 -168 406 -116 c 0
 417 -69 457 -29 493 0 c 1
 27 0 l 1
EndSplineSet
EndChar

StartChar: Ecaron
Encoding: 282 282 302
Width: 596
Flags: MW
HStem: 0 35<231 458 231 560> 320 35<309 416 301 423> 615 35<373 591 373 373> 845 20G<376 376 654 654>
LayerCount: 2
Fore
SplineSet
27 0 m 1
 122 51 l 1
 258 599 l 1
 185 650 l 1
 703 650 l 1
 649 430 l 1
 591 615 l 1
 373 615 l 1
 309 355 l 1
 423 355 l 1
 524 458 l 1
 464 218 l 1
 416 320 l 1
 301 320 l 1
 231 35 l 1
 458 35 l 1
 614 220 l 1
 560 0 l 1
 27 0 l 1
500 804 m 1
 654 865 l 1
 477 710 l 1
 376 865 l 1
 500 804 l 1
EndSplineSet
EndChar

StartChar: Dcaron
Encoding: 270 270 303
Width: 659
Flags: MW
HStem: 0 35<231 318 318 319> 615 35<373 460 373 373> 845 20G<349 349 627 627>
LayerCount: 2
Fore
SplineSet
185 650 m 1
 477 650 l 2
 665 650 756 520 709 327 c 0
 661 134 507 0 319 0 c 2
 27 0 l 1
 122 51 l 1
 258 599 l 1
 185 650 l 1
460 615 m 2
 373 615 l 1
 231 35 l 1
 318 35 l 2
 444 35 535 145 580 327 c 0
 625 509 586 615 460 615 c 2
473 804 m 1
 627 865 l 1
 450 710 l 1
 349 865 l 1
 473 804 l 1
EndSplineSet
EndChar

StartChar: Nacute
Encoding: 323 323 304
Width: 712
Flags: MW
HStem: -20 20G<27 266 27 27> -15 21G<591 591> 870 20G<549 673 673 673>
LayerCount: 2
Fore
SplineSet
180 63 m 1x60
 266 0 l 1
 27 0 l 1
 131 63 l 1
 259 578 l 1
 185 650 l 1
 361 650 l 1
 599 219 l 1
 690 587 l 1
 614 650 l 1
 843 650 l 1
 739 587 l 1
 591 -15 l 1
 294 523 l 1
 180 63 l 1x60
474 701 m 1
 549 890 l 1
 673 890 l 1xa0
 474 701 l 1
EndSplineSet
EndChar

StartChar: Ncaron
Encoding: 327 327 305
Width: 712
Flags: MW
HStem: -20 20G<27 266 27 27> -15 21G<591 591> 845 20G<409 409 687 687>
LayerCount: 2
Fore
SplineSet
180 63 m 1x60
 266 0 l 1
 27 0 l 1
 131 63 l 1
 259 578 l 1
 185 650 l 1
 361 650 l 1
 599 219 l 1
 690 587 l 1
 614 650 l 1
 843 650 l 1
 739 587 l 1
 591 -15 l 1
 294 523 l 1
 180 63 l 1x60
533 804 m 1
 687 865 l 1
 510 710 l 1
 409 865 l 1xa0
 533 804 l 1
EndSplineSet
EndChar

StartChar: Ohungarumlaut
Encoding: 336 336 306
Width: 669
Flags: MW
HStem: -10 32<279.5 398.5 279.5 419> 633 32<429.5 548.5> 665 225<470 585>
LayerCount: 2
Fore
SplineSet
110 327 m 0xa0
 157 517 319 665 496 665 c 0
 674 665 766 517 719 327 c 0
 672 137 508 -10 330 -10 c 0
 153 -10 63 137 110 327 c 0xa0
240 327 m 0
 196 148 220 22 339 22 c 0
 458 22 546 148 590 327 c 0
 634 506 608 633 489 633 c 0
 370 633 284 506 240 327 c 0
395 701 m 1
 470 890 l 1
 594 890 l 1
 395 701 l 1
564 701 m 1
 639 890 l 1
 763 890 l 1
 564 701 l 1
EndSplineSet
EndChar

StartChar: Rcaron
Encoding: 344 344 307
Width: 663
Flags: MW
HStem: 0 21G<27 307 27 27 478 666 478 478> 296 35<303 334 295 390> 615 35<373 373 373 457> 845 20G<359 359 637 637>
LayerCount: 2
Fore
SplineSet
185 650 m 1
 484 650 l 2
 617 650 713 608 681 478 c 0
 659 381 573 316 453 305 c 1
 521 294 551 257 566 192 c 2
 595 53 l 1
 666 0 l 1
 478 0 l 1
 440 210 l 2
 427 269 391 296 334 296 c 2
 295 296 l 1
 234 51 l 1
 307 0 l 1
 27 0 l 1
 122 51 l 1
 258 599 l 1
 185 650 l 1
373 615 m 1
 303 331 l 1
 390 331 l 2
 465 331 537 383 559 478 c 0
 585 583 527 615 457 615 c 2
 373 615 l 1
483 804 m 1
 637 865 l 1
 460 710 l 1
 359 865 l 1
 483 804 l 1
EndSplineSet
EndChar

StartChar: Uring
Encoding: 366 366 308
Width: 720
Flags: MW
HStem: -10 54<319 462.5> 701 34<535.5 561 535.5 563> 735 96<559 561> 831 34<559 585>
LayerCount: 2
Fore
SplineSet
182 650 m 1
 255 599 l 1
 169 254 l 2
 138 128 156 -10 368 -10 c 0
 557 -10 640 143 668 259 c 2
 750 587 l 1
 854 650 l 1
 625 650 l 1
 701 587 l 1
 619 254 l 2
 597 164 535 44 391 44 c 0
 247 44 260 163 284 263 c 2
 367 599 l 1
 462 650 l 1
 182 650 l 1
479 783 m 0
 490 829 535 865 581 865 c 0
 627 865 654 829 643 783 c 0
 631 737 586 701 540 701 c 0
 494 701 467 737 479 783 c 0
513 783 m 0
 506 757 523 735 548 735 c 0
 574 735 602 757 608 783 c 0
 614 809 598 831 572 831 c 0
 546 831 519 809 513 783 c 0
EndSplineSet
EndChar

StartChar: Uhungarumlaut
Encoding: 368 368 309
Width: 720
Flags: MW
HStem: -10 54<319 462.5> 870 20G<481 605 605 605 650 774 774 774>
LayerCount: 2
Fore
SplineSet
255 599 m 1
 182 650 l 1
 462 650 l 1
 367 599 l 1
 284 263 l 2
 260 163 247 44 391 44 c 0
 535 44 597 164 619 254 c 2
 701 587 l 1
 625 650 l 1
 854 650 l 1
 750 587 l 1
 668 259 l 2
 640 143 557 -10 368 -10 c 0
 156 -10 138 128 169 254 c 2
 255 599 l 1
406 701 m 1
 481 890 l 1
 605 890 l 1
 406 701 l 1
575 701 m 1
 650 890 l 1
 774 890 l 1
 575 701 l 1
EndSplineSet
EndChar

StartChar: Tcommaaccent
Encoding: 354 354 310
Width: 637
Flags: MW
HStem: -358 21G -207 120<252.5 326> -20 20G<162 482 162 162> 615 35<290 416 290 290 528 654 528 528>
LayerCount: 2
Fore
SplineSet
772 650 m 1
 718 430 l 1
 654 615 l 1
 528 615 l 1
 391 61 l 1
 482 0 l 1
 162 0 l 1
 279 61 l 1
 416 615 l 1
 290 615 l 1
 134 430 l 1
 188 650 l 1
 772 650 l 1
227 -148 m 0
 235 -114 266 -87 305 -87 c 0
 347 -87 377 -112 358 -187 c 0
 341 -254 275 -325 187 -358 c 1
 262 -321 305 -247 311 -196 c 1
 298 -203 286 -207 270 -207 c 0
 235 -207 218 -181 227 -148 c 0
EndSplineSet
EndChar

StartChar: racute
Encoding: 341 341 311
Width: 409
Flags: MW
HStem: 0 21G<64 160 64 64> 346 114<370.5 401> 670 20G<342 466 466 466>
LayerCount: 2
Fore
SplineSet
160 0 m 1
 64 0 l 1
 158 383 l 1
 89 405 l 1
 272 460 l 1
 244 348 l 1
 298 409 l 2
 329 444 348 460 390 460 c 0
 431 460 454 438 447 402 c 0
 442 369 417 346 385 346 c 0
 356 346 347 364 349 384 c 0
 350 403 347 413 333 413 c 0
 323 413 316 408 304 395 c 2
 236 317 l 1
 160 0 l 1
250 501 m 1
 342 690 l 1
 466 690 l 1
 250 501 l 1
EndSplineSet
EndChar

StartChar: lacute
Encoding: 314 314 312
Width: 260
Flags: MW
HStem: -10 21G<91 137.5> 870 20G<319 443 443 443>
LayerCount: 2
Fore
SplineSet
68 57 m 2
 199 588 l 1
 130 610 l 1
 313 665 l 1
 162 47 l 1
 264 92 l 1
 233 58 167 -10 108 -10 c 0
 74 -10 57 12 68 57 c 2
227 701 m 1
 319 890 l 1
 443 890 l 1
 227 701 l 1
EndSplineSet
EndChar

StartChar: cacute
Encoding: 263 263 313
Width: 432
Flags: MW
HStem: -10 21G<148.5 259> 297 163<366.5 372 266.5 397.5> 430 30<275.5 333> 460 230<346 372>
LayerCount: 2
Fore
SplineSet
161 209 m 0x90
 155 92 215 59 281 65 c 0
 337 71 393 115 427 189 c 1
 391 60 310 -10 208 -10 c 0
 89 -10 34 92 67 225 c 0
 100 358 206 460 327 460 c 0
 417 460 459 410 446 351 c 0
 440 320 412 297 383 297 c 0
 350 297 345 326 350 348 c 0
 364 406 355 430 311 430 c 0
 240 430 169 328 161 209 c 0x90
254 501 m 1
 346 690 l 1
 470 690 l 1xa0
 254 501 l 1
EndSplineSet
EndChar

StartChar: ccaron
Encoding: 269 269 314
Width: 432
Flags: MW
HStem: -10 21G<148.5 259> 297 163<366.5 372 266.5 397.5> 430 30<275.5 333> 645 20G<242 242 486 486>
LayerCount: 2
Fore
SplineSet
161 209 m 0xd0
 155 92 215 59 281 65 c 0
 337 71 393 115 427 189 c 1
 391 60 310 -10 208 -10 c 0
 89 -10 34 92 67 225 c 0
 100 358 206 460 327 460 c 0
 417 460 459 410 446 351 c 0
 440 320 412 297 383 297 c 0
 350 297 345 326 350 348 c 0
 364 406 355 430 311 430 c 0
 240 430 169 328 161 209 c 0xd0
348 601 m 1
 486 665 l 1
 327 517 l 1
 242 665 l 1xb0
 348 601 l 1
EndSplineSet
EndChar

StartChar: ecaron
Encoding: 283 283 315
Width: 441
Flags: MW
HStem: -10 21G<144 261> 255 30 430 30<279.5 323> 645 20G<235 235 479 479>
LayerCount: 2
Fore
SplineSet
327 460 m 0
 416 460 463 420 456 357 c 0
 447 277 352 264 275 259 c 2
 166 252 l 1
 164 238 161 224 160 209 c 0
 153 95 215 59 283 65 c 0
 341 71 393 115 428 189 c 1
 395 70 317 -10 205 -10 c 0
 83 -10 35 95 67 225 c 0
 99 355 205 460 327 460 c 0
174 279 m 1
 258 285 l 2
 323 289 355 317 359 357 c 0
 366 408 338 430 308 430 c 0
 251 430 197 362 174 279 c 1
341 601 m 1
 479 665 l 1
 320 517 l 1
 235 665 l 1
 341 601 l 1
EndSplineSet
EndChar

StartChar: nacute
Encoding: 324 324 316
Width: 528
Flags: MW
HStem: -20 20G<64 160 64 64> -10 21G<355 401.5> 400 60 460 230<272 500 385 456>
LayerCount: 2
Fore
SplineSet
272 460 m 1x50
 244 347 l 1
 284 395 357 460 413 460 c 0
 499 460 511 395 487 296 c 2
 426 47 l 1xa0
 528 92 l 1
 497 58 431 -10 372 -10 c 0
 338 -10 321 12 332 57 c 2
 387 283 l 2
 407 365 404 400 356 400 c 0
 326 400 275 364 237 317 c 1
 160 0 l 1
 64 0 l 1
 158 383 l 1
 89 405 l 1
 272 460 l 1x50
284 501 m 1
 376 690 l 1
 500 690 l 1
 284 501 l 1
EndSplineSet
EndChar

StartChar: ncaron
Encoding: 328 328 317
Width: 528
Flags: MW
HStem: -20 20G<64 160 64 64> -10 21G<355 401.5> 400 60 645 20G<258 258 502 502>
LayerCount: 2
Fore
SplineSet
272 460 m 1x70
 244 347 l 1xb0
 284 395 357 460 413 460 c 0
 499 460 511 395 487 296 c 2
 426 47 l 1
 528 92 l 1
 497 58 431 -10 372 -10 c 0
 338 -10 321 12 332 57 c 2
 387 283 l 2
 407 365 404 400 356 400 c 0
 326 400 275 364 237 317 c 1
 160 0 l 1
 64 0 l 1
 158 383 l 1
 89 405 l 1
 272 460 l 1x70
364 601 m 1
 502 665 l 1
 343 517 l 1
 258 665 l 1
 364 601 l 1
EndSplineSet
EndChar

StartChar: ohungarumlaut
Encoding: 337 337 318
Width: 474
Flags: MW
HStem: -10 32<203.5 272.5 203.5 277> 428 32 460 230<310 389.5>
LayerCount: 2
Fore
SplineSet
66 225 m 0xa0
 100 361 204 460 330 460 c 0
 449 460 511 361 477 225 c 0
 444 89 340 -10 214 -10 c 0
 95 -10 33 89 66 225 c 0xa0
173 210 m 0
 159 91 172 22 235 22 c 0
 310 22 354 121 370 240 c 0
 386 359 371 427 308 428 c 0
 234 429 189 329 173 210 c 0
218 501 m 1
 310 690 l 1
 434 690 l 1
 218 501 l 1
384 501 m 1
 476 690 l 1
 600 690 l 1
 384 501 l 1
EndSplineSet
EndChar

StartChar: rcaron
Encoding: 345 345 319
Width: 409
Flags: MW
HStem: 0 21G<64 160 64 64> 346 114<370.5 401> 645 20G<221 221 465 465>
LayerCount: 2
Fore
SplineSet
160 0 m 1
 64 0 l 1
 158 383 l 1
 89 405 l 1
 272 460 l 1
 244 348 l 1
 298 409 l 2
 329 444 348 460 390 460 c 0
 431 460 454 438 447 402 c 0
 442 369 417 346 385 346 c 0
 356 346 347 364 349 384 c 0
 350 403 347 413 333 413 c 0
 323 413 316 408 304 395 c 2
 236 317 l 1
 160 0 l 1
327 601 m 1
 465 665 l 1
 306 517 l 1
 221 665 l 1
 327 601 l 1
EndSplineSet
EndChar

StartChar: uring
Encoding: 367 367 320
Width: 525
Flags: MW
HStem: -10 58<128 241.5> 501 34<340 365.5 340 367> 631 34<363.5 389>
LayerCount: 2
Fore
SplineSet
86 405 m 1
 269 460 l 1
 197 167 l 2
 177 85 176 48 223 48 c 0
 260 48 312 89 347 133 c 1
 410 383 l 1
 387 390 364 398 341 405 c 1
 402 423 463 442 524 460 c 1
 423 47 l 1
 526 92 l 1
 487 51 427 -10 369 -10 c 0
 332 -10 319 15 329 57 c 2
 340 101 l 1
 299 54 225 -10 171 -10 c 0
 85 -10 72 55 97 154 c 2
 155 383 l 1
 86 405 l 1
283 583 m 0
 294 629 339 665 385 665 c 0
 431 665 458 629 447 583 c 0
 435 537 390 501 344 501 c 0
 298 501 271 537 283 583 c 0
317 583 m 0
 310 557 327 535 353 535 c 0
 378 535 406 557 413 583 c 0
 419 609 402 631 376 631 c 0
 351 631 324 609 317 583 c 0
EndSplineSet
EndChar

StartChar: uhungarumlaut
Encoding: 369 369 321
Width: 525
Flags: MW
HStem: -10 58<128 241.5> 670 20G<300 424 424 424 466 590 590 590>
LayerCount: 2
Fore
SplineSet
86 405 m 1
 269 460 l 1
 197 167 l 2
 177 85 176 48 223 48 c 0
 260 48 312 89 347 133 c 1
 410 383 l 1
 387 390 364 398 341 405 c 1
 402 423 463 442 524 460 c 1
 423 47 l 1
 526 92 l 1
 487 51 427 -10 369 -10 c 0
 332 -10 319 15 329 57 c 2
 340 101 l 1
 299 54 225 -10 171 -10 c 0
 85 -10 72 55 97 154 c 2
 155 383 l 1
 86 405 l 1
208 501 m 1
 300 690 l 1
 424 690 l 1
 208 501 l 1
374 501 m 1
 466 690 l 1
 590 690 l 1
 374 501 l 1
EndSplineSet
EndChar

StartChar: tcommaaccent
Encoding: 355 355 322
Width: 338
Flags: MW
HStem: -358 21G -207 120<85.5 159> 423 27<269 371 277 363> 558 20G<309 309>
LayerCount: 2
Fore
SplineSet
102 423 m 1
 309 578 l 1
 277 450 l 1
 371 450 l 1
 363 423 l 1
 269 423 l 1
 191 102 l 2
 171 22 251 53 304 98 c 1
 252 28 197 -10 151 -10 c 0
 99 -10 76 21 93 87 c 2
 174 423 l 1
 102 423 l 1
60 -148 m 0
 68 -114 99 -87 138 -87 c 0
 180 -87 210 -112 191 -187 c 0
 174 -254 108 -325 20 -358 c 1
 95 -321 138 -247 144 -196 c 1
 131 -203 119 -207 103 -207 c 0
 68 -207 51 -181 60 -148 c 0
EndSplineSet
EndChar

StartChar: Lcaron
Encoding: 317 317 323
Width: 603
Flags: MW
HStem: 0 35<231 468 231 570> 845 20G<246 246 524 524>
LayerCount: 2
Fore
SplineSet
624 220 m 1
 570 0 l 1
 27 0 l 1
 122 51 l 1
 258 599 l 1
 185 650 l 1
 485 650 l 1
 366 589 l 1
 231 35 l 1
 468 35 l 1
 624 220 l 1
370 804 m 1
 524 865 l 1
 347 710 l 1
 246 865 l 1
 370 804 l 1
EndSplineSet
EndChar

StartChar: abreve
Encoding: 259 259 324
Width: 499
Flags: MW
HStem: -10 62<116 211> 431 29<302 351 283 355> 537 63<346.5 396.5> 644 20G
LayerCount: 2
Fore
SplineSet
315 106 m 1
 271 41 215 -10 160 -10 c 0
 72 -10 34 78 72 216 c 0
 117 376 233 460 333 460 c 0
 369 460 396 443 406 417 c 1
 498 460 l 1
 464 322 430 185 397 47 c 1
 499 92 l 1
 461 51 400 -10 343 -10 c 0
 306 -10 294 15 303 57 c 0
 305 65 313 97 315 106 c 1
170 206 m 0
 147 102 165 52 211 52 c 0
 239 53 285 83 321 133 c 1
 378 367 l 2
 384 396 377 431 333 431 c 0
 271 431 200 342 170 206 c 0
357 537 m 0
 277 537 244 591 253 664 c 1
 276 615 320 600 373 600 c 0
 426 600 478 615 525 664 c 1
 497 591 436 537 357 537 c 0
EndSplineSet
EndChar

StartChar: scommaaccent
Encoding: 537 537 325
Width: 413
Flags: MW
HStem: -358 21G -207 120<102.5 176> -10 32<179.5 224 171 240> 428 32<247.5 294.5 231 298.5>
LayerCount: 2
Fore
SplineSet
362 436 m 1
 419 460 l 1
 375 288 l 1
 363 394 324 428 273 428 c 0
 222 428 187 405 181 364 c 0
 174 326 196 307 240 285 c 2
 294 258 l 2
 354 229 380 180 368 112 c 0
 352 32 280 -10 200 -10 c 0
 159 -10 124 4 103 21 c 1
 34 -10 l 1
 76 164 l 1
 94 62 139 22 203 22 c 0
 245 22 278 44 286 85 c 0
 297 142 252 166 196 189 c 0
 125 217 96 256 108 328 c 0
 122 408 188 460 274 460 c 0
 315 460 348 447 362 436 c 1
77 -148 m 0
 85 -114 116 -87 155 -87 c 0
 197 -87 227 -112 208 -187 c 0
 191 -254 125 -325 37 -358 c 1
 112 -321 155 -247 161 -196 c 1
 148 -203 136 -207 120 -207 c 0
 85 -207 68 -181 77 -148 c 0
EndSplineSet
EndChar

StartChar: ae
Encoding: 230 230 326
Width: 699
Flags: MW
HStem: -10 58<105 213.5> 255 30 297 163<144.5 359.5> 431 29<289 337>
LayerCount: 2
Fore
SplineSet
585 460 m 0xe0
 674 460 722 420 714 357 c 0
 705 277 611 264 534 259 c 2
 424 252 l 1
 422 238 419 224 418 209 c 0
 411 95 473 59 542 65 c 0
 600 71 651 115 686 189 c 1
 653 70 575 -10 463 -10 c 0
 394 -10 349 23 329 76 c 1
 264 20 203 -10 145 -10 c 0
 65 -10 31 45 49 112 c 0
 75 218 202 242 345 294 c 1
 350 311 l 1
 372 400 362 431 312 431 c 0xd0
 266 431 231 407 217 348 c 0
 210 316 186 297 159 297 c 0
 130 297 120 319 127 348 c 0
 145 413 246 460 328 460 c 0
 391 460 423 438 435 402 c 1
 478 438 530 460 585 460 c 0xe0
202 48 m 0
 225 48 266 55 322 97 c 1
 312 133 313 177 325 225 c 0
 328 239 333 252 338 266 c 1
 217 222 162 195 147 139 c 0
 135 92 152 48 202 48 c 0
432 279 m 1
 516 285 l 2
 581 289 613 317 617 357 c 0
 624 408 597 430 566 430 c 0
 509 430 455 362 432 279 c 1
EndSplineSet
EndChar

StartChar: eogonek
Encoding: 281 281 327
Width: 441
Flags: MW
HStem: -160 68<300 308.5> 255 30 430 30<279.5 323>
LayerCount: 2
Fore
SplineSet
327 460 m 0
 416 460 463 420 456 357 c 0
 447 277 352 264 275 259 c 2
 166 252 l 1
 164 238 161 224 160 209 c 0
 153 95 215 59 283 65 c 0
 341 71 393 115 428 189 c 1
 409 123 371 74 334 34 c 0
 314 12 295 -8 287 -35 c 0
 276 -67 286 -92 314 -92 c 0
 350 -92 371 -59 381 -40 c 1
 380 -84 344 -160 273 -160 c 0
 232 -160 207 -134 219 -87 c 0
 227 -50 251 -23 273 1 c 1
 252 -6 230 -10 205 -10 c 0
 83 -10 35 95 67 225 c 0
 99 355 205 460 327 460 c 0
174 279 m 1
 258 285 l 2
 323 289 355 317 359 357 c 0
 366 408 338 430 308 430 c 0
 251 430 197 362 174 279 c 1
EndSplineSet
EndChar

StartChar: aogonek
Encoding: 261 261 328
Width: 499
Flags: MW
HStem: -160 68<407 414.5> -10 62<116 211> 431 29<302 351 283 355>
LayerCount: 2
Fore
SplineSet
315 106 m 1
 271 41 215 -10 160 -10 c 0
 72 -10 34 78 72 216 c 0
 117 376 233 460 333 460 c 0
 369 460 396 443 406 417 c 1
 498 460 l 1
 464 322 430 185 397 47 c 1
 499 92 l 1
 466 66 410 17 395 -35 c 0
 383 -71 393 -92 421 -92 c 0
 457 -92 478 -59 488 -40 c 1
 487 -84 450 -160 379 -160 c 0
 339 -160 313 -134 325 -87 c 0
 333 -53 354 -26 375 -4 c 1
 364 -8 353 -10 343 -10 c 0
 306 -10 294 15 303 57 c 0
 305 65 313 97 315 106 c 1
170 206 m 0
 147 102 165 52 211 52 c 0
 239 53 285 83 321 133 c 1
 378 367 l 2
 384 396 377 431 333 431 c 0
 271 431 200 342 170 206 c 0
EndSplineSet
EndChar

StartChar: dcaron
Encoding: 271 271 329
Width: 609
Flags: MW
HStem: -10 62<185.5 187.5> 432 28<333 343 273 350> 545 120<551 651>
LayerCount: 2
Fore
SplineSet
317 106 m 1
 274 41 215 -10 160 -10 c 0
 72 -10 34 76 72 215 c 0
 112 363 220 460 326 460 c 0
 360 460 382 446 397 425 c 1
 437 588 l 1
 413 595 390 603 367 610 c 1
 428 628 490 647 551 665 c 1
 400 47 l 1
 502 92 l 1
 471 58 405 -10 346 -10 c 0
 311 -10 297 13 306 57 c 2
 317 106 l 1
169 205 m 0
 150 110 158 52 213 52 c 0
 244 52 288 83 325 133 c 1
 377 350 l 2
 391 408 367 432 333 432 c 0
 269 431 195 335 169 205 c 0
599 604 m 0
 608 638 638 665 677 665 c 0
 719 665 749 639 730 564 c 0
 714 497 648 426 559 393 c 1
 635 430 677 504 683 555 c 1
 670 548 659 545 643 545 c 0
 608 545 591 571 599 604 c 0
EndSplineSet
EndChar

StartChar: lcaron
Encoding: 318 318 330
Width: 373
Flags: MW
HStem: -10 21G<91 137.5> 545 120<313 425>
LayerCount: 2
Fore
SplineSet
68 57 m 2
 199 588 l 1
 130 610 l 1
 313 665 l 1
 162 47 l 1
 264 92 l 1
 233 58 167 -10 108 -10 c 0
 74 -10 57 12 68 57 c 2
373 604 m 0
 382 638 412 665 451 665 c 0
 493 665 523 639 504 564 c 0
 488 497 422 426 333 393 c 1
 409 430 451 504 457 555 c 1
 444 548 433 545 417 545 c 0
 382 545 365 571 373 604 c 0
EndSplineSet
EndChar

StartChar: dcroat
Encoding: 273 273 331
Width: 498
Flags: MW
HStem: -10 62<185.5 187.5> 432 28<333 343 273 350> 513 32<306 426 314 418 521 616> 645 20G<551 551>
LayerCount: 2
Fore
SplineSet
306 513 m 1
 314 545 l 1
 426 545 l 1
 437 588 l 1
 413 595 390 603 367 610 c 1
 428 628 490 647 551 665 c 1
 521 545 l 1
 624 545 l 1
 616 513 l 1
 513 513 l 1
 400 47 l 1
 502 92 l 1
 471 58 405 -10 346 -10 c 0
 311 -10 297 13 306 57 c 2
 317 106 l 1
 274 41 215 -10 160 -10 c 0
 72 -10 34 76 72 215 c 0
 112 363 220 460 326 460 c 0
 360 460 382 446 397 425 c 1
 418 513 l 1
 306 513 l 1
169 205 m 0
 150 110 158 52 213 52 c 0
 244 52 288 83 325 133 c 1
 377 350 l 2
 391 408 367 432 333 432 c 0
 269 431 195 335 169 205 c 0
EndSplineSet
EndChar

StartChar: tcaron
Encoding: 357 357 332
Width: 414
Flags: MW
HStem: -10 21G<125 174> 430 20G<277 371 277 277> 545 120<433.5 506>
LayerCount: 2
Fore
SplineSet
309 578 m 1
 102 423 l 1
 174 423 l 1
 93 87 l 2
 76 21 99 -10 151 -10 c 0
 197 -10 252 28 304 98 c 1
 251 53 171 22 191 102 c 2
 269 423 l 1
 363 423 l 1
 371 450 l 1
 277 450 l 1
 309 578 l 1
407 604 m 0
 416 638 446 665 485 665 c 0
 527 665 557 639 538 564 c 0
 522 497 456 426 367 393 c 1
 443 430 485 504 491 555 c 1
 478 548 467 545 451 545 c 0
 416 545 399 571 407 604 c 0
EndSplineSet
EndChar

StartChar: multiply
Encoding: 215 215 333
Width: 530
Flags: MW
HStem: 165 21G<173 173 457 457> 475 20G<183 183 447 447>
LayerCount: 2
Fore
SplineSet
155 467 m 1
 183 495 l 1
 315 363 l 1
 447 495 l 1
 475 467 l 1
 343 335 l 1
 485 193 l 1
 457 165 l 1
 315 307 l 1
 173 165 l 1
 145 193 l 1
 287 335 l 1
 155 467 l 1
EndSplineSet
EndChar

StartChar: divide
Encoding: 247 247 334
Width: 502
Flags: MW
HStem: 126 120<284.5 318> 320 32<106 496 106 496> 426 120<284.5 318>
VStem: 241 120<168.5 202 468.5 502>
CounterMasks: 1 e0
LayerCount: 2
Fore
SplineSet
106 320 m 1
 106 352 l 1
 496 352 l 1
 496 320 l 1
 106 320 l 1
241 185 m 0
 241 219 268 246 301 246 c 0
 335 246 361 219 361 185 c 0
 361 152 335 126 301 126 c 0
 268 126 241 152 241 185 c 0
241 485 m 0
 241 519 268 546 301 546 c 0
 335 546 361 519 361 485 c 0
 361 452 335 426 301 426 c 0
 268 426 241 452 241 485 c 0
EndSplineSet
EndChar

StartChar: oe
Encoding: 339 339 335
Width: 758
Flags: MW
HStem: -10 32<203.5 248.5> 255 30 428 32
LayerCount: 2
Fore
SplineSet
66 225 m 0
 100 361 204 460 330 460 c 0
 396 460 444 429 468 378 c 1
 516 427 577 460 644 460 c 0
 733 460 781 420 773 357 c 0
 764 277 670 264 593 259 c 2
 483 252 l 1
 481 238 478 224 477 209 c 0
 470 95 532 59 601 65 c 0
 659 71 710 115 745 189 c 1
 712 70 634 -10 522 -10 c 0
 457 -10 413 20 391 68 c 1
 344 20 283 -10 214 -10 c 0
 95 -10 33 89 66 225 c 0
173 210 m 0
 159 91 172 22 235 22 c 0
 310 22 354 121 370 240 c 0
 386 359 371 427 308 428 c 0
 234 429 189 329 173 210 c 0
491 279 m 1
 575 285 l 2
 640 289 672 317 677 357 c 0
 683 408 656 430 625 430 c 0
 568 430 514 362 491 279 c 1
EndSplineSet
EndChar

StartChar: afii10060
Encoding: 1035 1035 336
Width: 784
Flags: MW
HStem: -20 20G<162 482 162 162> -10 21G<613 660> 350 60<600 614> 615 35<293 419 293 293 531 531 531 657>
LayerCount: 2
Fore
SplineSet
590 57 m 2x70
 635 233 l 2
 655 315 648 350 580 350 c 0
 533 350 485 324 449 287 c 1
 430 212 411 136 392 61 c 1
 423 41 452 20 482 0 c 1
 162 0 l 1xb0
 202 20 241 41 280 61 c 1
 327 246 373 430 419 615 c 1
 293 615 l 1
 241 553 189 492 137 430 c 1
 155 503 174 577 192 650 c 1
 776 650 l 1
 758 577 739 503 721 430 c 1
 700 492 678 553 657 615 c 1
 531 615 l 1
 506 516 482 416 457 317 c 1
 497 355 562 410 638 410 c 0
 747 410 759 345 734 246 c 0
 717 180 701 113 684 47 c 1
 719 62 753 77 787 92 c 1
 755 58 690 -10 630 -10 c 0
 596 -10 580 12 590 57 c 2x70
EndSplineSet
EndChar

StartChar: afii10051
Encoding: 1026 1026 337
Width: 767
Flags: MW
HStem: -10 21G<529 607> 0 125<162 549> 350 60<611 636.5> 615 35<293 419 293 293 531 531 531 657>
LayerCount: 2
Fore
SplineSet
773 222 m 1x70
 770 206 l 1
 737 73 656 -10 558 -10 c 0xb0
 500 -10 458 11 465 64 c 0
 471 99 496 125 531 125 c 0
 567 125 570 96 563 65 c 0
 557 40 556 19 578 19 c 0
 629 19 643 82 674 206 c 1
 677 216 l 1
 700 312 677 350 596 350 c 0
 539 350 485 324 449 287 c 1
 392 61 l 1
 452 0 l 1
 162 0 l 1
 280 61 l 1
 419 615 l 1
 293 615 l 1
 137 430 l 1
 192 650 l 1
 776 650 l 1
 721 430 l 1
 657 615 l 1
 531 615 l 1
 457 317 l 1
 497 355 568 410 654 410 c 0
 773 410 802 335 773 222 c 1x70
EndSplineSet
EndChar

StartChar: afii10108
Encoding: 1115 1115 338
Width: 537
Flags: MW
HStem: -20 20G<70 165 70 70> -10 21G<369.5 418.5> 350 60<381 388> 510 27<292 393 299 386> 645 20G<331 331>
LayerCount: 2
Fore
SplineSet
125 510 m 1xb8
 331 665 l 1
 320 622 310 580 299 537 c 1
 393 537 l 1
 391 528 388 519 386 510 c 1
 292 510 l 1
 277 446 261 381 245 317 c 1
 285 355 343 410 419 410 c 0
 515 410 517 345 492 246 c 2
 442 47 l 1x78
 544 92 l 1
 513 59 449 -10 388 -10 c 0
 351 -10 338 15 348 57 c 2
 393 233 l 2
 414 315 415 350 361 350 c 0
 314 350 273 324 237 287 c 1
 213 191 189 96 165 0 c 1
 70 0 l 1
 112 170 155 340 197 510 c 1
 125 510 l 1xb8
EndSplineSet
EndChar

StartChar: afii10099
Encoding: 1106 1106 339
Width: 537
Flags: MW
HStem: -210 29<230.5 266 230.5 274> -210 135<193.5 209 173.5 274> -20 20G<70 165 70 70> 350 60<381 388> 510 27<292 393 299 386> 645 20G<331 331>
LayerCount: 2
Fore
SplineSet
125 510 m 1xbc
 331 665 l 1
 320 622 310 580 299 537 c 1
 393 537 l 1
 391 528 388 519 386 510 c 1
 292 510 l 1
 277 446 261 381 245 317 c 1
 285 355 343 410 419 410 c 0
 515 410 517 345 492 246 c 2
 433 13 l 2
 400 -123 326 -210 222 -210 c 0
 165 -210 123 -189 129 -136 c 0x7c
 134 -99 156 -75 191 -75 c 0
 227 -75 236 -104 227 -135 c 0
 220 -161 220 -181 241 -181 c 0
 291 -181 307 -111 337 13 c 2
 393 233 l 2
 414 315 415 350 361 350 c 0
 314 350 273 324 237 287 c 1
 213 191 189 96 165 0 c 1
 70 0 l 1
 112 170 155 340 197 510 c 1
 125 510 l 1xbc
EndSplineSet
EndChar

StartChar: afii10193
Encoding: 1119 1119 340
Width: 525
Flags: MW
HStem: -203 21G -10 58<128 241.5> 440 20G<269 269 524 524>
LayerCount: 2
Fore
SplineSet
86 405 m 1
 269 460 l 1
 197 167 l 2
 177 85 176 48 223 48 c 0
 260 48 312 89 347 133 c 1
 410 383 l 1
 387 390 364 398 341 405 c 1
 402 423 463 442 524 460 c 1
 423 47 l 1
 526 92 l 1
 487 51 427 -10 369 -10 c 0
 332 -10 319 15 329 57 c 2
 340 101 l 1
 309 65 262 40 257 -16 c 0
 254 -47 268 -71 264 -104 c 0
 258 -156 210 -184 167 -203 c 1
 183 -173 189 -158 192 -128 c 0
 196 -92 187 -78 192 -48 c 0
 196 -25 204 -11 217 2 c 1
 200 -5 185 -10 171 -10 c 0
 85 -10 72 55 97 154 c 2
 155 383 l 1
 86 405 l 1
EndSplineSet
EndChar

StartChar: afii10098
Encoding: 1169 1169 341
Width: 387
Flags: MW
HStem: -10 47<198.5 225> 416 44<214.5 307.5> 617 20G
LayerCount: 2
Fore
SplineSet
106 345 m 1
 129 387 142 411 144 450 c 0
 146 481 134 506 138 538 c 0
 144 590 191 619 235 637 c 1
 218 607 213 592 209 562 c 0
 205 526 214 513 209 482 c 0
 206 463 196 446 187 438 c 1
 215 454 242 460 267 460 c 0
 348 460 407 415 398 338 c 0
 390 270 324 246 239 217 c 0
 178 194 146 173 141 117 c 0
 135 62 175 37 222 37 c 0
 271 37 323 63 366 135 c 1
 334 36 265 -10 185 -10 c 0
 99 -10 36 34 49 113 c 0
 61 190 132 211 213 243 c 0
 264 262 296 282 303 332 c 0
 311 385 276 416 233 416 c 0
 196 416 151 402 106 345 c 1
EndSplineSet
EndChar

StartChar: lslash
Encoding: 322 322 342
Width: 358
Flags: MW
HStem: -10 21G<122.5 169> 645 20G<345 345>
LayerCount: 2
Fore
SplineSet
39 215 m 1
 30 242 l 1
 161 306 l 1
 231 588 l 1
 162 610 l 1
 345 665 l 1
 270 360 l 1
 386 418 l 1
 395 391 l 1
 261 324 l 1
 194 47 l 1
 296 92 l 1
 265 58 199 -10 139 -10 c 0
 106 -10 89 12 99 57 c 2
 152 271 l 1
 39 215 l 1
EndSplineSet
EndChar
